  0
SECTION
  2
HEADER
  9
$ACADVER
  1
AC1009
  9
$FILLMODE
 70
 0
  9
$SPLFRAME
 70
 1
  9
$EXTMIN
 10
0
 20
0
 30
0.0
  9
$EXTMAX
 10
1058.33
 20
1058.33
 30
0.0
  0
ENDSEC
  0
SECTION
  2
TABLES
  0
TABLE
  2
LAYER
 70
1
  0
LAYER
  2
0
 70
     0
 62
     7
  6
CONTINUOUS
  0
ENDTAB
  0
ENDSEC
  0
SECTION
  2
ENTITIES
  0
LINE
  8
0
 62
     0
 10
0.0950846
 20
114.558
 30
0.0
 11
314.42
 21
114.558
 31
0.0
  0
LINE
  8
0
 62
     0
 10
314.42
 20
114.558
 30
0.0
 11
314.42
 21
0.257693
 31
0.0
  0
LINE
  8
0
 62
     0
 10
314.42
 20
0.257693
 30
0.0
 11
0.0950846
 21
0.257693
 31
0.0
  0
LINE
  8
0
 62
     0
 10
0.0950846
 20
0.257693
 30
0.0
 11
0.0950846
 21
114.558
 31
0.0
  0
LINE
  8
0
 62
     0
 10
140.732
 20
16.7845
 30
0.0
 11
140.732
 21
15.7841
 31
0.0
  0
LINE
  8
0
 62
     0
 10
140.732
 20
15.7841
 30
0.0
 11
139.931
 21
15.7841
 31
0.0
  0
LINE
  8
0
 62
     0
 10
139.931
 20
15.7841
 30
0.0
 11
139.931
 21
12.6848
 31
0.0
  0
LINE
  8
0
 62
     0
 10
139.931
 20
12.6848
 30
0.0
 11
140.732
 21
12.6848
 31
0.0
  0
LINE
  8
0
 62
     0
 10
140.732
 20
12.6848
 30
0.0
 11
140.732
 21
12.0826
 31
0.0
  0
LINE
  8
0
 62
     0
 10
140.732
 20
12.0826
 30
0.0
 11
94.0816
 21
12.0826
 31
0.0
  0
LINE
  8
0
 62
     0
 10
94.0816
 20
12.0826
 30
0.0
 11
94.0816
 21
15.3142
 31
0.0
  0
LINE
  8
0
 62
     0
 10
94.0816
 20
15.3142
 30
0.0
 11
87.3319
 21
15.3142
 31
0.0
  0
LINE
  8
0
 62
     0
 10
87.3319
 20
15.3142
 30
0.0
 11
87.3319
 21
12.0826
 31
0.0
  0
LINE
  8
0
 62
     0
 10
87.3319
 20
12.0826
 30
0.0
 11
86.5064
 21
12.0826
 31
0.0
  0
LINE
  8
0
 62
     0
 10
86.5064
 20
12.0826
 30
0.0
 11
86.5064
 21
9.28384
 31
0.0
  0
LINE
  8
0
 62
     0
 10
86.5064
 20
9.28384
 30
0.0
 11
87.3319
 21
9.28384
 31
0.0
  0
LINE
  8
0
 62
     0
 10
87.3319
 20
9.28384
 30
0.0
 11
87.3319
 21
3.01377
 31
0.0
  0
LINE
  8
0
 62
     0
 10
87.3319
 20
3.01377
 30
0.0
 11
89.057
 21
3.01377
 31
0.0
  0
LINE
  8
0
 62
     0
 10
89.057
 20
3.01377
 30
0.0
 11
89.057
 21
1.81488
 31
0.0
  0
LINE
  8
0
 62
     0
 10
89.057
 20
1.81488
 30
0.0
 11
92.3562
 21
1.81488
 31
0.0
  0
LINE
  8
0
 62
     0
 10
92.3562
 20
1.81488
 30
0.0
 11
92.3562
 21
3.01377
 31
0.0
  0
LINE
  8
0
 62
     0
 10
92.3562
 20
3.01377
 30
0.0
 11
94.0816
 21
3.01377
 31
0.0
  0
LINE
  8
0
 62
     0
 10
94.0816
 20
3.01377
 30
0.0
 11
94.0816
 21
7.48411
 31
0.0
  0
LINE
  8
0
 62
     0
 10
94.0816
 20
7.48411
 30
0.0
 11
140.732
 21
7.48411
 31
0.0
  0
LINE
  8
0
 62
     0
 10
140.732
 20
7.48411
 30
0.0
 11
140.732
 21
6.88329
 31
0.0
  0
LINE
  8
0
 62
     0
 10
140.732
 20
6.88329
 30
0.0
 11
139.931
 21
6.88329
 31
0.0
  0
LINE
  8
0
 62
     0
 10
139.931
 20
6.88329
 30
0.0
 11
139.931
 21
3.78411
 31
0.0
  0
LINE
  8
0
 62
     0
 10
139.931
 20
3.78411
 30
0.0
 11
140.732
 21
3.78411
 31
0.0
  0
LINE
  8
0
 62
     0
 10
140.732
 20
3.78411
 30
0.0
 11
140.732
 21
2.78364
 31
0.0
  0
LINE
  8
0
 62
     0
 10
140.732
 20
2.78364
 30
0.0
 11
154.732
 21
2.78364
 31
0.0
  0
LINE
  8
0
 62
     0
 10
154.732
 20
2.78364
 30
0.0
 11
154.732
 21
3.78411
 31
0.0
  0
LINE
  8
0
 62
     0
 10
154.732
 20
3.78411
 30
0.0
 11
155.531
 21
3.78411
 31
0.0
  0
LINE
  8
0
 62
     0
 10
155.531
 20
3.78411
 30
0.0
 11
155.531
 21
6.88329
 31
0.0
  0
LINE
  8
0
 62
     0
 10
155.531
 20
6.88329
 30
0.0
 11
154.732
 21
6.88329
 31
0.0
  0
LINE
  8
0
 62
     0
 10
154.732
 20
6.88329
 30
0.0
 11
154.732
 21
7.48411
 31
0.0
  0
LINE
  8
0
 62
     0
 10
154.732
 20
7.48411
 30
0.0
 11
182.331
 21
7.48411
 31
0.0
  0
LINE
  8
0
 62
     0
 10
182.331
 20
7.48411
 30
0.0
 11
182.331
 21
3.01377
 31
0.0
  0
LINE
  8
0
 62
     0
 10
182.331
 20
3.01377
 30
0.0
 11
184.056
 21
3.01377
 31
0.0
  0
LINE
  8
0
 62
     0
 10
184.056
 20
3.01377
 30
0.0
 11
184.056
 21
1.81488
 31
0.0
  0
LINE
  8
0
 62
     0
 10
184.056
 20
1.81488
 30
0.0
 11
187.357
 21
1.81488
 31
0.0
  0
LINE
  8
0
 62
     0
 10
187.357
 20
1.81488
 30
0.0
 11
187.357
 21
3.01377
 31
0.0
  0
LINE
  8
0
 62
     0
 10
187.357
 20
3.01377
 30
0.0
 11
189.082
 21
3.01377
 31
0.0
  0
LINE
  8
0
 62
     0
 10
189.082
 20
3.01377
 30
0.0
 11
189.082
 21
9.28384
 31
0.0
  0
LINE
  8
0
 62
     0
 10
189.082
 20
9.28384
 30
0.0
 11
189.906
 21
9.28384
 31
0.0
  0
LINE
  8
0
 62
     0
 10
189.906
 20
9.28384
 30
0.0
 11
189.906
 21
12.0826
 31
0.0
  0
LINE
  8
0
 62
     0
 10
189.906
 20
12.0826
 30
0.0
 11
189.082
 21
12.0826
 31
0.0
  0
LINE
  8
0
 62
     0
 10
189.082
 20
12.0826
 30
0.0
 11
189.082
 21
15.3142
 31
0.0
  0
LINE
  8
0
 62
     0
 10
189.082
 20
15.3142
 30
0.0
 11
182.331
 21
15.3142
 31
0.0
  0
LINE
  8
0
 62
     0
 10
182.331
 20
15.3142
 30
0.0
 11
182.331
 21
12.0826
 31
0.0
  0
LINE
  8
0
 62
     0
 10
182.331
 20
12.0826
 30
0.0
 11
154.732
 21
12.0826
 31
0.0
  0
LINE
  8
0
 62
     0
 10
154.732
 20
12.0826
 30
0.0
 11
154.732
 21
12.6848
 31
0.0
  0
LINE
  8
0
 62
     0
 10
154.732
 20
12.6848
 30
0.0
 11
155.531
 21
12.6848
 31
0.0
  0
LINE
  8
0
 62
     0
 10
155.531
 20
12.6848
 30
0.0
 11
155.531
 21
15.7841
 31
0.0
  0
LINE
  8
0
 62
     0
 10
155.531
 20
15.7841
 30
0.0
 11
154.732
 21
15.7841
 31
0.0
  0
LINE
  8
0
 62
     0
 10
154.732
 20
15.7841
 30
0.0
 11
154.732
 21
16.7845
 31
0.0
  0
LINE
  8
0
 62
     0
 10
154.732
 20
16.7845
 30
0.0
 11
140.732
 21
16.7845
 31
0.0
  0
LINE
  8
0
 62
     0
 10
2.61965
 20
16.7845
 30
0.0
 11
2.61965
 21
15.7841
 31
0.0
  0
LINE
  8
0
 62
     0
 10
2.61965
 20
15.7841
 30
0.0
 11
1.81901
 21
15.7841
 31
0.0
  0
LINE
  8
0
 62
     0
 10
1.81901
 20
15.7841
 30
0.0
 11
1.81901
 21
12.6848
 31
0.0
  0
LINE
  8
0
 62
     0
 10
1.81901
 20
12.6848
 30
0.0
 11
2.61965
 21
12.6848
 31
0.0
  0
LINE
  8
0
 62
     0
 10
2.61965
 20
12.6848
 30
0.0
 11
2.61965
 21
6.88329
 31
0.0
  0
LINE
  8
0
 62
     0
 10
2.61965
 20
6.88329
 30
0.0
 11
1.81901
 21
6.88329
 31
0.0
  0
LINE
  8
0
 62
     0
 10
1.81901
 20
6.88329
 30
0.0
 11
1.81901
 21
3.78411
 31
0.0
  0
LINE
  8
0
 62
     0
 10
1.81901
 20
3.78411
 30
0.0
 11
2.61965
 21
3.78411
 31
0.0
  0
LINE
  8
0
 62
     0
 10
2.61965
 20
3.78411
 30
0.0
 11
2.61965
 21
2.78364
 31
0.0
  0
LINE
  8
0
 62
     0
 10
2.61965
 20
2.78364
 30
0.0
 11
16.6192
 21
2.78364
 31
0.0
  0
LINE
  8
0
 62
     0
 10
16.6192
 20
2.78364
 30
0.0
 11
16.6192
 21
3.78411
 31
0.0
  0
LINE
  8
0
 62
     0
 10
16.6192
 20
3.78411
 30
0.0
 11
17.4198
 21
3.78411
 31
0.0
  0
LINE
  8
0
 62
     0
 10
17.4198
 20
3.78411
 30
0.0
 11
17.4198
 21
6.88329
 31
0.0
  0
LINE
  8
0
 62
     0
 10
17.4198
 20
6.88329
 30
0.0
 11
16.6192
 21
6.88329
 31
0.0
  0
LINE
  8
0
 62
     0
 10
16.6192
 20
6.88329
 30
0.0
 11
16.6192
 21
12.6848
 31
0.0
  0
LINE
  8
0
 62
     0
 10
16.6192
 20
12.6848
 30
0.0
 11
17.4198
 21
12.6848
 31
0.0
  0
LINE
  8
0
 62
     0
 10
17.4198
 20
12.6848
 30
0.0
 11
17.4198
 21
15.7841
 31
0.0
  0
LINE
  8
0
 62
     0
 10
17.4198
 20
15.7841
 30
0.0
 11
16.6192
 21
15.7841
 31
0.0
  0
LINE
  8
0
 62
     0
 10
16.6192
 20
15.7841
 30
0.0
 11
16.6192
 21
16.7845
 31
0.0
  0
LINE
  8
0
 62
     0
 10
16.6192
 20
16.7845
 30
0.0
 11
2.61965
 21
16.7845
 31
0.0
  0
LINE
  8
0
 62
     0
 10
21.6697
 20
16.7845
 30
0.0
 11
21.6697
 21
15.7841
 31
0.0
  0
LINE
  8
0
 62
     0
 10
21.6697
 20
15.7841
 30
0.0
 11
20.869
 21
15.7841
 31
0.0
  0
LINE
  8
0
 62
     0
 10
20.869
 20
15.7841
 30
0.0
 11
20.869
 21
12.6848
 31
0.0
  0
LINE
  8
0
 62
     0
 10
20.869
 20
12.6848
 30
0.0
 11
21.6697
 21
12.6848
 31
0.0
  0
LINE
  8
0
 62
     0
 10
21.6697
 20
12.6848
 30
0.0
 11
21.6697
 21
6.88329
 31
0.0
  0
LINE
  8
0
 62
     0
 10
21.6697
 20
6.88329
 30
0.0
 11
20.869
 21
6.88329
 31
0.0
  0
LINE
  8
0
 62
     0
 10
20.869
 20
6.88329
 30
0.0
 11
20.869
 21
3.78411
 31
0.0
  0
LINE
  8
0
 62
     0
 10
20.869
 20
3.78411
 30
0.0
 11
21.6697
 21
3.78411
 31
0.0
  0
LINE
  8
0
 62
     0
 10
21.6697
 20
3.78411
 30
0.0
 11
21.6697
 21
2.78364
 31
0.0
  0
LINE
  8
0
 62
     0
 10
21.6697
 20
2.78364
 30
0.0
 11
35.669
 21
2.78364
 31
0.0
  0
LINE
  8
0
 62
     0
 10
35.669
 20
2.78364
 30
0.0
 11
35.669
 21
3.78411
 31
0.0
  0
LINE
  8
0
 62
     0
 10
35.669
 20
3.78411
 30
0.0
 11
36.4698
 21
3.78411
 31
0.0
  0
LINE
  8
0
 62
     0
 10
36.4698
 20
3.78411
 30
0.0
 11
36.4698
 21
6.88329
 31
0.0
  0
LINE
  8
0
 62
     0
 10
36.4698
 20
6.88329
 30
0.0
 11
35.669
 21
6.88329
 31
0.0
  0
LINE
  8
0
 62
     0
 10
35.669
 20
6.88329
 30
0.0
 11
35.669
 21
12.6848
 31
0.0
  0
LINE
  8
0
 62
     0
 10
35.669
 20
12.6848
 30
0.0
 11
36.4698
 21
12.6848
 31
0.0
  0
LINE
  8
0
 62
     0
 10
36.4698
 20
12.6848
 30
0.0
 11
36.4698
 21
15.7841
 31
0.0
  0
LINE
  8
0
 62
     0
 10
36.4698
 20
15.7841
 30
0.0
 11
35.669
 21
15.7841
 31
0.0
  0
LINE
  8
0
 62
     0
 10
35.669
 20
15.7841
 30
0.0
 11
35.669
 21
16.7845
 31
0.0
  0
LINE
  8
0
 62
     0
 10
35.669
 20
16.7845
 30
0.0
 11
21.6697
 21
16.7845
 31
0.0
  0
LINE
  8
0
 62
     0
 10
40.7197
 20
16.7845
 30
0.0
 11
40.7197
 21
15.7841
 31
0.0
  0
LINE
  8
0
 62
     0
 10
40.7197
 20
15.7841
 30
0.0
 11
39.9189
 21
15.7841
 31
0.0
  0
LINE
  8
0
 62
     0
 10
39.9189
 20
15.7841
 30
0.0
 11
39.9189
 21
12.6848
 31
0.0
  0
LINE
  8
0
 62
     0
 10
39.9189
 20
12.6848
 30
0.0
 11
40.7197
 21
12.6848
 31
0.0
  0
LINE
  8
0
 62
     0
 10
40.7197
 20
12.6848
 30
0.0
 11
40.7197
 21
6.88329
 31
0.0
  0
LINE
  8
0
 62
     0
 10
40.7197
 20
6.88329
 30
0.0
 11
39.9189
 21
6.88329
 31
0.0
  0
LINE
  8
0
 62
     0
 10
39.9189
 20
6.88329
 30
0.0
 11
39.9189
 21
3.78411
 31
0.0
  0
LINE
  8
0
 62
     0
 10
39.9189
 20
3.78411
 30
0.0
 11
40.7197
 21
3.78411
 31
0.0
  0
LINE
  8
0
 62
     0
 10
40.7197
 20
3.78411
 30
0.0
 11
40.7197
 21
2.78364
 31
0.0
  0
LINE
  8
0
 62
     0
 10
40.7197
 20
2.78364
 30
0.0
 11
54.719
 21
2.78364
 31
0.0
  0
LINE
  8
0
 62
     0
 10
54.719
 20
2.78364
 30
0.0
 11
54.719
 21
3.78411
 31
0.0
  0
LINE
  8
0
 62
     0
 10
54.719
 20
3.78411
 30
0.0
 11
55.5198
 21
3.78411
 31
0.0
  0
LINE
  8
0
 62
     0
 10
55.5198
 20
3.78411
 30
0.0
 11
55.5198
 21
6.88329
 31
0.0
  0
LINE
  8
0
 62
     0
 10
55.5198
 20
6.88329
 30
0.0
 11
54.719
 21
6.88329
 31
0.0
  0
LINE
  8
0
 62
     0
 10
54.719
 20
6.88329
 30
0.0
 11
54.719
 21
12.6848
 31
0.0
  0
LINE
  8
0
 62
     0
 10
54.719
 20
12.6848
 30
0.0
 11
55.5198
 21
12.6848
 31
0.0
  0
LINE
  8
0
 62
     0
 10
55.5198
 20
12.6848
 30
0.0
 11
55.5198
 21
15.7841
 31
0.0
  0
LINE
  8
0
 62
     0
 10
55.5198
 20
15.7841
 30
0.0
 11
54.719
 21
15.7841
 31
0.0
  0
LINE
  8
0
 62
     0
 10
54.719
 20
15.7841
 30
0.0
 11
54.719
 21
16.7845
 31
0.0
  0
LINE
  8
0
 62
     0
 10
54.719
 20
16.7845
 30
0.0
 11
40.7197
 21
16.7845
 31
0.0
  0
LINE
  8
0
 62
     0
 10
62.151
 20
16.7845
 30
0.0
 11
62.151
 21
15.7841
 31
0.0
  0
LINE
  8
0
 62
     0
 10
62.151
 20
15.7841
 30
0.0
 11
61.3502
 21
15.7841
 31
0.0
  0
LINE
  8
0
 62
     0
 10
61.3502
 20
15.7841
 30
0.0
 11
61.3502
 21
12.6848
 31
0.0
  0
LINE
  8
0
 62
     0
 10
61.3502
 20
12.6848
 30
0.0
 11
62.151
 21
12.6848
 31
0.0
  0
LINE
  8
0
 62
     0
 10
62.151
 20
12.6848
 30
0.0
 11
62.151
 21
6.88329
 31
0.0
  0
LINE
  8
0
 62
     0
 10
62.151
 20
6.88329
 30
0.0
 11
61.3502
 21
6.88329
 31
0.0
  0
LINE
  8
0
 62
     0
 10
61.3502
 20
6.88329
 30
0.0
 11
61.3502
 21
3.78411
 31
0.0
  0
LINE
  8
0
 62
     0
 10
61.3502
 20
3.78411
 30
0.0
 11
62.151
 21
3.78411
 31
0.0
  0
LINE
  8
0
 62
     0
 10
62.151
 20
3.78411
 30
0.0
 11
62.151
 21
2.78364
 31
0.0
  0
LINE
  8
0
 62
     0
 10
62.151
 20
2.78364
 30
0.0
 11
76.1503
 21
2.78364
 31
0.0
  0
LINE
  8
0
 62
     0
 10
76.1503
 20
2.78364
 30
0.0
 11
76.1503
 21
3.78411
 31
0.0
  0
LINE
  8
0
 62
     0
 10
76.1503
 20
3.78411
 30
0.0
 11
76.9511
 21
3.78411
 31
0.0
  0
LINE
  8
0
 62
     0
 10
76.9511
 20
3.78411
 30
0.0
 11
76.9511
 21
6.88329
 31
0.0
  0
LINE
  8
0
 62
     0
 10
76.9511
 20
6.88329
 30
0.0
 11
76.1503
 21
6.88329
 31
0.0
  0
LINE
  8
0
 62
     0
 10
76.1503
 20
6.88329
 30
0.0
 11
76.1503
 21
12.6848
 31
0.0
  0
LINE
  8
0
 62
     0
 10
76.1503
 20
12.6848
 30
0.0
 11
76.9511
 21
12.6848
 31
0.0
  0
LINE
  8
0
 62
     0
 10
76.9511
 20
12.6848
 30
0.0
 11
76.9511
 21
15.7841
 31
0.0
  0
LINE
  8
0
 62
     0
 10
76.9511
 20
15.7841
 30
0.0
 11
76.1503
 21
15.7841
 31
0.0
  0
LINE
  8
0
 62
     0
 10
76.1503
 20
15.7841
 30
0.0
 11
76.1503
 21
16.7845
 31
0.0
  0
LINE
  8
0
 62
     0
 10
76.1503
 20
16.7845
 30
0.0
 11
62.151
 21
16.7845
 31
0.0
  0
LINE
  8
0
 62
     0
 10
200.262
 20
16.7845
 30
0.0
 11
200.262
 21
15.7841
 31
0.0
  0
LINE
  8
0
 62
     0
 10
200.262
 20
15.7841
 30
0.0
 11
199.463
 21
15.7841
 31
0.0
  0
LINE
  8
0
 62
     0
 10
199.463
 20
15.7841
 30
0.0
 11
199.463
 21
12.6848
 31
0.0
  0
LINE
  8
0
 62
     0
 10
199.463
 20
12.6848
 30
0.0
 11
200.262
 21
12.6848
 31
0.0
  0
LINE
  8
0
 62
     0
 10
200.262
 20
12.6848
 30
0.0
 11
200.262
 21
6.88329
 31
0.0
  0
LINE
  8
0
 62
     0
 10
200.262
 20
6.88329
 30
0.0
 11
199.463
 21
6.88329
 31
0.0
  0
LINE
  8
0
 62
     0
 10
199.463
 20
6.88329
 30
0.0
 11
199.463
 21
3.78411
 31
0.0
  0
LINE
  8
0
 62
     0
 10
199.463
 20
3.78411
 30
0.0
 11
200.262
 21
3.78411
 31
0.0
  0
LINE
  8
0
 62
     0
 10
200.262
 20
3.78411
 30
0.0
 11
200.262
 21
2.78364
 31
0.0
  0
LINE
  8
0
 62
     0
 10
200.262
 20
2.78364
 30
0.0
 11
214.263
 21
2.78364
 31
0.0
  0
LINE
  8
0
 62
     0
 10
214.263
 20
2.78364
 30
0.0
 11
214.263
 21
3.78411
 31
0.0
  0
LINE
  8
0
 62
     0
 10
214.263
 20
3.78411
 30
0.0
 11
215.062
 21
3.78411
 31
0.0
  0
LINE
  8
0
 62
     0
 10
215.062
 20
3.78411
 30
0.0
 11
215.062
 21
6.88329
 31
0.0
  0
LINE
  8
0
 62
     0
 10
215.062
 20
6.88329
 30
0.0
 11
214.263
 21
6.88329
 31
0.0
  0
LINE
  8
0
 62
     0
 10
214.263
 20
6.88329
 30
0.0
 11
214.263
 21
12.6848
 31
0.0
  0
LINE
  8
0
 62
     0
 10
214.263
 20
12.6848
 30
0.0
 11
215.062
 21
12.6848
 31
0.0
  0
LINE
  8
0
 62
     0
 10
215.062
 20
12.6848
 30
0.0
 11
215.062
 21
15.7841
 31
0.0
  0
LINE
  8
0
 62
     0
 10
215.062
 20
15.7841
 30
0.0
 11
214.263
 21
15.7841
 31
0.0
  0
LINE
  8
0
 62
     0
 10
214.263
 20
15.7841
 30
0.0
 11
214.263
 21
16.7845
 31
0.0
  0
LINE
  8
0
 62
     0
 10
214.263
 20
16.7845
 30
0.0
 11
200.262
 21
16.7845
 31
0.0
  0
LINE
  8
0
 62
     0
 10
221.695
 20
16.7845
 30
0.0
 11
221.695
 21
15.7841
 31
0.0
  0
LINE
  8
0
 62
     0
 10
221.695
 20
15.7841
 30
0.0
 11
220.894
 21
15.7841
 31
0.0
  0
LINE
  8
0
 62
     0
 10
220.894
 20
15.7841
 30
0.0
 11
220.894
 21
12.6848
 31
0.0
  0
LINE
  8
0
 62
     0
 10
220.894
 20
12.6848
 30
0.0
 11
221.695
 21
12.6848
 31
0.0
  0
LINE
  8
0
 62
     0
 10
221.695
 20
12.6848
 30
0.0
 11
221.695
 21
6.88329
 31
0.0
  0
LINE
  8
0
 62
     0
 10
221.695
 20
6.88329
 30
0.0
 11
220.894
 21
6.88329
 31
0.0
  0
LINE
  8
0
 62
     0
 10
220.894
 20
6.88329
 30
0.0
 11
220.894
 21
3.78411
 31
0.0
  0
LINE
  8
0
 62
     0
 10
220.894
 20
3.78411
 30
0.0
 11
221.695
 21
3.78411
 31
0.0
  0
LINE
  8
0
 62
     0
 10
221.695
 20
3.78411
 30
0.0
 11
221.695
 21
2.78364
 31
0.0
  0
LINE
  8
0
 62
     0
 10
221.695
 20
2.78364
 30
0.0
 11
235.694
 21
2.78364
 31
0.0
  0
LINE
  8
0
 62
     0
 10
235.694
 20
2.78364
 30
0.0
 11
235.694
 21
3.78411
 31
0.0
  0
LINE
  8
0
 62
     0
 10
235.694
 20
3.78411
 30
0.0
 11
236.495
 21
3.78411
 31
0.0
  0
LINE
  8
0
 62
     0
 10
236.495
 20
3.78411
 30
0.0
 11
236.495
 21
6.88329
 31
0.0
  0
LINE
  8
0
 62
     0
 10
236.495
 20
6.88329
 30
0.0
 11
235.694
 21
6.88329
 31
0.0
  0
LINE
  8
0
 62
     0
 10
235.694
 20
6.88329
 30
0.0
 11
235.694
 21
12.6848
 31
0.0
  0
LINE
  8
0
 62
     0
 10
235.694
 20
12.6848
 30
0.0
 11
236.495
 21
12.6848
 31
0.0
  0
LINE
  8
0
 62
     0
 10
236.495
 20
12.6848
 30
0.0
 11
236.495
 21
15.7841
 31
0.0
  0
LINE
  8
0
 62
     0
 10
236.495
 20
15.7841
 30
0.0
 11
235.694
 21
15.7841
 31
0.0
  0
LINE
  8
0
 62
     0
 10
235.694
 20
15.7841
 30
0.0
 11
235.694
 21
16.7845
 31
0.0
  0
LINE
  8
0
 62
     0
 10
235.694
 20
16.7845
 30
0.0
 11
221.695
 21
16.7845
 31
0.0
  0
LINE
  8
0
 62
     0
 10
240.745
 20
16.7845
 30
0.0
 11
240.745
 21
15.7841
 31
0.0
  0
LINE
  8
0
 62
     0
 10
240.745
 20
15.7841
 30
0.0
 11
239.944
 21
15.7841
 31
0.0
  0
LINE
  8
0
 62
     0
 10
239.944
 20
15.7841
 30
0.0
 11
239.944
 21
12.6848
 31
0.0
  0
LINE
  8
0
 62
     0
 10
239.944
 20
12.6848
 30
0.0
 11
240.745
 21
12.6848
 31
0.0
  0
LINE
  8
0
 62
     0
 10
240.745
 20
12.6848
 30
0.0
 11
240.745
 21
6.88329
 31
0.0
  0
LINE
  8
0
 62
     0
 10
240.745
 20
6.88329
 30
0.0
 11
239.944
 21
6.88329
 31
0.0
  0
LINE
  8
0
 62
     0
 10
239.944
 20
6.88329
 30
0.0
 11
239.944
 21
3.78411
 31
0.0
  0
LINE
  8
0
 62
     0
 10
239.944
 20
3.78411
 30
0.0
 11
240.745
 21
3.78411
 31
0.0
  0
LINE
  8
0
 62
     0
 10
240.745
 20
3.78411
 30
0.0
 11
240.745
 21
2.78364
 31
0.0
  0
LINE
  8
0
 62
     0
 10
240.745
 20
2.78364
 30
0.0
 11
254.744
 21
2.78364
 31
0.0
  0
LINE
  8
0
 62
     0
 10
254.744
 20
2.78364
 30
0.0
 11
254.744
 21
3.78411
 31
0.0
  0
LINE
  8
0
 62
     0
 10
254.744
 20
3.78411
 30
0.0
 11
255.545
 21
3.78411
 31
0.0
  0
LINE
  8
0
 62
     0
 10
255.545
 20
3.78411
 30
0.0
 11
255.545
 21
6.88329
 31
0.0
  0
LINE
  8
0
 62
     0
 10
255.545
 20
6.88329
 30
0.0
 11
254.744
 21
6.88329
 31
0.0
  0
LINE
  8
0
 62
     0
 10
254.744
 20
6.88329
 30
0.0
 11
254.744
 21
12.6848
 31
0.0
  0
LINE
  8
0
 62
     0
 10
254.744
 20
12.6848
 30
0.0
 11
255.545
 21
12.6848
 31
0.0
  0
LINE
  8
0
 62
     0
 10
255.545
 20
12.6848
 30
0.0
 11
255.545
 21
15.7841
 31
0.0
  0
LINE
  8
0
 62
     0
 10
255.545
 20
15.7841
 30
0.0
 11
254.744
 21
15.7841
 31
0.0
  0
LINE
  8
0
 62
     0
 10
254.744
 20
15.7841
 30
0.0
 11
254.744
 21
16.7845
 31
0.0
  0
LINE
  8
0
 62
     0
 10
254.744
 20
16.7845
 30
0.0
 11
240.745
 21
16.7845
 31
0.0
  0
LINE
  8
0
 62
     0
 10
259.795
 20
16.7845
 30
0.0
 11
259.795
 21
15.7841
 31
0.0
  0
LINE
  8
0
 62
     0
 10
259.795
 20
15.7841
 30
0.0
 11
258.994
 21
15.7841
 31
0.0
  0
LINE
  8
0
 62
     0
 10
258.994
 20
15.7841
 30
0.0
 11
258.994
 21
12.6848
 31
0.0
  0
LINE
  8
0
 62
     0
 10
258.994
 20
12.6848
 30
0.0
 11
259.795
 21
12.6848
 31
0.0
  0
LINE
  8
0
 62
     0
 10
259.795
 20
12.6848
 30
0.0
 11
259.795
 21
6.88329
 31
0.0
  0
LINE
  8
0
 62
     0
 10
259.795
 20
6.88329
 30
0.0
 11
258.994
 21
6.88329
 31
0.0
  0
LINE
  8
0
 62
     0
 10
258.994
 20
6.88329
 30
0.0
 11
258.994
 21
3.78411
 31
0.0
  0
LINE
  8
0
 62
     0
 10
258.994
 20
3.78411
 30
0.0
 11
259.795
 21
3.78411
 31
0.0
  0
LINE
  8
0
 62
     0
 10
259.795
 20
3.78411
 30
0.0
 11
259.795
 21
2.78364
 31
0.0
  0
LINE
  8
0
 62
     0
 10
259.795
 20
2.78364
 30
0.0
 11
273.794
 21
2.78364
 31
0.0
  0
LINE
  8
0
 62
     0
 10
273.794
 20
2.78364
 30
0.0
 11
273.794
 21
3.78411
 31
0.0
  0
LINE
  8
0
 62
     0
 10
273.794
 20
3.78411
 30
0.0
 11
274.595
 21
3.78411
 31
0.0
  0
LINE
  8
0
 62
     0
 10
274.595
 20
3.78411
 30
0.0
 11
274.595
 21
6.88329
 31
0.0
  0
LINE
  8
0
 62
     0
 10
274.595
 20
6.88329
 30
0.0
 11
273.794
 21
6.88329
 31
0.0
  0
LINE
  8
0
 62
     0
 10
273.794
 20
6.88329
 30
0.0
 11
273.794
 21
12.6848
 31
0.0
  0
LINE
  8
0
 62
     0
 10
273.794
 20
12.6848
 30
0.0
 11
274.595
 21
12.6848
 31
0.0
  0
LINE
  8
0
 62
     0
 10
274.595
 20
12.6848
 30
0.0
 11
274.595
 21
15.7841
 31
0.0
  0
LINE
  8
0
 62
     0
 10
274.595
 20
15.7841
 30
0.0
 11
273.794
 21
15.7841
 31
0.0
  0
LINE
  8
0
 62
     0
 10
273.794
 20
15.7841
 30
0.0
 11
273.794
 21
16.7845
 31
0.0
  0
LINE
  8
0
 62
     0
 10
273.794
 20
16.7845
 30
0.0
 11
259.795
 21
16.7845
 31
0.0
  0
LINE
  8
0
 62
     0
 10
278.845
 20
16.7845
 30
0.0
 11
278.845
 21
15.7841
 31
0.0
  0
LINE
  8
0
 62
     0
 10
278.845
 20
15.7841
 30
0.0
 11
278.044
 21
15.7841
 31
0.0
  0
LINE
  8
0
 62
     0
 10
278.044
 20
15.7841
 30
0.0
 11
278.044
 21
12.6848
 31
0.0
  0
LINE
  8
0
 62
     0
 10
278.044
 20
12.6848
 30
0.0
 11
278.845
 21
12.6848
 31
0.0
  0
LINE
  8
0
 62
     0
 10
278.845
 20
12.6848
 30
0.0
 11
278.845
 21
6.88329
 31
0.0
  0
LINE
  8
0
 62
     0
 10
278.845
 20
6.88329
 30
0.0
 11
278.044
 21
6.88329
 31
0.0
  0
LINE
  8
0
 62
     0
 10
278.044
 20
6.88329
 30
0.0
 11
278.044
 21
3.78411
 31
0.0
  0
LINE
  8
0
 62
     0
 10
278.044
 20
3.78411
 30
0.0
 11
278.845
 21
3.78411
 31
0.0
  0
LINE
  8
0
 62
     0
 10
278.845
 20
3.78411
 30
0.0
 11
278.845
 21
2.78364
 31
0.0
  0
LINE
  8
0
 62
     0
 10
278.845
 20
2.78364
 30
0.0
 11
292.844
 21
2.78364
 31
0.0
  0
LINE
  8
0
 62
     0
 10
292.844
 20
2.78364
 30
0.0
 11
292.844
 21
3.78411
 31
0.0
  0
LINE
  8
0
 62
     0
 10
292.844
 20
3.78411
 30
0.0
 11
293.645
 21
3.78411
 31
0.0
  0
LINE
  8
0
 62
     0
 10
293.645
 20
3.78411
 30
0.0
 11
293.645
 21
6.88329
 31
0.0
  0
LINE
  8
0
 62
     0
 10
293.645
 20
6.88329
 30
0.0
 11
292.844
 21
6.88329
 31
0.0
  0
LINE
  8
0
 62
     0
 10
292.844
 20
6.88329
 30
0.0
 11
292.844
 21
12.6848
 31
0.0
  0
LINE
  8
0
 62
     0
 10
292.844
 20
12.6848
 30
0.0
 11
293.645
 21
12.6848
 31
0.0
  0
LINE
  8
0
 62
     0
 10
293.645
 20
12.6848
 30
0.0
 11
293.645
 21
15.7841
 31
0.0
  0
LINE
  8
0
 62
     0
 10
293.645
 20
15.7841
 30
0.0
 11
292.844
 21
15.7841
 31
0.0
  0
LINE
  8
0
 62
     0
 10
292.844
 20
15.7841
 30
0.0
 11
292.844
 21
16.7845
 31
0.0
  0
LINE
  8
0
 62
     0
 10
292.844
 20
16.7845
 30
0.0
 11
278.845
 21
16.7845
 31
0.0
  0
LINE
  8
0
 62
     0
 10
297.895
 20
16.7845
 30
0.0
 11
297.895
 21
15.7841
 31
0.0
  0
LINE
  8
0
 62
     0
 10
297.895
 20
15.7841
 30
0.0
 11
297.094
 21
15.7841
 31
0.0
  0
LINE
  8
0
 62
     0
 10
297.094
 20
15.7841
 30
0.0
 11
297.094
 21
12.6848
 31
0.0
  0
LINE
  8
0
 62
     0
 10
297.094
 20
12.6848
 30
0.0
 11
297.895
 21
12.6848
 31
0.0
  0
LINE
  8
0
 62
     0
 10
297.895
 20
12.6848
 30
0.0
 11
297.895
 21
6.88329
 31
0.0
  0
LINE
  8
0
 62
     0
 10
297.895
 20
6.88329
 30
0.0
 11
297.094
 21
6.88329
 31
0.0
  0
LINE
  8
0
 62
     0
 10
297.094
 20
6.88329
 30
0.0
 11
297.094
 21
3.78411
 31
0.0
  0
LINE
  8
0
 62
     0
 10
297.094
 20
3.78411
 30
0.0
 11
297.895
 21
3.78411
 31
0.0
  0
LINE
  8
0
 62
     0
 10
297.895
 20
3.78411
 30
0.0
 11
297.895
 21
2.78364
 31
0.0
  0
LINE
  8
0
 62
     0
 10
297.895
 20
2.78364
 30
0.0
 11
311.894
 21
2.78364
 31
0.0
  0
LINE
  8
0
 62
     0
 10
311.894
 20
2.78364
 30
0.0
 11
311.894
 21
3.78411
 31
0.0
  0
LINE
  8
0
 62
     0
 10
311.894
 20
3.78411
 30
0.0
 11
312.695
 21
3.78411
 31
0.0
  0
LINE
  8
0
 62
     0
 10
312.695
 20
3.78411
 30
0.0
 11
312.695
 21
6.88329
 31
0.0
  0
LINE
  8
0
 62
     0
 10
312.695
 20
6.88329
 30
0.0
 11
311.894
 21
6.88329
 31
0.0
  0
LINE
  8
0
 62
     0
 10
311.894
 20
6.88329
 30
0.0
 11
311.894
 21
12.6848
 31
0.0
  0
LINE
  8
0
 62
     0
 10
311.894
 20
12.6848
 30
0.0
 11
312.695
 21
12.6848
 31
0.0
  0
LINE
  8
0
 62
     0
 10
312.695
 20
12.6848
 30
0.0
 11
312.695
 21
15.7841
 31
0.0
  0
LINE
  8
0
 62
     0
 10
312.695
 20
15.7841
 30
0.0
 11
311.894
 21
15.7841
 31
0.0
  0
LINE
  8
0
 62
     0
 10
311.894
 20
15.7841
 30
0.0
 11
311.894
 21
16.7845
 31
0.0
  0
LINE
  8
0
 62
     0
 10
311.894
 20
16.7845
 30
0.0
 11
297.895
 21
16.7845
 31
0.0
  0
LINE
  8
0
 62
     0
 10
14.5259
 20
35.833
 30
0.0
 11
14.5259
 21
34.8327
 31
0.0
  0
LINE
  8
0
 62
     0
 10
14.5259
 20
34.8327
 30
0.0
 11
13.7253
 21
34.8327
 31
0.0
  0
LINE
  8
0
 62
     0
 10
13.7253
 20
34.8327
 30
0.0
 11
13.7253
 21
31.7348
 31
0.0
  0
LINE
  8
0
 62
     0
 10
13.7253
 20
31.7348
 30
0.0
 11
14.5259
 21
31.7348
 31
0.0
  0
LINE
  8
0
 62
     0
 10
14.5259
 20
31.7348
 30
0.0
 11
14.5259
 21
31.1326
 31
0.0
  0
LINE
  8
0
 62
     0
 10
14.5259
 20
31.1326
 30
0.0
 11
13.0004
 21
31.1326
 31
0.0
  0
LINE
  8
0
 62
     0
 10
13.0004
 20
31.1326
 30
0.0
 11
13.0004
 21
34.3628
 31
0.0
  0
LINE
  8
0
 62
     0
 10
13.0004
 20
34.3628
 30
0.0
 11
6.2508
 21
34.3628
 31
0.0
  0
LINE
  8
0
 62
     0
 10
6.2508
 20
34.3628
 30
0.0
 11
6.2508
 21
31.1326
 31
0.0
  0
LINE
  8
0
 62
     0
 10
6.2508
 20
31.1326
 30
0.0
 11
5.42533
 21
31.1326
 31
0.0
  0
LINE
  8
0
 62
     0
 10
5.42533
 20
31.1326
 30
0.0
 11
5.42533
 21
28.3338
 31
0.0
  0
LINE
  8
0
 62
     0
 10
5.42533
 20
28.3338
 30
0.0
 11
6.2508
 21
28.3338
 31
0.0
  0
LINE
  8
0
 62
     0
 10
6.2508
 20
28.3338
 30
0.0
 11
6.2508
 21
22.0638
 31
0.0
  0
LINE
  8
0
 62
     0
 10
6.2508
 20
22.0638
 30
0.0
 11
7.97609
 21
22.0638
 31
0.0
  0
LINE
  8
0
 62
     0
 10
7.97609
 20
22.0638
 30
0.0
 11
7.97609
 21
20.8635
 31
0.0
  0
LINE
  8
0
 62
     0
 10
7.97609
 20
20.8635
 30
0.0
 11
11.2751
 21
20.8635
 31
0.0
  0
LINE
  8
0
 62
     0
 10
11.2751
 20
20.8635
 30
0.0
 11
11.2751
 21
22.0638
 31
0.0
  0
LINE
  8
0
 62
     0
 10
11.2751
 20
22.0638
 30
0.0
 11
13.0004
 21
22.0638
 31
0.0
  0
LINE
  8
0
 62
     0
 10
13.0004
 20
22.0638
 30
0.0
 11
13.0004
 21
26.5341
 31
0.0
  0
LINE
  8
0
 62
     0
 10
13.0004
 20
26.5341
 30
0.0
 11
14.5259
 21
26.5341
 31
0.0
  0
LINE
  8
0
 62
     0
 10
14.5259
 20
26.5341
 30
0.0
 11
14.5259
 21
25.9333
 31
0.0
  0
LINE
  8
0
 62
     0
 10
14.5259
 20
25.9333
 30
0.0
 11
13.7253
 21
25.9333
 31
0.0
  0
LINE
  8
0
 62
     0
 10
13.7253
 20
25.9333
 30
0.0
 11
13.7253
 21
22.8327
 31
0.0
  0
LINE
  8
0
 62
     0
 10
13.7253
 20
22.8327
 30
0.0
 11
14.5259
 21
22.8327
 31
0.0
  0
LINE
  8
0
 62
     0
 10
14.5259
 20
22.8327
 30
0.0
 11
14.5259
 21
21.8336
 31
0.0
  0
LINE
  8
0
 62
     0
 10
14.5259
 20
21.8336
 30
0.0
 11
28.5254
 21
21.8336
 31
0.0
  0
LINE
  8
0
 62
     0
 10
28.5254
 20
21.8336
 30
0.0
 11
28.5254
 21
22.8327
 31
0.0
  0
LINE
  8
0
 62
     0
 10
28.5254
 20
22.8327
 30
0.0
 11
29.326
 21
22.8327
 31
0.0
  0
LINE
  8
0
 62
     0
 10
29.326
 20
22.8327
 30
0.0
 11
29.326
 21
25.9333
 31
0.0
  0
LINE
  8
0
 62
     0
 10
29.326
 20
25.9333
 30
0.0
 11
28.5254
 21
25.9333
 31
0.0
  0
LINE
  8
0
 62
     0
 10
28.5254
 20
25.9333
 30
0.0
 11
28.5254
 21
26.5341
 31
0.0
  0
LINE
  8
0
 62
     0
 10
28.5254
 20
26.5341
 30
0.0
 11
30.0509
 21
26.5341
 31
0.0
  0
LINE
  8
0
 62
     0
 10
30.0509
 20
26.5341
 30
0.0
 11
30.0509
 21
22.0638
 31
0.0
  0
LINE
  8
0
 62
     0
 10
30.0509
 20
22.0638
 30
0.0
 11
31.7748
 21
22.0638
 31
0.0
  0
LINE
  8
0
 62
     0
 10
31.7748
 20
22.0638
 30
0.0
 11
31.7748
 21
20.8635
 31
0.0
  0
LINE
  8
0
 62
     0
 10
31.7748
 20
20.8635
 30
0.0
 11
35.0752
 21
20.8635
 31
0.0
  0
LINE
  8
0
 62
     0
 10
35.0752
 20
20.8635
 30
0.0
 11
35.0752
 21
22.0638
 31
0.0
  0
LINE
  8
0
 62
     0
 10
35.0752
 20
22.0638
 30
0.0
 11
36.8004
 21
22.0638
 31
0.0
  0
LINE
  8
0
 62
     0
 10
36.8004
 20
22.0638
 30
0.0
 11
36.8004
 21
28.3338
 31
0.0
  0
LINE
  8
0
 62
     0
 10
36.8004
 20
28.3338
 30
0.0
 11
37.6259
 21
28.3338
 31
0.0
  0
LINE
  8
0
 62
     0
 10
37.6259
 20
28.3338
 30
0.0
 11
37.6259
 21
31.1326
 31
0.0
  0
LINE
  8
0
 62
     0
 10
37.6259
 20
31.1326
 30
0.0
 11
36.8004
 21
31.1326
 31
0.0
  0
LINE
  8
0
 62
     0
 10
36.8004
 20
31.1326
 30
0.0
 11
36.8004
 21
34.3628
 31
0.0
  0
LINE
  8
0
 62
     0
 10
36.8004
 20
34.3628
 30
0.0
 11
30.0509
 21
34.3628
 31
0.0
  0
LINE
  8
0
 62
     0
 10
30.0509
 20
34.3628
 30
0.0
 11
30.0509
 21
31.1326
 31
0.0
  0
LINE
  8
0
 62
     0
 10
30.0509
 20
31.1326
 30
0.0
 11
28.5254
 21
31.1326
 31
0.0
  0
LINE
  8
0
 62
     0
 10
28.5254
 20
31.1326
 30
0.0
 11
28.5254
 21
31.7348
 31
0.0
  0
LINE
  8
0
 62
     0
 10
28.5254
 20
31.7348
 30
0.0
 11
29.326
 21
31.7348
 31
0.0
  0
LINE
  8
0
 62
     0
 10
29.326
 20
31.7348
 30
0.0
 11
29.326
 21
34.8327
 31
0.0
  0
LINE
  8
0
 62
     0
 10
29.326
 20
34.8327
 30
0.0
 11
28.5254
 21
34.8327
 31
0.0
  0
LINE
  8
0
 62
     0
 10
28.5254
 20
34.8327
 30
0.0
 11
28.5254
 21
35.833
 31
0.0
  0
LINE
  8
0
 62
     0
 10
28.5254
 20
35.833
 30
0.0
 11
14.5259
 21
35.833
 31
0.0
  0
LINE
  8
0
 62
     0
 10
247.887
 20
35.833
 30
0.0
 11
247.887
 21
34.8327
 31
0.0
  0
LINE
  8
0
 62
     0
 10
247.887
 20
34.8327
 30
0.0
 11
247.088
 21
34.8327
 31
0.0
  0
LINE
  8
0
 62
     0
 10
247.088
 20
34.8327
 30
0.0
 11
247.088
 21
31.7348
 31
0.0
  0
LINE
  8
0
 62
     0
 10
247.088
 20
31.7348
 30
0.0
 11
247.887
 21
31.7348
 31
0.0
  0
LINE
  8
0
 62
     0
 10
247.887
 20
31.7348
 30
0.0
 11
247.887
 21
31.1326
 31
0.0
  0
LINE
  8
0
 62
     0
 10
247.887
 20
31.1326
 30
0.0
 11
246.363
 21
31.1326
 31
0.0
  0
LINE
  8
0
 62
     0
 10
246.363
 20
31.1326
 30
0.0
 11
246.363
 21
34.3628
 31
0.0
  0
LINE
  8
0
 62
     0
 10
246.363
 20
34.3628
 30
0.0
 11
239.612
 21
34.3628
 31
0.0
  0
LINE
  8
0
 62
     0
 10
239.612
 20
34.3628
 30
0.0
 11
239.612
 21
31.1326
 31
0.0
  0
LINE
  8
0
 62
     0
 10
239.612
 20
31.1326
 30
0.0
 11
238.788
 21
31.1326
 31
0.0
  0
LINE
  8
0
 62
     0
 10
238.788
 20
31.1326
 30
0.0
 11
238.788
 21
28.3338
 31
0.0
  0
LINE
  8
0
 62
     0
 10
238.788
 20
28.3338
 30
0.0
 11
239.612
 21
28.3338
 31
0.0
  0
LINE
  8
0
 62
     0
 10
239.612
 20
28.3338
 30
0.0
 11
239.612
 21
22.0638
 31
0.0
  0
LINE
  8
0
 62
     0
 10
239.612
 20
22.0638
 30
0.0
 11
241.337
 21
22.0638
 31
0.0
  0
LINE
  8
0
 62
     0
 10
241.337
 20
22.0638
 30
0.0
 11
241.337
 21
20.8635
 31
0.0
  0
LINE
  8
0
 62
     0
 10
241.337
 20
20.8635
 30
0.0
 11
244.638
 21
20.8635
 31
0.0
  0
LINE
  8
0
 62
     0
 10
244.638
 20
20.8635
 30
0.0
 11
244.638
 21
22.0638
 31
0.0
  0
LINE
  8
0
 62
     0
 10
244.638
 20
22.0638
 30
0.0
 11
246.363
 21
22.0638
 31
0.0
  0
LINE
  8
0
 62
     0
 10
246.363
 20
22.0638
 30
0.0
 11
246.363
 21
26.5341
 31
0.0
  0
LINE
  8
0
 62
     0
 10
246.363
 20
26.5341
 30
0.0
 11
247.887
 21
26.5341
 31
0.0
  0
LINE
  8
0
 62
     0
 10
247.887
 20
26.5341
 30
0.0
 11
247.887
 21
25.9333
 31
0.0
  0
LINE
  8
0
 62
     0
 10
247.887
 20
25.9333
 30
0.0
 11
247.088
 21
25.9333
 31
0.0
  0
LINE
  8
0
 62
     0
 10
247.088
 20
25.9333
 30
0.0
 11
247.088
 21
22.8327
 31
0.0
  0
LINE
  8
0
 62
     0
 10
247.088
 20
22.8327
 30
0.0
 11
247.887
 21
22.8327
 31
0.0
  0
LINE
  8
0
 62
     0
 10
247.887
 20
22.8327
 30
0.0
 11
247.887
 21
21.8336
 31
0.0
  0
LINE
  8
0
 62
     0
 10
247.887
 20
21.8336
 30
0.0
 11
261.888
 21
21.8336
 31
0.0
  0
LINE
  8
0
 62
     0
 10
261.888
 20
21.8336
 30
0.0
 11
261.888
 21
22.8327
 31
0.0
  0
LINE
  8
0
 62
     0
 10
261.888
 20
22.8327
 30
0.0
 11
262.687
 21
22.8327
 31
0.0
  0
LINE
  8
0
 62
     0
 10
262.687
 20
22.8327
 30
0.0
 11
262.687
 21
25.9333
 31
0.0
  0
LINE
  8
0
 62
     0
 10
262.687
 20
25.9333
 30
0.0
 11
261.888
 21
25.9333
 31
0.0
  0
LINE
  8
0
 62
     0
 10
261.888
 20
25.9333
 30
0.0
 11
261.888
 21
26.5341
 31
0.0
  0
LINE
  8
0
 62
     0
 10
261.888
 20
26.5341
 30
0.0
 11
263.412
 21
26.5341
 31
0.0
  0
LINE
  8
0
 62
     0
 10
263.412
 20
26.5341
 30
0.0
 11
263.412
 21
22.0638
 31
0.0
  0
LINE
  8
0
 62
     0
 10
263.412
 20
22.0638
 30
0.0
 11
265.137
 21
22.0638
 31
0.0
  0
LINE
  8
0
 62
     0
 10
265.137
 20
22.0638
 30
0.0
 11
265.137
 21
20.8635
 31
0.0
  0
LINE
  8
0
 62
     0
 10
265.137
 20
20.8635
 30
0.0
 11
268.438
 21
20.8635
 31
0.0
  0
LINE
  8
0
 62
     0
 10
268.438
 20
20.8635
 30
0.0
 11
268.438
 21
22.0638
 31
0.0
  0
LINE
  8
0
 62
     0
 10
268.438
 20
22.0638
 30
0.0
 11
270.163
 21
22.0638
 31
0.0
  0
LINE
  8
0
 62
     0
 10
270.163
 20
22.0638
 30
0.0
 11
270.163
 21
28.3338
 31
0.0
  0
LINE
  8
0
 62
     0
 10
270.163
 20
28.3338
 30
0.0
 11
270.987
 21
28.3338
 31
0.0
  0
LINE
  8
0
 62
     0
 10
270.987
 20
28.3338
 30
0.0
 11
270.987
 21
31.1326
 31
0.0
  0
LINE
  8
0
 62
     0
 10
270.987
 20
31.1326
 30
0.0
 11
270.163
 21
31.1326
 31
0.0
  0
LINE
  8
0
 62
     0
 10
270.163
 20
31.1326
 30
0.0
 11
270.163
 21
34.3628
 31
0.0
  0
LINE
  8
0
 62
     0
 10
270.163
 20
34.3628
 30
0.0
 11
263.412
 21
34.3628
 31
0.0
  0
LINE
  8
0
 62
     0
 10
263.412
 20
34.3628
 30
0.0
 11
263.412
 21
31.1326
 31
0.0
  0
LINE
  8
0
 62
     0
 10
263.412
 20
31.1326
 30
0.0
 11
261.888
 21
31.1326
 31
0.0
  0
LINE
  8
0
 62
     0
 10
261.888
 20
31.1326
 30
0.0
 11
261.888
 21
31.7348
 31
0.0
  0
LINE
  8
0
 62
     0
 10
261.888
 20
31.7348
 30
0.0
 11
262.687
 21
31.7348
 31
0.0
  0
LINE
  8
0
 62
     0
 10
262.687
 20
31.7348
 30
0.0
 11
262.687
 21
34.8327
 31
0.0
  0
LINE
  8
0
 62
     0
 10
262.687
 20
34.8327
 30
0.0
 11
261.888
 21
34.8327
 31
0.0
  0
LINE
  8
0
 62
     0
 10
261.888
 20
34.8327
 30
0.0
 11
261.888
 21
35.833
 31
0.0
  0
LINE
  8
0
 62
     0
 10
261.888
 20
35.833
 30
0.0
 11
247.887
 21
35.833
 31
0.0
  0
LINE
  8
0
 62
     0
 10
45.4822
 20
35.833
 30
0.0
 11
45.4822
 21
34.8327
 31
0.0
  0
LINE
  8
0
 62
     0
 10
45.4822
 20
34.8327
 30
0.0
 11
44.6814
 21
34.8327
 31
0.0
  0
LINE
  8
0
 62
     0
 10
44.6814
 20
34.8327
 30
0.0
 11
44.6814
 21
31.7348
 31
0.0
  0
LINE
  8
0
 62
     0
 10
44.6814
 20
31.7348
 30
0.0
 11
45.4822
 21
31.7348
 31
0.0
  0
LINE
  8
0
 62
     0
 10
45.4822
 20
31.7348
 30
0.0
 11
45.4822
 21
25.9333
 31
0.0
  0
LINE
  8
0
 62
     0
 10
45.4822
 20
25.9333
 30
0.0
 11
44.6814
 21
25.9333
 31
0.0
  0
LINE
  8
0
 62
     0
 10
44.6814
 20
25.9333
 30
0.0
 11
44.6814
 21
22.8327
 31
0.0
  0
LINE
  8
0
 62
     0
 10
44.6814
 20
22.8327
 30
0.0
 11
45.4822
 21
22.8327
 31
0.0
  0
LINE
  8
0
 62
     0
 10
45.4822
 20
22.8327
 30
0.0
 11
45.4822
 21
21.8336
 31
0.0
  0
LINE
  8
0
 62
     0
 10
45.4822
 20
21.8336
 30
0.0
 11
59.4815
 21
21.8336
 31
0.0
  0
LINE
  8
0
 62
     0
 10
59.4815
 20
21.8336
 30
0.0
 11
59.4815
 21
22.8327
 31
0.0
  0
LINE
  8
0
 62
     0
 10
59.4815
 20
22.8327
 30
0.0
 11
60.2809
 21
22.8327
 31
0.0
  0
LINE
  8
0
 62
     0
 10
60.2809
 20
22.8327
 30
0.0
 11
60.2809
 21
25.9333
 31
0.0
  0
LINE
  8
0
 62
     0
 10
60.2809
 20
25.9333
 30
0.0
 11
59.4815
 21
25.9333
 31
0.0
  0
LINE
  8
0
 62
     0
 10
59.4815
 20
25.9333
 30
0.0
 11
59.4815
 21
31.7348
 31
0.0
  0
LINE
  8
0
 62
     0
 10
59.4815
 20
31.7348
 30
0.0
 11
60.2809
 21
31.7348
 31
0.0
  0
LINE
  8
0
 62
     0
 10
60.2809
 20
31.7348
 30
0.0
 11
60.2809
 21
34.8327
 31
0.0
  0
LINE
  8
0
 62
     0
 10
60.2809
 20
34.8327
 30
0.0
 11
59.4815
 21
34.8327
 31
0.0
  0
LINE
  8
0
 62
     0
 10
59.4815
 20
34.8327
 30
0.0
 11
59.4815
 21
35.833
 31
0.0
  0
LINE
  8
0
 62
     0
 10
59.4815
 20
35.833
 30
0.0
 11
45.4822
 21
35.833
 31
0.0
  0
LINE
  8
0
 62
     0
 10
64.5322
 20
35.833
 30
0.0
 11
64.5322
 21
34.8327
 31
0.0
  0
LINE
  8
0
 62
     0
 10
64.5322
 20
34.8327
 30
0.0
 11
63.7314
 21
34.8327
 31
0.0
  0
LINE
  8
0
 62
     0
 10
63.7314
 20
34.8327
 30
0.0
 11
63.7314
 21
31.7348
 31
0.0
  0
LINE
  8
0
 62
     0
 10
63.7314
 20
31.7348
 30
0.0
 11
64.5322
 21
31.7348
 31
0.0
  0
LINE
  8
0
 62
     0
 10
64.5322
 20
31.7348
 30
0.0
 11
64.5322
 21
25.9333
 31
0.0
  0
LINE
  8
0
 62
     0
 10
64.5322
 20
25.9333
 30
0.0
 11
63.7314
 21
25.9333
 31
0.0
  0
LINE
  8
0
 62
     0
 10
63.7314
 20
25.9333
 30
0.0
 11
63.7314
 21
22.8327
 31
0.0
  0
LINE
  8
0
 62
     0
 10
63.7314
 20
22.8327
 30
0.0
 11
64.5322
 21
22.8327
 31
0.0
  0
LINE
  8
0
 62
     0
 10
64.5322
 20
22.8327
 30
0.0
 11
64.5322
 21
21.8336
 31
0.0
  0
LINE
  8
0
 62
     0
 10
64.5322
 20
21.8336
 30
0.0
 11
78.5315
 21
21.8336
 31
0.0
  0
LINE
  8
0
 62
     0
 10
78.5315
 20
21.8336
 30
0.0
 11
78.5315
 21
22.8327
 31
0.0
  0
LINE
  8
0
 62
     0
 10
78.5315
 20
22.8327
 30
0.0
 11
79.3309
 21
22.8327
 31
0.0
  0
LINE
  8
0
 62
     0
 10
79.3309
 20
22.8327
 30
0.0
 11
79.3309
 21
25.9333
 31
0.0
  0
LINE
  8
0
 62
     0
 10
79.3309
 20
25.9333
 30
0.0
 11
78.5315
 21
25.9333
 31
0.0
  0
LINE
  8
0
 62
     0
 10
78.5315
 20
25.9333
 30
0.0
 11
78.5315
 21
31.7348
 31
0.0
  0
LINE
  8
0
 62
     0
 10
78.5315
 20
31.7348
 30
0.0
 11
79.3309
 21
31.7348
 31
0.0
  0
LINE
  8
0
 62
     0
 10
79.3309
 20
31.7348
 30
0.0
 11
79.3309
 21
34.8327
 31
0.0
  0
LINE
  8
0
 62
     0
 10
79.3309
 20
34.8327
 30
0.0
 11
78.5315
 21
34.8327
 31
0.0
  0
LINE
  8
0
 62
     0
 10
78.5315
 20
34.8327
 30
0.0
 11
78.5315
 21
35.833
 31
0.0
  0
LINE
  8
0
 62
     0
 10
78.5315
 20
35.833
 30
0.0
 11
64.5322
 21
35.833
 31
0.0
  0
LINE
  8
0
 62
     0
 10
83.5822
 20
35.833
 30
0.0
 11
83.5822
 21
34.8327
 31
0.0
  0
LINE
  8
0
 62
     0
 10
83.5822
 20
34.8327
 30
0.0
 11
82.7814
 21
34.8327
 31
0.0
  0
LINE
  8
0
 62
     0
 10
82.7814
 20
34.8327
 30
0.0
 11
82.7814
 21
31.7348
 31
0.0
  0
LINE
  8
0
 62
     0
 10
82.7814
 20
31.7348
 30
0.0
 11
83.5822
 21
31.7348
 31
0.0
  0
LINE
  8
0
 62
     0
 10
83.5822
 20
31.7348
 30
0.0
 11
83.5822
 21
25.9333
 31
0.0
  0
LINE
  8
0
 62
     0
 10
83.5822
 20
25.9333
 30
0.0
 11
82.7814
 21
25.9333
 31
0.0
  0
LINE
  8
0
 62
     0
 10
82.7814
 20
25.9333
 30
0.0
 11
82.7814
 21
22.8327
 31
0.0
  0
LINE
  8
0
 62
     0
 10
82.7814
 20
22.8327
 30
0.0
 11
83.5822
 21
22.8327
 31
0.0
  0
LINE
  8
0
 62
     0
 10
83.5822
 20
22.8327
 30
0.0
 11
83.5822
 21
21.8336
 31
0.0
  0
LINE
  8
0
 62
     0
 10
83.5822
 20
21.8336
 30
0.0
 11
97.5815
 21
21.8336
 31
0.0
  0
LINE
  8
0
 62
     0
 10
97.5815
 20
21.8336
 30
0.0
 11
97.5815
 21
22.8327
 31
0.0
  0
LINE
  8
0
 62
     0
 10
97.5815
 20
22.8327
 30
0.0
 11
98.3809
 21
22.8327
 31
0.0
  0
LINE
  8
0
 62
     0
 10
98.3809
 20
22.8327
 30
0.0
 11
98.3809
 21
25.9333
 31
0.0
  0
LINE
  8
0
 62
     0
 10
98.3809
 20
25.9333
 30
0.0
 11
97.5815
 21
25.9333
 31
0.0
  0
LINE
  8
0
 62
     0
 10
97.5815
 20
25.9333
 30
0.0
 11
97.5815
 21
31.7348
 31
0.0
  0
LINE
  8
0
 62
     0
 10
97.5815
 20
31.7348
 30
0.0
 11
98.3809
 21
31.7348
 31
0.0
  0
LINE
  8
0
 62
     0
 10
98.3809
 20
31.7348
 30
0.0
 11
98.3809
 21
34.8327
 31
0.0
  0
LINE
  8
0
 62
     0
 10
98.3809
 20
34.8327
 30
0.0
 11
97.5815
 21
34.8327
 31
0.0
  0
LINE
  8
0
 62
     0
 10
97.5815
 20
34.8327
 30
0.0
 11
97.5815
 21
35.833
 31
0.0
  0
LINE
  8
0
 62
     0
 10
97.5815
 20
35.833
 30
0.0
 11
83.5822
 21
35.833
 31
0.0
  0
LINE
  8
0
 62
     0
 10
102.632
 20
35.833
 30
0.0
 11
102.632
 21
34.8327
 31
0.0
  0
LINE
  8
0
 62
     0
 10
102.632
 20
34.8327
 30
0.0
 11
101.831
 21
34.8327
 31
0.0
  0
LINE
  8
0
 62
     0
 10
101.831
 20
34.8327
 30
0.0
 11
101.831
 21
31.7348
 31
0.0
  0
LINE
  8
0
 62
     0
 10
101.831
 20
31.7348
 30
0.0
 11
102.632
 21
31.7348
 31
0.0
  0
LINE
  8
0
 62
     0
 10
102.632
 20
31.7348
 30
0.0
 11
102.632
 21
25.9333
 31
0.0
  0
LINE
  8
0
 62
     0
 10
102.632
 20
25.9333
 30
0.0
 11
101.831
 21
25.9333
 31
0.0
  0
LINE
  8
0
 62
     0
 10
101.831
 20
25.9333
 30
0.0
 11
101.831
 21
22.8327
 31
0.0
  0
LINE
  8
0
 62
     0
 10
101.831
 20
22.8327
 30
0.0
 11
102.632
 21
22.8327
 31
0.0
  0
LINE
  8
0
 62
     0
 10
102.632
 20
22.8327
 30
0.0
 11
102.632
 21
21.8336
 31
0.0
  0
LINE
  8
0
 62
     0
 10
102.632
 20
21.8336
 30
0.0
 11
116.632
 21
21.8336
 31
0.0
  0
LINE
  8
0
 62
     0
 10
116.632
 20
21.8336
 30
0.0
 11
116.632
 21
22.8327
 31
0.0
  0
LINE
  8
0
 62
     0
 10
116.632
 20
22.8327
 30
0.0
 11
117.431
 21
22.8327
 31
0.0
  0
LINE
  8
0
 62
     0
 10
117.431
 20
22.8327
 30
0.0
 11
117.431
 21
25.9333
 31
0.0
  0
LINE
  8
0
 62
     0
 10
117.431
 20
25.9333
 30
0.0
 11
116.632
 21
25.9333
 31
0.0
  0
LINE
  8
0
 62
     0
 10
116.632
 20
25.9333
 30
0.0
 11
116.632
 21
31.7348
 31
0.0
  0
LINE
  8
0
 62
     0
 10
116.632
 20
31.7348
 30
0.0
 11
117.431
 21
31.7348
 31
0.0
  0
LINE
  8
0
 62
     0
 10
117.431
 20
31.7348
 30
0.0
 11
117.431
 21
34.8327
 31
0.0
  0
LINE
  8
0
 62
     0
 10
117.431
 20
34.8327
 30
0.0
 11
116.632
 21
34.8327
 31
0.0
  0
LINE
  8
0
 62
     0
 10
116.632
 20
34.8327
 30
0.0
 11
116.632
 21
35.833
 31
0.0
  0
LINE
  8
0
 62
     0
 10
116.632
 20
35.833
 30
0.0
 11
102.632
 21
35.833
 31
0.0
  0
LINE
  8
0
 62
     0
 10
121.682
 20
35.833
 30
0.0
 11
121.682
 21
34.8327
 31
0.0
  0
LINE
  8
0
 62
     0
 10
121.682
 20
34.8327
 30
0.0
 11
120.881
 21
34.8327
 31
0.0
  0
LINE
  8
0
 62
     0
 10
120.881
 20
34.8327
 30
0.0
 11
120.881
 21
31.7348
 31
0.0
  0
LINE
  8
0
 62
     0
 10
120.881
 20
31.7348
 30
0.0
 11
121.682
 21
31.7348
 31
0.0
  0
LINE
  8
0
 62
     0
 10
121.682
 20
31.7348
 30
0.0
 11
121.682
 21
25.9333
 31
0.0
  0
LINE
  8
0
 62
     0
 10
121.682
 20
25.9333
 30
0.0
 11
120.881
 21
25.9333
 31
0.0
  0
LINE
  8
0
 62
     0
 10
120.881
 20
25.9333
 30
0.0
 11
120.881
 21
22.8327
 31
0.0
  0
LINE
  8
0
 62
     0
 10
120.881
 20
22.8327
 30
0.0
 11
121.682
 21
22.8327
 31
0.0
  0
LINE
  8
0
 62
     0
 10
121.682
 20
22.8327
 30
0.0
 11
121.682
 21
21.8336
 31
0.0
  0
LINE
  8
0
 62
     0
 10
121.682
 20
21.8336
 30
0.0
 11
135.682
 21
21.8336
 31
0.0
  0
LINE
  8
0
 62
     0
 10
135.682
 20
21.8336
 30
0.0
 11
135.682
 21
22.8327
 31
0.0
  0
LINE
  8
0
 62
     0
 10
135.682
 20
22.8327
 30
0.0
 11
136.481
 21
22.8327
 31
0.0
  0
LINE
  8
0
 62
     0
 10
136.481
 20
22.8327
 30
0.0
 11
136.481
 21
25.9333
 31
0.0
  0
LINE
  8
0
 62
     0
 10
136.481
 20
25.9333
 30
0.0
 11
135.682
 21
25.9333
 31
0.0
  0
LINE
  8
0
 62
     0
 10
135.682
 20
25.9333
 30
0.0
 11
135.682
 21
31.7348
 31
0.0
  0
LINE
  8
0
 62
     0
 10
135.682
 20
31.7348
 30
0.0
 11
136.481
 21
31.7348
 31
0.0
  0
LINE
  8
0
 62
     0
 10
136.481
 20
31.7348
 30
0.0
 11
136.481
 21
34.8327
 31
0.0
  0
LINE
  8
0
 62
     0
 10
136.481
 20
34.8327
 30
0.0
 11
135.682
 21
34.8327
 31
0.0
  0
LINE
  8
0
 62
     0
 10
135.682
 20
34.8327
 30
0.0
 11
135.682
 21
35.833
 31
0.0
  0
LINE
  8
0
 62
     0
 10
135.682
 20
35.833
 30
0.0
 11
121.682
 21
35.833
 31
0.0
  0
LINE
  8
0
 62
     0
 10
140.732
 20
35.833
 30
0.0
 11
140.732
 21
34.8327
 31
0.0
  0
LINE
  8
0
 62
     0
 10
140.732
 20
34.8327
 30
0.0
 11
139.931
 21
34.8327
 31
0.0
  0
LINE
  8
0
 62
     0
 10
139.931
 20
34.8327
 30
0.0
 11
139.931
 21
31.7348
 31
0.0
  0
LINE
  8
0
 62
     0
 10
139.931
 20
31.7348
 30
0.0
 11
140.732
 21
31.7348
 31
0.0
  0
LINE
  8
0
 62
     0
 10
140.732
 20
31.7348
 30
0.0
 11
140.732
 21
25.9333
 31
0.0
  0
LINE
  8
0
 62
     0
 10
140.732
 20
25.9333
 30
0.0
 11
139.931
 21
25.9333
 31
0.0
  0
LINE
  8
0
 62
     0
 10
139.931
 20
25.9333
 30
0.0
 11
139.931
 21
22.8327
 31
0.0
  0
LINE
  8
0
 62
     0
 10
139.931
 20
22.8327
 30
0.0
 11
140.732
 21
22.8327
 31
0.0
  0
LINE
  8
0
 62
     0
 10
140.732
 20
22.8327
 30
0.0
 11
140.732
 21
21.8336
 31
0.0
  0
LINE
  8
0
 62
     0
 10
140.732
 20
21.8336
 30
0.0
 11
154.732
 21
21.8336
 31
0.0
  0
LINE
  8
0
 62
     0
 10
154.732
 20
21.8336
 30
0.0
 11
154.732
 21
22.8327
 31
0.0
  0
LINE
  8
0
 62
     0
 10
154.732
 20
22.8327
 30
0.0
 11
155.531
 21
22.8327
 31
0.0
  0
LINE
  8
0
 62
     0
 10
155.531
 20
22.8327
 30
0.0
 11
155.531
 21
25.9333
 31
0.0
  0
LINE
  8
0
 62
     0
 10
155.531
 20
25.9333
 30
0.0
 11
154.732
 21
25.9333
 31
0.0
  0
LINE
  8
0
 62
     0
 10
154.732
 20
25.9333
 30
0.0
 11
154.732
 21
31.7348
 31
0.0
  0
LINE
  8
0
 62
     0
 10
154.732
 20
31.7348
 30
0.0
 11
155.531
 21
31.7348
 31
0.0
  0
LINE
  8
0
 62
     0
 10
155.531
 20
31.7348
 30
0.0
 11
155.531
 21
34.8327
 31
0.0
  0
LINE
  8
0
 62
     0
 10
155.531
 20
34.8327
 30
0.0
 11
154.732
 21
34.8327
 31
0.0
  0
LINE
  8
0
 62
     0
 10
154.732
 20
34.8327
 30
0.0
 11
154.732
 21
35.833
 31
0.0
  0
LINE
  8
0
 62
     0
 10
154.732
 20
35.833
 30
0.0
 11
140.732
 21
35.833
 31
0.0
  0
LINE
  8
0
 62
     0
 10
159.782
 20
35.833
 30
0.0
 11
159.782
 21
34.8327
 31
0.0
  0
LINE
  8
0
 62
     0
 10
159.782
 20
34.8327
 30
0.0
 11
158.981
 21
34.8327
 31
0.0
  0
LINE
  8
0
 62
     0
 10
158.981
 20
34.8327
 30
0.0
 11
158.981
 21
31.7348
 31
0.0
  0
LINE
  8
0
 62
     0
 10
158.981
 20
31.7348
 30
0.0
 11
159.782
 21
31.7348
 31
0.0
  0
LINE
  8
0
 62
     0
 10
159.782
 20
31.7348
 30
0.0
 11
159.782
 21
25.9333
 31
0.0
  0
LINE
  8
0
 62
     0
 10
159.782
 20
25.9333
 30
0.0
 11
158.981
 21
25.9333
 31
0.0
  0
LINE
  8
0
 62
     0
 10
158.981
 20
25.9333
 30
0.0
 11
158.981
 21
22.8327
 31
0.0
  0
LINE
  8
0
 62
     0
 10
158.981
 20
22.8327
 30
0.0
 11
159.782
 21
22.8327
 31
0.0
  0
LINE
  8
0
 62
     0
 10
159.782
 20
22.8327
 30
0.0
 11
159.782
 21
21.8336
 31
0.0
  0
LINE
  8
0
 62
     0
 10
159.782
 20
21.8336
 30
0.0
 11
173.782
 21
21.8336
 31
0.0
  0
LINE
  8
0
 62
     0
 10
173.782
 20
21.8336
 30
0.0
 11
173.782
 21
22.8327
 31
0.0
  0
LINE
  8
0
 62
     0
 10
173.782
 20
22.8327
 30
0.0
 11
174.581
 21
22.8327
 31
0.0
  0
LINE
  8
0
 62
     0
 10
174.581
 20
22.8327
 30
0.0
 11
174.581
 21
25.9333
 31
0.0
  0
LINE
  8
0
 62
     0
 10
174.581
 20
25.9333
 30
0.0
 11
173.782
 21
25.9333
 31
0.0
  0
LINE
  8
0
 62
     0
 10
173.782
 20
25.9333
 30
0.0
 11
173.782
 21
31.7348
 31
0.0
  0
LINE
  8
0
 62
     0
 10
173.782
 20
31.7348
 30
0.0
 11
174.581
 21
31.7348
 31
0.0
  0
LINE
  8
0
 62
     0
 10
174.581
 20
31.7348
 30
0.0
 11
174.581
 21
34.8327
 31
0.0
  0
LINE
  8
0
 62
     0
 10
174.581
 20
34.8327
 30
0.0
 11
173.782
 21
34.8327
 31
0.0
  0
LINE
  8
0
 62
     0
 10
173.782
 20
34.8327
 30
0.0
 11
173.782
 21
35.833
 31
0.0
  0
LINE
  8
0
 62
     0
 10
173.782
 20
35.833
 30
0.0
 11
159.782
 21
35.833
 31
0.0
  0
LINE
  8
0
 62
     0
 10
178.832
 20
35.833
 30
0.0
 11
178.832
 21
34.8327
 31
0.0
  0
LINE
  8
0
 62
     0
 10
178.832
 20
34.8327
 30
0.0
 11
178.031
 21
34.8327
 31
0.0
  0
LINE
  8
0
 62
     0
 10
178.031
 20
34.8327
 30
0.0
 11
178.031
 21
31.7348
 31
0.0
  0
LINE
  8
0
 62
     0
 10
178.031
 20
31.7348
 30
0.0
 11
178.832
 21
31.7348
 31
0.0
  0
LINE
  8
0
 62
     0
 10
178.832
 20
31.7348
 30
0.0
 11
178.832
 21
25.9333
 31
0.0
  0
LINE
  8
0
 62
     0
 10
178.832
 20
25.9333
 30
0.0
 11
178.031
 21
25.9333
 31
0.0
  0
LINE
  8
0
 62
     0
 10
178.031
 20
25.9333
 30
0.0
 11
178.031
 21
22.8327
 31
0.0
  0
LINE
  8
0
 62
     0
 10
178.031
 20
22.8327
 30
0.0
 11
178.832
 21
22.8327
 31
0.0
  0
LINE
  8
0
 62
     0
 10
178.832
 20
22.8327
 30
0.0
 11
178.832
 21
21.8336
 31
0.0
  0
LINE
  8
0
 62
     0
 10
178.832
 20
21.8336
 30
0.0
 11
192.832
 21
21.8336
 31
0.0
  0
LINE
  8
0
 62
     0
 10
192.832
 20
21.8336
 30
0.0
 11
192.832
 21
22.8327
 31
0.0
  0
LINE
  8
0
 62
     0
 10
192.832
 20
22.8327
 30
0.0
 11
193.631
 21
22.8327
 31
0.0
  0
LINE
  8
0
 62
     0
 10
193.631
 20
22.8327
 30
0.0
 11
193.631
 21
25.9333
 31
0.0
  0
LINE
  8
0
 62
     0
 10
193.631
 20
25.9333
 30
0.0
 11
192.832
 21
25.9333
 31
0.0
  0
LINE
  8
0
 62
     0
 10
192.832
 20
25.9333
 30
0.0
 11
192.832
 21
31.7348
 31
0.0
  0
LINE
  8
0
 62
     0
 10
192.832
 20
31.7348
 30
0.0
 11
193.631
 21
31.7348
 31
0.0
  0
LINE
  8
0
 62
     0
 10
193.631
 20
31.7348
 30
0.0
 11
193.631
 21
34.8327
 31
0.0
  0
LINE
  8
0
 62
     0
 10
193.631
 20
34.8327
 30
0.0
 11
192.832
 21
34.8327
 31
0.0
  0
LINE
  8
0
 62
     0
 10
192.832
 20
34.8327
 30
0.0
 11
192.832
 21
35.833
 31
0.0
  0
LINE
  8
0
 62
     0
 10
192.832
 20
35.833
 30
0.0
 11
178.832
 21
35.833
 31
0.0
  0
LINE
  8
0
 62
     0
 10
197.882
 20
35.833
 30
0.0
 11
197.882
 21
34.8327
 31
0.0
  0
LINE
  8
0
 62
     0
 10
197.882
 20
34.8327
 30
0.0
 11
197.081
 21
34.8327
 31
0.0
  0
LINE
  8
0
 62
     0
 10
197.081
 20
34.8327
 30
0.0
 11
197.081
 21
31.7348
 31
0.0
  0
LINE
  8
0
 62
     0
 10
197.081
 20
31.7348
 30
0.0
 11
197.882
 21
31.7348
 31
0.0
  0
LINE
  8
0
 62
     0
 10
197.882
 20
31.7348
 30
0.0
 11
197.882
 21
25.9333
 31
0.0
  0
LINE
  8
0
 62
     0
 10
197.882
 20
25.9333
 30
0.0
 11
197.081
 21
25.9333
 31
0.0
  0
LINE
  8
0
 62
     0
 10
197.081
 20
25.9333
 30
0.0
 11
197.081
 21
22.8327
 31
0.0
  0
LINE
  8
0
 62
     0
 10
197.081
 20
22.8327
 30
0.0
 11
197.882
 21
22.8327
 31
0.0
  0
LINE
  8
0
 62
     0
 10
197.882
 20
22.8327
 30
0.0
 11
197.882
 21
21.8336
 31
0.0
  0
LINE
  8
0
 62
     0
 10
197.882
 20
21.8336
 30
0.0
 11
211.882
 21
21.8336
 31
0.0
  0
LINE
  8
0
 62
     0
 10
211.882
 20
21.8336
 30
0.0
 11
211.882
 21
22.8327
 31
0.0
  0
LINE
  8
0
 62
     0
 10
211.882
 20
22.8327
 30
0.0
 11
212.681
 21
22.8327
 31
0.0
  0
LINE
  8
0
 62
     0
 10
212.681
 20
22.8327
 30
0.0
 11
212.681
 21
25.9333
 31
0.0
  0
LINE
  8
0
 62
     0
 10
212.681
 20
25.9333
 30
0.0
 11
211.882
 21
25.9333
 31
0.0
  0
LINE
  8
0
 62
     0
 10
211.882
 20
25.9333
 30
0.0
 11
211.882
 21
31.7348
 31
0.0
  0
LINE
  8
0
 62
     0
 10
211.882
 20
31.7348
 30
0.0
 11
212.681
 21
31.7348
 31
0.0
  0
LINE
  8
0
 62
     0
 10
212.681
 20
31.7348
 30
0.0
 11
212.681
 21
34.8327
 31
0.0
  0
LINE
  8
0
 62
     0
 10
212.681
 20
34.8327
 30
0.0
 11
211.882
 21
34.8327
 31
0.0
  0
LINE
  8
0
 62
     0
 10
211.882
 20
34.8327
 30
0.0
 11
211.882
 21
35.833
 31
0.0
  0
LINE
  8
0
 62
     0
 10
211.882
 20
35.833
 30
0.0
 11
197.882
 21
35.833
 31
0.0
  0
LINE
  8
0
 62
     0
 10
216.932
 20
35.833
 30
0.0
 11
216.932
 21
34.8327
 31
0.0
  0
LINE
  8
0
 62
     0
 10
216.932
 20
34.8327
 30
0.0
 11
216.131
 21
34.8327
 31
0.0
  0
LINE
  8
0
 62
     0
 10
216.131
 20
34.8327
 30
0.0
 11
216.131
 21
31.7348
 31
0.0
  0
LINE
  8
0
 62
     0
 10
216.131
 20
31.7348
 30
0.0
 11
216.932
 21
31.7348
 31
0.0
  0
LINE
  8
0
 62
     0
 10
216.932
 20
31.7348
 30
0.0
 11
216.932
 21
25.9333
 31
0.0
  0
LINE
  8
0
 62
     0
 10
216.932
 20
25.9333
 30
0.0
 11
216.131
 21
25.9333
 31
0.0
  0
LINE
  8
0
 62
     0
 10
216.131
 20
25.9333
 30
0.0
 11
216.131
 21
22.8327
 31
0.0
  0
LINE
  8
0
 62
     0
 10
216.131
 20
22.8327
 30
0.0
 11
216.932
 21
22.8327
 31
0.0
  0
LINE
  8
0
 62
     0
 10
216.932
 20
22.8327
 30
0.0
 11
216.932
 21
21.8336
 31
0.0
  0
LINE
  8
0
 62
     0
 10
216.932
 20
21.8336
 30
0.0
 11
230.932
 21
21.8336
 31
0.0
  0
LINE
  8
0
 62
     0
 10
230.932
 20
21.8336
 30
0.0
 11
230.932
 21
22.8327
 31
0.0
  0
LINE
  8
0
 62
     0
 10
230.932
 20
22.8327
 30
0.0
 11
231.731
 21
22.8327
 31
0.0
  0
LINE
  8
0
 62
     0
 10
231.731
 20
22.8327
 30
0.0
 11
231.731
 21
25.9333
 31
0.0
  0
LINE
  8
0
 62
     0
 10
231.731
 20
25.9333
 30
0.0
 11
230.932
 21
25.9333
 31
0.0
  0
LINE
  8
0
 62
     0
 10
230.932
 20
25.9333
 30
0.0
 11
230.932
 21
31.7348
 31
0.0
  0
LINE
  8
0
 62
     0
 10
230.932
 20
31.7348
 30
0.0
 11
231.731
 21
31.7348
 31
0.0
  0
LINE
  8
0
 62
     0
 10
231.731
 20
31.7348
 30
0.0
 11
231.731
 21
34.8327
 31
0.0
  0
LINE
  8
0
 62
     0
 10
231.731
 20
34.8327
 30
0.0
 11
230.932
 21
34.8327
 31
0.0
  0
LINE
  8
0
 62
     0
 10
230.932
 20
34.8327
 30
0.0
 11
230.932
 21
35.833
 31
0.0
  0
LINE
  8
0
 62
     0
 10
230.932
 20
35.833
 30
0.0
 11
216.932
 21
35.833
 31
0.0
  0
LINE
  8
0
 62
     0
 10
278.845
 20
35.833
 30
0.0
 11
278.845
 21
34.8327
 31
0.0
  0
LINE
  8
0
 62
     0
 10
278.845
 20
34.8327
 30
0.0
 11
278.044
 21
34.8327
 31
0.0
  0
LINE
  8
0
 62
     0
 10
278.044
 20
34.8327
 30
0.0
 11
278.044
 21
31.7348
 31
0.0
  0
LINE
  8
0
 62
     0
 10
278.044
 20
31.7348
 30
0.0
 11
278.845
 21
31.7348
 31
0.0
  0
LINE
  8
0
 62
     0
 10
278.845
 20
31.7348
 30
0.0
 11
278.845
 21
25.9333
 31
0.0
  0
LINE
  8
0
 62
     0
 10
278.845
 20
25.9333
 30
0.0
 11
278.044
 21
25.9333
 31
0.0
  0
LINE
  8
0
 62
     0
 10
278.044
 20
25.9333
 30
0.0
 11
278.044
 21
22.8327
 31
0.0
  0
LINE
  8
0
 62
     0
 10
278.044
 20
22.8327
 30
0.0
 11
278.845
 21
22.8327
 31
0.0
  0
LINE
  8
0
 62
     0
 10
278.845
 20
22.8327
 30
0.0
 11
278.845
 21
21.8336
 31
0.0
  0
LINE
  8
0
 62
     0
 10
278.845
 20
21.8336
 30
0.0
 11
292.844
 21
21.8336
 31
0.0
  0
LINE
  8
0
 62
     0
 10
292.844
 20
21.8336
 30
0.0
 11
292.844
 21
22.8327
 31
0.0
  0
LINE
  8
0
 62
     0
 10
292.844
 20
22.8327
 30
0.0
 11
293.645
 21
22.8327
 31
0.0
  0
LINE
  8
0
 62
     0
 10
293.645
 20
22.8327
 30
0.0
 11
293.645
 21
25.9333
 31
0.0
  0
LINE
  8
0
 62
     0
 10
293.645
 20
25.9333
 30
0.0
 11
292.844
 21
25.9333
 31
0.0
  0
LINE
  8
0
 62
     0
 10
292.844
 20
25.9333
 30
0.0
 11
292.844
 21
31.7348
 31
0.0
  0
LINE
  8
0
 62
     0
 10
292.844
 20
31.7348
 30
0.0
 11
293.645
 21
31.7348
 31
0.0
  0
LINE
  8
0
 62
     0
 10
293.645
 20
31.7348
 30
0.0
 11
293.645
 21
34.8327
 31
0.0
  0
LINE
  8
0
 62
     0
 10
293.645
 20
34.8327
 30
0.0
 11
292.844
 21
34.8327
 31
0.0
  0
LINE
  8
0
 62
     0
 10
292.844
 20
34.8327
 30
0.0
 11
292.844
 21
35.833
 31
0.0
  0
LINE
  8
0
 62
     0
 10
292.844
 20
35.833
 30
0.0
 11
278.845
 21
35.833
 31
0.0
  0
LINE
  8
0
 62
     0
 10
9.76203
 20
54.8831
 30
0.0
 11
9.76203
 21
53.8826
 31
0.0
  0
LINE
  8
0
 62
     0
 10
9.76203
 20
53.8826
 30
0.0
 11
8.96278
 21
53.8826
 31
0.0
  0
LINE
  8
0
 62
     0
 10
8.96278
 20
53.8826
 30
0.0
 11
8.96278
 21
50.7848
 31
0.0
  0
LINE
  8
0
 62
     0
 10
8.96278
 20
50.7848
 30
0.0
 11
9.76203
 21
50.7848
 31
0.0
  0
LINE
  8
0
 62
     0
 10
9.76203
 20
50.7848
 30
0.0
 11
9.76203
 21
44.9834
 31
0.0
  0
LINE
  8
0
 62
     0
 10
9.76203
 20
44.9834
 30
0.0
 11
8.96278
 21
44.9834
 31
0.0
  0
LINE
  8
0
 62
     0
 10
8.96278
 20
44.9834
 30
0.0
 11
8.96278
 21
41.8828
 31
0.0
  0
LINE
  8
0
 62
     0
 10
8.96278
 20
41.8828
 30
0.0
 11
9.76203
 21
41.8828
 31
0.0
  0
LINE
  8
0
 62
     0
 10
9.76203
 20
41.8828
 30
0.0
 11
9.76203
 21
40.8838
 31
0.0
  0
LINE
  8
0
 62
     0
 10
9.76203
 20
40.8838
 30
0.0
 11
23.7629
 21
40.8838
 31
0.0
  0
LINE
  8
0
 62
     0
 10
23.7629
 20
40.8838
 30
0.0
 11
23.7629
 21
41.8828
 31
0.0
  0
LINE
  8
0
 62
     0
 10
23.7629
 20
41.8828
 30
0.0
 11
24.5622
 21
41.8828
 31
0.0
  0
LINE
  8
0
 62
     0
 10
24.5622
 20
41.8828
 30
0.0
 11
24.5622
 21
44.9834
 31
0.0
  0
LINE
  8
0
 62
     0
 10
24.5622
 20
44.9834
 30
0.0
 11
23.7629
 21
44.9834
 31
0.0
  0
LINE
  8
0
 62
     0
 10
23.7629
 20
44.9834
 30
0.0
 11
23.7629
 21
50.7848
 31
0.0
  0
LINE
  8
0
 62
     0
 10
23.7629
 20
50.7848
 30
0.0
 11
24.5622
 21
50.7848
 31
0.0
  0
LINE
  8
0
 62
     0
 10
24.5622
 20
50.7848
 30
0.0
 11
24.5622
 21
53.8826
 31
0.0
  0
LINE
  8
0
 62
     0
 10
24.5622
 20
53.8826
 30
0.0
 11
23.7629
 21
53.8826
 31
0.0
  0
LINE
  8
0
 62
     0
 10
23.7629
 20
53.8826
 30
0.0
 11
23.7629
 21
54.8831
 31
0.0
  0
LINE
  8
0
 62
     0
 10
23.7629
 20
54.8831
 30
0.0
 11
9.76203
 21
54.8831
 31
0.0
  0
LINE
  8
0
 62
     0
 10
35.9572
 20
54.8831
 30
0.0
 11
35.9572
 21
53.8826
 31
0.0
  0
LINE
  8
0
 62
     0
 10
35.9572
 20
53.8826
 30
0.0
 11
35.1565
 21
53.8826
 31
0.0
  0
LINE
  8
0
 62
     0
 10
35.1565
 20
53.8826
 30
0.0
 11
35.1565
 21
50.7848
 31
0.0
  0
LINE
  8
0
 62
     0
 10
35.1565
 20
50.7848
 30
0.0
 11
35.9572
 21
50.7848
 31
0.0
  0
LINE
  8
0
 62
     0
 10
35.9572
 20
50.7848
 30
0.0
 11
35.9572
 21
44.9834
 31
0.0
  0
LINE
  8
0
 62
     0
 10
35.9572
 20
44.9834
 30
0.0
 11
35.1565
 21
44.9834
 31
0.0
  0
LINE
  8
0
 62
     0
 10
35.1565
 20
44.9834
 30
0.0
 11
35.1565
 21
41.8828
 31
0.0
  0
LINE
  8
0
 62
     0
 10
35.1565
 20
41.8828
 30
0.0
 11
35.9572
 21
41.8828
 31
0.0
  0
LINE
  8
0
 62
     0
 10
35.9572
 20
41.8828
 30
0.0
 11
35.9572
 21
40.8838
 31
0.0
  0
LINE
  8
0
 62
     0
 10
35.9572
 20
40.8838
 30
0.0
 11
49.9565
 21
40.8838
 31
0.0
  0
LINE
  8
0
 62
     0
 10
49.9565
 20
40.8838
 30
0.0
 11
49.9565
 21
41.8828
 31
0.0
  0
LINE
  8
0
 62
     0
 10
49.9565
 20
41.8828
 30
0.0
 11
50.7559
 21
41.8828
 31
0.0
  0
LINE
  8
0
 62
     0
 10
50.7559
 20
41.8828
 30
0.0
 11
50.7559
 21
44.9834
 31
0.0
  0
LINE
  8
0
 62
     0
 10
50.7559
 20
44.9834
 30
0.0
 11
49.9565
 21
44.9834
 31
0.0
  0
LINE
  8
0
 62
     0
 10
49.9565
 20
44.9834
 30
0.0
 11
49.9565
 21
50.7848
 31
0.0
  0
LINE
  8
0
 62
     0
 10
49.9565
 20
50.7848
 30
0.0
 11
50.7559
 21
50.7848
 31
0.0
  0
LINE
  8
0
 62
     0
 10
50.7559
 20
50.7848
 30
0.0
 11
50.7559
 21
53.8826
 31
0.0
  0
LINE
  8
0
 62
     0
 10
50.7559
 20
53.8826
 30
0.0
 11
49.9565
 21
53.8826
 31
0.0
  0
LINE
  8
0
 62
     0
 10
49.9565
 20
53.8826
 30
0.0
 11
49.9565
 21
54.8831
 31
0.0
  0
LINE
  8
0
 62
     0
 10
49.9565
 20
54.8831
 30
0.0
 11
35.9572
 21
54.8831
 31
0.0
  0
LINE
  8
0
 62
     0
 10
55.0072
 20
54.8831
 30
0.0
 11
55.0072
 21
53.8826
 31
0.0
  0
LINE
  8
0
 62
     0
 10
55.0072
 20
53.8826
 30
0.0
 11
54.2064
 21
53.8826
 31
0.0
  0
LINE
  8
0
 62
     0
 10
54.2064
 20
53.8826
 30
0.0
 11
54.2064
 21
50.7848
 31
0.0
  0
LINE
  8
0
 62
     0
 10
54.2064
 20
50.7848
 30
0.0
 11
55.0072
 21
50.7848
 31
0.0
  0
LINE
  8
0
 62
     0
 10
55.0072
 20
50.7848
 30
0.0
 11
55.0072
 21
44.9834
 31
0.0
  0
LINE
  8
0
 62
     0
 10
55.0072
 20
44.9834
 30
0.0
 11
54.2064
 21
44.9834
 31
0.0
  0
LINE
  8
0
 62
     0
 10
54.2064
 20
44.9834
 30
0.0
 11
54.2064
 21
41.8828
 31
0.0
  0
LINE
  8
0
 62
     0
 10
54.2064
 20
41.8828
 30
0.0
 11
55.0072
 21
41.8828
 31
0.0
  0
LINE
  8
0
 62
     0
 10
55.0072
 20
41.8828
 30
0.0
 11
55.0072
 21
40.8838
 31
0.0
  0
LINE
  8
0
 62
     0
 10
55.0072
 20
40.8838
 30
0.0
 11
69.0065
 21
40.8838
 31
0.0
  0
LINE
  8
0
 62
     0
 10
69.0065
 20
40.8838
 30
0.0
 11
69.0065
 21
41.8828
 31
0.0
  0
LINE
  8
0
 62
     0
 10
69.0065
 20
41.8828
 30
0.0
 11
69.8059
 21
41.8828
 31
0.0
  0
LINE
  8
0
 62
     0
 10
69.8059
 20
41.8828
 30
0.0
 11
69.8059
 21
44.9834
 31
0.0
  0
LINE
  8
0
 62
     0
 10
69.8059
 20
44.9834
 30
0.0
 11
69.0065
 21
44.9834
 31
0.0
  0
LINE
  8
0
 62
     0
 10
69.0065
 20
44.9834
 30
0.0
 11
69.0065
 21
50.7848
 31
0.0
  0
LINE
  8
0
 62
     0
 10
69.0065
 20
50.7848
 30
0.0
 11
69.8059
 21
50.7848
 31
0.0
  0
LINE
  8
0
 62
     0
 10
69.8059
 20
50.7848
 30
0.0
 11
69.8059
 21
53.8826
 31
0.0
  0
LINE
  8
0
 62
     0
 10
69.8059
 20
53.8826
 30
0.0
 11
69.0065
 21
53.8826
 31
0.0
  0
LINE
  8
0
 62
     0
 10
69.0065
 20
53.8826
 30
0.0
 11
69.0065
 21
54.8831
 31
0.0
  0
LINE
  8
0
 62
     0
 10
69.0065
 20
54.8831
 30
0.0
 11
55.0072
 21
54.8831
 31
0.0
  0
LINE
  8
0
 62
     0
 10
74.0572
 20
54.8831
 30
0.0
 11
74.0572
 21
53.8826
 31
0.0
  0
LINE
  8
0
 62
     0
 10
74.0572
 20
53.8826
 30
0.0
 11
73.2564
 21
53.8826
 31
0.0
  0
LINE
  8
0
 62
     0
 10
73.2564
 20
53.8826
 30
0.0
 11
73.2564
 21
50.7848
 31
0.0
  0
LINE
  8
0
 62
     0
 10
73.2564
 20
50.7848
 30
0.0
 11
74.0572
 21
50.7848
 31
0.0
  0
LINE
  8
0
 62
     0
 10
74.0572
 20
50.7848
 30
0.0
 11
74.0572
 21
44.9834
 31
0.0
  0
LINE
  8
0
 62
     0
 10
74.0572
 20
44.9834
 30
0.0
 11
73.2564
 21
44.9834
 31
0.0
  0
LINE
  8
0
 62
     0
 10
73.2564
 20
44.9834
 30
0.0
 11
73.2564
 21
41.8828
 31
0.0
  0
LINE
  8
0
 62
     0
 10
73.2564
 20
41.8828
 30
0.0
 11
74.0572
 21
41.8828
 31
0.0
  0
LINE
  8
0
 62
     0
 10
74.0572
 20
41.8828
 30
0.0
 11
74.0572
 21
40.8838
 31
0.0
  0
LINE
  8
0
 62
     0
 10
74.0572
 20
40.8838
 30
0.0
 11
88.0565
 21
40.8838
 31
0.0
  0
LINE
  8
0
 62
     0
 10
88.0565
 20
40.8838
 30
0.0
 11
88.0565
 21
41.8828
 31
0.0
  0
LINE
  8
0
 62
     0
 10
88.0565
 20
41.8828
 30
0.0
 11
88.8559
 21
41.8828
 31
0.0
  0
LINE
  8
0
 62
     0
 10
88.8559
 20
41.8828
 30
0.0
 11
88.8559
 21
44.9834
 31
0.0
  0
LINE
  8
0
 62
     0
 10
88.8559
 20
44.9834
 30
0.0
 11
88.0565
 21
44.9834
 31
0.0
  0
LINE
  8
0
 62
     0
 10
88.0565
 20
44.9834
 30
0.0
 11
88.0565
 21
50.7848
 31
0.0
  0
LINE
  8
0
 62
     0
 10
88.0565
 20
50.7848
 30
0.0
 11
88.8559
 21
50.7848
 31
0.0
  0
LINE
  8
0
 62
     0
 10
88.8559
 20
50.7848
 30
0.0
 11
88.8559
 21
53.8826
 31
0.0
  0
LINE
  8
0
 62
     0
 10
88.8559
 20
53.8826
 30
0.0
 11
88.0565
 21
53.8826
 31
0.0
  0
LINE
  8
0
 62
     0
 10
88.0565
 20
53.8826
 30
0.0
 11
88.0565
 21
54.8831
 31
0.0
  0
LINE
  8
0
 62
     0
 10
88.0565
 20
54.8831
 30
0.0
 11
74.0572
 21
54.8831
 31
0.0
  0
LINE
  8
0
 62
     0
 10
93.1072
 20
54.8831
 30
0.0
 11
93.1072
 21
53.8826
 31
0.0
  0
LINE
  8
0
 62
     0
 10
93.1072
 20
53.8826
 30
0.0
 11
92.3064
 21
53.8826
 31
0.0
  0
LINE
  8
0
 62
     0
 10
92.3064
 20
53.8826
 30
0.0
 11
92.3064
 21
50.7848
 31
0.0
  0
LINE
  8
0
 62
     0
 10
92.3064
 20
50.7848
 30
0.0
 11
93.1072
 21
50.7848
 31
0.0
  0
LINE
  8
0
 62
     0
 10
93.1072
 20
50.7848
 30
0.0
 11
93.1072
 21
44.9834
 31
0.0
  0
LINE
  8
0
 62
     0
 10
93.1072
 20
44.9834
 30
0.0
 11
92.3064
 21
44.9834
 31
0.0
  0
LINE
  8
0
 62
     0
 10
92.3064
 20
44.9834
 30
0.0
 11
92.3064
 21
41.8828
 31
0.0
  0
LINE
  8
0
 62
     0
 10
92.3064
 20
41.8828
 30
0.0
 11
93.1072
 21
41.8828
 31
0.0
  0
LINE
  8
0
 62
     0
 10
93.1072
 20
41.8828
 30
0.0
 11
93.1072
 21
40.8838
 31
0.0
  0
LINE
  8
0
 62
     0
 10
93.1072
 20
40.8838
 30
0.0
 11
107.107
 21
40.8838
 31
0.0
  0
LINE
  8
0
 62
     0
 10
107.107
 20
40.8838
 30
0.0
 11
107.107
 21
41.8828
 31
0.0
  0
LINE
  8
0
 62
     0
 10
107.107
 20
41.8828
 30
0.0
 11
107.906
 21
41.8828
 31
0.0
  0
LINE
  8
0
 62
     0
 10
107.906
 20
41.8828
 30
0.0
 11
107.906
 21
44.9834
 31
0.0
  0
LINE
  8
0
 62
     0
 10
107.906
 20
44.9834
 30
0.0
 11
107.107
 21
44.9834
 31
0.0
  0
LINE
  8
0
 62
     0
 10
107.107
 20
44.9834
 30
0.0
 11
107.107
 21
50.7848
 31
0.0
  0
LINE
  8
0
 62
     0
 10
107.107
 20
50.7848
 30
0.0
 11
107.906
 21
50.7848
 31
0.0
  0
LINE
  8
0
 62
     0
 10
107.906
 20
50.7848
 30
0.0
 11
107.906
 21
53.8826
 31
0.0
  0
LINE
  8
0
 62
     0
 10
107.906
 20
53.8826
 30
0.0
 11
107.107
 21
53.8826
 31
0.0
  0
LINE
  8
0
 62
     0
 10
107.107
 20
53.8826
 30
0.0
 11
107.107
 21
54.8831
 31
0.0
  0
LINE
  8
0
 62
     0
 10
107.107
 20
54.8831
 30
0.0
 11
93.1072
 21
54.8831
 31
0.0
  0
LINE
  8
0
 62
     0
 10
112.157
 20
54.8831
 30
0.0
 11
112.157
 21
53.8826
 31
0.0
  0
LINE
  8
0
 62
     0
 10
112.157
 20
53.8826
 30
0.0
 11
111.356
 21
53.8826
 31
0.0
  0
LINE
  8
0
 62
     0
 10
111.356
 20
53.8826
 30
0.0
 11
111.356
 21
50.7848
 31
0.0
  0
LINE
  8
0
 62
     0
 10
111.356
 20
50.7848
 30
0.0
 11
112.157
 21
50.7848
 31
0.0
  0
LINE
  8
0
 62
     0
 10
112.157
 20
50.7848
 30
0.0
 11
112.157
 21
44.9834
 31
0.0
  0
LINE
  8
0
 62
     0
 10
112.157
 20
44.9834
 30
0.0
 11
111.356
 21
44.9834
 31
0.0
  0
LINE
  8
0
 62
     0
 10
111.356
 20
44.9834
 30
0.0
 11
111.356
 21
41.8828
 31
0.0
  0
LINE
  8
0
 62
     0
 10
111.356
 20
41.8828
 30
0.0
 11
112.157
 21
41.8828
 31
0.0
  0
LINE
  8
0
 62
     0
 10
112.157
 20
41.8828
 30
0.0
 11
112.157
 21
40.8838
 31
0.0
  0
LINE
  8
0
 62
     0
 10
112.157
 20
40.8838
 30
0.0
 11
126.157
 21
40.8838
 31
0.0
  0
LINE
  8
0
 62
     0
 10
126.157
 20
40.8838
 30
0.0
 11
126.157
 21
41.8828
 31
0.0
  0
LINE
  8
0
 62
     0
 10
126.157
 20
41.8828
 30
0.0
 11
126.956
 21
41.8828
 31
0.0
  0
LINE
  8
0
 62
     0
 10
126.956
 20
41.8828
 30
0.0
 11
126.956
 21
44.9834
 31
0.0
  0
LINE
  8
0
 62
     0
 10
126.956
 20
44.9834
 30
0.0
 11
126.157
 21
44.9834
 31
0.0
  0
LINE
  8
0
 62
     0
 10
126.157
 20
44.9834
 30
0.0
 11
126.157
 21
50.7848
 31
0.0
  0
LINE
  8
0
 62
     0
 10
126.157
 20
50.7848
 30
0.0
 11
126.956
 21
50.7848
 31
0.0
  0
LINE
  8
0
 62
     0
 10
126.956
 20
50.7848
 30
0.0
 11
126.956
 21
53.8826
 31
0.0
  0
LINE
  8
0
 62
     0
 10
126.956
 20
53.8826
 30
0.0
 11
126.157
 21
53.8826
 31
0.0
  0
LINE
  8
0
 62
     0
 10
126.157
 20
53.8826
 30
0.0
 11
126.157
 21
54.8831
 31
0.0
  0
LINE
  8
0
 62
     0
 10
126.157
 20
54.8831
 30
0.0
 11
112.157
 21
54.8831
 31
0.0
  0
LINE
  8
0
 62
     0
 10
131.207
 20
54.8831
 30
0.0
 11
131.207
 21
53.8826
 31
0.0
  0
LINE
  8
0
 62
     0
 10
131.207
 20
53.8826
 30
0.0
 11
130.406
 21
53.8826
 31
0.0
  0
LINE
  8
0
 62
     0
 10
130.406
 20
53.8826
 30
0.0
 11
130.406
 21
50.7848
 31
0.0
  0
LINE
  8
0
 62
     0
 10
130.406
 20
50.7848
 30
0.0
 11
131.207
 21
50.7848
 31
0.0
  0
LINE
  8
0
 62
     0
 10
131.207
 20
50.7848
 30
0.0
 11
131.207
 21
44.9834
 31
0.0
  0
LINE
  8
0
 62
     0
 10
131.207
 20
44.9834
 30
0.0
 11
130.406
 21
44.9834
 31
0.0
  0
LINE
  8
0
 62
     0
 10
130.406
 20
44.9834
 30
0.0
 11
130.406
 21
41.8828
 31
0.0
  0
LINE
  8
0
 62
     0
 10
130.406
 20
41.8828
 30
0.0
 11
131.207
 21
41.8828
 31
0.0
  0
LINE
  8
0
 62
     0
 10
131.207
 20
41.8828
 30
0.0
 11
131.207
 21
40.8838
 31
0.0
  0
LINE
  8
0
 62
     0
 10
131.207
 20
40.8838
 30
0.0
 11
145.207
 21
40.8838
 31
0.0
  0
LINE
  8
0
 62
     0
 10
145.207
 20
40.8838
 30
0.0
 11
145.207
 21
41.8828
 31
0.0
  0
LINE
  8
0
 62
     0
 10
145.207
 20
41.8828
 30
0.0
 11
146.006
 21
41.8828
 31
0.0
  0
LINE
  8
0
 62
     0
 10
146.006
 20
41.8828
 30
0.0
 11
146.006
 21
44.9834
 31
0.0
  0
LINE
  8
0
 62
     0
 10
146.006
 20
44.9834
 30
0.0
 11
145.207
 21
44.9834
 31
0.0
  0
LINE
  8
0
 62
     0
 10
145.207
 20
44.9834
 30
0.0
 11
145.207
 21
50.7848
 31
0.0
  0
LINE
  8
0
 62
     0
 10
145.207
 20
50.7848
 30
0.0
 11
146.006
 21
50.7848
 31
0.0
  0
LINE
  8
0
 62
     0
 10
146.006
 20
50.7848
 30
0.0
 11
146.006
 21
53.8826
 31
0.0
  0
LINE
  8
0
 62
     0
 10
146.006
 20
53.8826
 30
0.0
 11
145.207
 21
53.8826
 31
0.0
  0
LINE
  8
0
 62
     0
 10
145.207
 20
53.8826
 30
0.0
 11
145.207
 21
54.8831
 31
0.0
  0
LINE
  8
0
 62
     0
 10
145.207
 20
54.8831
 30
0.0
 11
131.207
 21
54.8831
 31
0.0
  0
LINE
  8
0
 62
     0
 10
150.257
 20
54.8831
 30
0.0
 11
150.257
 21
53.8826
 31
0.0
  0
LINE
  8
0
 62
     0
 10
150.257
 20
53.8826
 30
0.0
 11
149.456
 21
53.8826
 31
0.0
  0
LINE
  8
0
 62
     0
 10
149.456
 20
53.8826
 30
0.0
 11
149.456
 21
50.7848
 31
0.0
  0
LINE
  8
0
 62
     0
 10
149.456
 20
50.7848
 30
0.0
 11
150.257
 21
50.7848
 31
0.0
  0
LINE
  8
0
 62
     0
 10
150.257
 20
50.7848
 30
0.0
 11
150.257
 21
44.9834
 31
0.0
  0
LINE
  8
0
 62
     0
 10
150.257
 20
44.9834
 30
0.0
 11
149.456
 21
44.9834
 31
0.0
  0
LINE
  8
0
 62
     0
 10
149.456
 20
44.9834
 30
0.0
 11
149.456
 21
41.8828
 31
0.0
  0
LINE
  8
0
 62
     0
 10
149.456
 20
41.8828
 30
0.0
 11
150.257
 21
41.8828
 31
0.0
  0
LINE
  8
0
 62
     0
 10
150.257
 20
41.8828
 30
0.0
 11
150.257
 21
40.8838
 31
0.0
  0
LINE
  8
0
 62
     0
 10
150.257
 20
40.8838
 30
0.0
 11
164.257
 21
40.8838
 31
0.0
  0
LINE
  8
0
 62
     0
 10
164.257
 20
40.8838
 30
0.0
 11
164.257
 21
41.8828
 31
0.0
  0
LINE
  8
0
 62
     0
 10
164.257
 20
41.8828
 30
0.0
 11
165.056
 21
41.8828
 31
0.0
  0
LINE
  8
0
 62
     0
 10
165.056
 20
41.8828
 30
0.0
 11
165.056
 21
44.9834
 31
0.0
  0
LINE
  8
0
 62
     0
 10
165.056
 20
44.9834
 30
0.0
 11
164.257
 21
44.9834
 31
0.0
  0
LINE
  8
0
 62
     0
 10
164.257
 20
44.9834
 30
0.0
 11
164.257
 21
50.7848
 31
0.0
  0
LINE
  8
0
 62
     0
 10
164.257
 20
50.7848
 30
0.0
 11
165.056
 21
50.7848
 31
0.0
  0
LINE
  8
0
 62
     0
 10
165.056
 20
50.7848
 30
0.0
 11
165.056
 21
53.8826
 31
0.0
  0
LINE
  8
0
 62
     0
 10
165.056
 20
53.8826
 30
0.0
 11
164.257
 21
53.8826
 31
0.0
  0
LINE
  8
0
 62
     0
 10
164.257
 20
53.8826
 30
0.0
 11
164.257
 21
54.8831
 31
0.0
  0
LINE
  8
0
 62
     0
 10
164.257
 20
54.8831
 30
0.0
 11
150.257
 21
54.8831
 31
0.0
  0
LINE
  8
0
 62
     0
 10
169.307
 20
54.8831
 30
0.0
 11
169.307
 21
53.8826
 31
0.0
  0
LINE
  8
0
 62
     0
 10
169.307
 20
53.8826
 30
0.0
 11
168.506
 21
53.8826
 31
0.0
  0
LINE
  8
0
 62
     0
 10
168.506
 20
53.8826
 30
0.0
 11
168.506
 21
50.7848
 31
0.0
  0
LINE
  8
0
 62
     0
 10
168.506
 20
50.7848
 30
0.0
 11
169.307
 21
50.7848
 31
0.0
  0
LINE
  8
0
 62
     0
 10
169.307
 20
50.7848
 30
0.0
 11
169.307
 21
44.9834
 31
0.0
  0
LINE
  8
0
 62
     0
 10
169.307
 20
44.9834
 30
0.0
 11
168.506
 21
44.9834
 31
0.0
  0
LINE
  8
0
 62
     0
 10
168.506
 20
44.9834
 30
0.0
 11
168.506
 21
41.8828
 31
0.0
  0
LINE
  8
0
 62
     0
 10
168.506
 20
41.8828
 30
0.0
 11
169.307
 21
41.8828
 31
0.0
  0
LINE
  8
0
 62
     0
 10
169.307
 20
41.8828
 30
0.0
 11
169.307
 21
40.8838
 31
0.0
  0
LINE
  8
0
 62
     0
 10
169.307
 20
40.8838
 30
0.0
 11
183.307
 21
40.8838
 31
0.0
  0
LINE
  8
0
 62
     0
 10
183.307
 20
40.8838
 30
0.0
 11
183.307
 21
41.8828
 31
0.0
  0
LINE
  8
0
 62
     0
 10
183.307
 20
41.8828
 30
0.0
 11
184.106
 21
41.8828
 31
0.0
  0
LINE
  8
0
 62
     0
 10
184.106
 20
41.8828
 30
0.0
 11
184.106
 21
44.9834
 31
0.0
  0
LINE
  8
0
 62
     0
 10
184.106
 20
44.9834
 30
0.0
 11
183.307
 21
44.9834
 31
0.0
  0
LINE
  8
0
 62
     0
 10
183.307
 20
44.9834
 30
0.0
 11
183.307
 21
50.7848
 31
0.0
  0
LINE
  8
0
 62
     0
 10
183.307
 20
50.7848
 30
0.0
 11
184.106
 21
50.7848
 31
0.0
  0
LINE
  8
0
 62
     0
 10
184.106
 20
50.7848
 30
0.0
 11
184.106
 21
53.8826
 31
0.0
  0
LINE
  8
0
 62
     0
 10
184.106
 20
53.8826
 30
0.0
 11
183.307
 21
53.8826
 31
0.0
  0
LINE
  8
0
 62
     0
 10
183.307
 20
53.8826
 30
0.0
 11
183.307
 21
54.8831
 31
0.0
  0
LINE
  8
0
 62
     0
 10
183.307
 20
54.8831
 30
0.0
 11
169.307
 21
54.8831
 31
0.0
  0
LINE
  8
0
 62
     0
 10
188.357
 20
54.8831
 30
0.0
 11
188.357
 21
53.8826
 31
0.0
  0
LINE
  8
0
 62
     0
 10
188.357
 20
53.8826
 30
0.0
 11
187.556
 21
53.8826
 31
0.0
  0
LINE
  8
0
 62
     0
 10
187.556
 20
53.8826
 30
0.0
 11
187.556
 21
50.7848
 31
0.0
  0
LINE
  8
0
 62
     0
 10
187.556
 20
50.7848
 30
0.0
 11
188.357
 21
50.7848
 31
0.0
  0
LINE
  8
0
 62
     0
 10
188.357
 20
50.7848
 30
0.0
 11
188.357
 21
44.9834
 31
0.0
  0
LINE
  8
0
 62
     0
 10
188.357
 20
44.9834
 30
0.0
 11
187.556
 21
44.9834
 31
0.0
  0
LINE
  8
0
 62
     0
 10
187.556
 20
44.9834
 30
0.0
 11
187.556
 21
41.8828
 31
0.0
  0
LINE
  8
0
 62
     0
 10
187.556
 20
41.8828
 30
0.0
 11
188.357
 21
41.8828
 31
0.0
  0
LINE
  8
0
 62
     0
 10
188.357
 20
41.8828
 30
0.0
 11
188.357
 21
40.8838
 31
0.0
  0
LINE
  8
0
 62
     0
 10
188.357
 20
40.8838
 30
0.0
 11
202.357
 21
40.8838
 31
0.0
  0
LINE
  8
0
 62
     0
 10
202.357
 20
40.8838
 30
0.0
 11
202.357
 21
41.8828
 31
0.0
  0
LINE
  8
0
 62
     0
 10
202.357
 20
41.8828
 30
0.0
 11
203.156
 21
41.8828
 31
0.0
  0
LINE
  8
0
 62
     0
 10
203.156
 20
41.8828
 30
0.0
 11
203.156
 21
44.9834
 31
0.0
  0
LINE
  8
0
 62
     0
 10
203.156
 20
44.9834
 30
0.0
 11
202.357
 21
44.9834
 31
0.0
  0
LINE
  8
0
 62
     0
 10
202.357
 20
44.9834
 30
0.0
 11
202.357
 21
50.7848
 31
0.0
  0
LINE
  8
0
 62
     0
 10
202.357
 20
50.7848
 30
0.0
 11
203.156
 21
50.7848
 31
0.0
  0
LINE
  8
0
 62
     0
 10
203.156
 20
50.7848
 30
0.0
 11
203.156
 21
53.8826
 31
0.0
  0
LINE
  8
0
 62
     0
 10
203.156
 20
53.8826
 30
0.0
 11
202.357
 21
53.8826
 31
0.0
  0
LINE
  8
0
 62
     0
 10
202.357
 20
53.8826
 30
0.0
 11
202.357
 21
54.8831
 31
0.0
  0
LINE
  8
0
 62
     0
 10
202.357
 20
54.8831
 30
0.0
 11
188.357
 21
54.8831
 31
0.0
  0
LINE
  8
0
 62
     0
 10
207.407
 20
54.8831
 30
0.0
 11
207.407
 21
53.8826
 31
0.0
  0
LINE
  8
0
 62
     0
 10
207.407
 20
53.8826
 30
0.0
 11
206.606
 21
53.8826
 31
0.0
  0
LINE
  8
0
 62
     0
 10
206.606
 20
53.8826
 30
0.0
 11
206.606
 21
50.7848
 31
0.0
  0
LINE
  8
0
 62
     0
 10
206.606
 20
50.7848
 30
0.0
 11
207.407
 21
50.7848
 31
0.0
  0
LINE
  8
0
 62
     0
 10
207.407
 20
50.7848
 30
0.0
 11
207.407
 21
44.9834
 31
0.0
  0
LINE
  8
0
 62
     0
 10
207.407
 20
44.9834
 30
0.0
 11
206.606
 21
44.9834
 31
0.0
  0
LINE
  8
0
 62
     0
 10
206.606
 20
44.9834
 30
0.0
 11
206.606
 21
41.8828
 31
0.0
  0
LINE
  8
0
 62
     0
 10
206.606
 20
41.8828
 30
0.0
 11
207.407
 21
41.8828
 31
0.0
  0
LINE
  8
0
 62
     0
 10
207.407
 20
41.8828
 30
0.0
 11
207.407
 21
40.8838
 31
0.0
  0
LINE
  8
0
 62
     0
 10
207.407
 20
40.8838
 30
0.0
 11
221.407
 21
40.8838
 31
0.0
  0
LINE
  8
0
 62
     0
 10
221.407
 20
40.8838
 30
0.0
 11
221.407
 21
41.8828
 31
0.0
  0
LINE
  8
0
 62
     0
 10
221.407
 20
41.8828
 30
0.0
 11
222.206
 21
41.8828
 31
0.0
  0
LINE
  8
0
 62
     0
 10
222.206
 20
41.8828
 30
0.0
 11
222.206
 21
44.9834
 31
0.0
  0
LINE
  8
0
 62
     0
 10
222.206
 20
44.9834
 30
0.0
 11
221.407
 21
44.9834
 31
0.0
  0
LINE
  8
0
 62
     0
 10
221.407
 20
44.9834
 30
0.0
 11
221.407
 21
50.7848
 31
0.0
  0
LINE
  8
0
 62
     0
 10
221.407
 20
50.7848
 30
0.0
 11
222.206
 21
50.7848
 31
0.0
  0
LINE
  8
0
 62
     0
 10
222.206
 20
50.7848
 30
0.0
 11
222.206
 21
53.8826
 31
0.0
  0
LINE
  8
0
 62
     0
 10
222.206
 20
53.8826
 30
0.0
 11
221.407
 21
53.8826
 31
0.0
  0
LINE
  8
0
 62
     0
 10
221.407
 20
53.8826
 30
0.0
 11
221.407
 21
54.8831
 31
0.0
  0
LINE
  8
0
 62
     0
 10
221.407
 20
54.8831
 30
0.0
 11
207.407
 21
54.8831
 31
0.0
  0
LINE
  8
0
 62
     0
 10
226.457
 20
54.8831
 30
0.0
 11
226.457
 21
53.8826
 31
0.0
  0
LINE
  8
0
 62
     0
 10
226.457
 20
53.8826
 30
0.0
 11
225.656
 21
53.8826
 31
0.0
  0
LINE
  8
0
 62
     0
 10
225.656
 20
53.8826
 30
0.0
 11
225.656
 21
50.7848
 31
0.0
  0
LINE
  8
0
 62
     0
 10
225.656
 20
50.7848
 30
0.0
 11
226.457
 21
50.7848
 31
0.0
  0
LINE
  8
0
 62
     0
 10
226.457
 20
50.7848
 30
0.0
 11
226.457
 21
44.9834
 31
0.0
  0
LINE
  8
0
 62
     0
 10
226.457
 20
44.9834
 30
0.0
 11
225.656
 21
44.9834
 31
0.0
  0
LINE
  8
0
 62
     0
 10
225.656
 20
44.9834
 30
0.0
 11
225.656
 21
41.8828
 31
0.0
  0
LINE
  8
0
 62
     0
 10
225.656
 20
41.8828
 30
0.0
 11
226.457
 21
41.8828
 31
0.0
  0
LINE
  8
0
 62
     0
 10
226.457
 20
41.8828
 30
0.0
 11
226.457
 21
40.8838
 31
0.0
  0
LINE
  8
0
 62
     0
 10
226.457
 20
40.8838
 30
0.0
 11
240.457
 21
40.8838
 31
0.0
  0
LINE
  8
0
 62
     0
 10
240.457
 20
40.8838
 30
0.0
 11
240.457
 21
41.8828
 31
0.0
  0
LINE
  8
0
 62
     0
 10
240.457
 20
41.8828
 30
0.0
 11
241.256
 21
41.8828
 31
0.0
  0
LINE
  8
0
 62
     0
 10
241.256
 20
41.8828
 30
0.0
 11
241.256
 21
44.9834
 31
0.0
  0
LINE
  8
0
 62
     0
 10
241.256
 20
44.9834
 30
0.0
 11
240.457
 21
44.9834
 31
0.0
  0
LINE
  8
0
 62
     0
 10
240.457
 20
44.9834
 30
0.0
 11
240.457
 21
50.7848
 31
0.0
  0
LINE
  8
0
 62
     0
 10
240.457
 20
50.7848
 30
0.0
 11
241.256
 21
50.7848
 31
0.0
  0
LINE
  8
0
 62
     0
 10
241.256
 20
50.7848
 30
0.0
 11
241.256
 21
53.8826
 31
0.0
  0
LINE
  8
0
 62
     0
 10
241.256
 20
53.8826
 30
0.0
 11
240.457
 21
53.8826
 31
0.0
  0
LINE
  8
0
 62
     0
 10
240.457
 20
53.8826
 30
0.0
 11
240.457
 21
54.8831
 31
0.0
  0
LINE
  8
0
 62
     0
 10
240.457
 20
54.8831
 30
0.0
 11
226.457
 21
54.8831
 31
0.0
  0
LINE
  8
0
 62
     0
 10
252.65
 20
54.8831
 30
0.0
 11
252.65
 21
53.8826
 31
0.0
  0
LINE
  8
0
 62
     0
 10
252.65
 20
53.8826
 30
0.0
 11
251.849
 21
53.8826
 31
0.0
  0
LINE
  8
0
 62
     0
 10
251.849
 20
53.8826
 30
0.0
 11
251.849
 21
50.7848
 31
0.0
  0
LINE
  8
0
 62
     0
 10
251.849
 20
50.7848
 30
0.0
 11
252.65
 21
50.7848
 31
0.0
  0
LINE
  8
0
 62
     0
 10
252.65
 20
50.7848
 30
0.0
 11
252.65
 21
44.9834
 31
0.0
  0
LINE
  8
0
 62
     0
 10
252.65
 20
44.9834
 30
0.0
 11
251.849
 21
44.9834
 31
0.0
  0
LINE
  8
0
 62
     0
 10
251.849
 20
44.9834
 30
0.0
 11
251.849
 21
41.8828
 31
0.0
  0
LINE
  8
0
 62
     0
 10
251.849
 20
41.8828
 30
0.0
 11
252.65
 21
41.8828
 31
0.0
  0
LINE
  8
0
 62
     0
 10
252.65
 20
41.8828
 30
0.0
 11
252.65
 21
40.8838
 31
0.0
  0
LINE
  8
0
 62
     0
 10
252.65
 20
40.8838
 30
0.0
 11
266.65
 21
40.8838
 31
0.0
  0
LINE
  8
0
 62
     0
 10
266.65
 20
40.8838
 30
0.0
 11
266.65
 21
41.8828
 31
0.0
  0
LINE
  8
0
 62
     0
 10
266.65
 20
41.8828
 30
0.0
 11
267.451
 21
41.8828
 31
0.0
  0
LINE
  8
0
 62
     0
 10
267.451
 20
41.8828
 30
0.0
 11
267.451
 21
44.9834
 31
0.0
  0
LINE
  8
0
 62
     0
 10
267.451
 20
44.9834
 30
0.0
 11
266.65
 21
44.9834
 31
0.0
  0
LINE
  8
0
 62
     0
 10
266.65
 20
44.9834
 30
0.0
 11
266.65
 21
50.7848
 31
0.0
  0
LINE
  8
0
 62
     0
 10
266.65
 20
50.7848
 30
0.0
 11
267.451
 21
50.7848
 31
0.0
  0
LINE
  8
0
 62
     0
 10
267.451
 20
50.7848
 30
0.0
 11
267.451
 21
53.8826
 31
0.0
  0
LINE
  8
0
 62
     0
 10
267.451
 20
53.8826
 30
0.0
 11
266.65
 21
53.8826
 31
0.0
  0
LINE
  8
0
 62
     0
 10
266.65
 20
53.8826
 30
0.0
 11
266.65
 21
54.8831
 31
0.0
  0
LINE
  8
0
 62
     0
 10
266.65
 20
54.8831
 30
0.0
 11
252.65
 21
54.8831
 31
0.0
  0
LINE
  8
0
 62
     0
 10
7.38216
 20
73.9331
 30
0.0
 11
7.38216
 21
72.9326
 31
0.0
  0
LINE
  8
0
 62
     0
 10
7.38216
 20
72.9326
 30
0.0
 11
6.58153
 21
72.9326
 31
0.0
  0
LINE
  8
0
 62
     0
 10
6.58153
 20
72.9326
 30
0.0
 11
6.58153
 21
69.8334
 31
0.0
  0
LINE
  8
0
 62
     0
 10
6.58153
 20
69.8334
 30
0.0
 11
7.38216
 21
69.8334
 31
0.0
  0
LINE
  8
0
 62
     0
 10
7.38216
 20
69.8334
 30
0.0
 11
7.38216
 21
64.0334
 31
0.0
  0
LINE
  8
0
 62
     0
 10
7.38216
 20
64.0334
 30
0.0
 11
6.58153
 21
64.0334
 31
0.0
  0
LINE
  8
0
 62
     0
 10
6.58153
 20
64.0334
 30
0.0
 11
6.58153
 21
60.9328
 31
0.0
  0
LINE
  8
0
 62
     0
 10
6.58153
 20
60.9328
 30
0.0
 11
7.38216
 21
60.9328
 31
0.0
  0
LINE
  8
0
 62
     0
 10
7.38216
 20
60.9328
 30
0.0
 11
7.38216
 21
59.9338
 31
0.0
  0
LINE
  8
0
 62
     0
 10
7.38216
 20
59.9338
 30
0.0
 11
21.3817
 21
59.9338
 31
0.0
  0
LINE
  8
0
 62
     0
 10
21.3817
 20
59.9338
 30
0.0
 11
21.3817
 21
60.9328
 31
0.0
  0
LINE
  8
0
 62
     0
 10
21.3817
 20
60.9328
 30
0.0
 11
22.1809
 21
60.9328
 31
0.0
  0
LINE
  8
0
 62
     0
 10
22.1809
 20
60.9328
 30
0.0
 11
22.1809
 21
64.0334
 31
0.0
  0
LINE
  8
0
 62
     0
 10
22.1809
 20
64.0334
 30
0.0
 11
21.3817
 21
64.0334
 31
0.0
  0
LINE
  8
0
 62
     0
 10
21.3817
 20
64.0334
 30
0.0
 11
21.3817
 21
69.8334
 31
0.0
  0
LINE
  8
0
 62
     0
 10
21.3817
 20
69.8334
 30
0.0
 11
22.1809
 21
69.8334
 31
0.0
  0
LINE
  8
0
 62
     0
 10
22.1809
 20
69.8334
 30
0.0
 11
22.1809
 21
72.9326
 31
0.0
  0
LINE
  8
0
 62
     0
 10
22.1809
 20
72.9326
 30
0.0
 11
21.3817
 21
72.9326
 31
0.0
  0
LINE
  8
0
 62
     0
 10
21.3817
 20
72.9326
 30
0.0
 11
21.3817
 21
73.9331
 31
0.0
  0
LINE
  8
0
 62
     0
 10
21.3817
 20
73.9331
 30
0.0
 11
7.38216
 21
73.9331
 31
0.0
  0
LINE
  8
0
 62
     0
 10
31.1947
 20
73.9331
 30
0.0
 11
31.1947
 21
72.9326
 31
0.0
  0
LINE
  8
0
 62
     0
 10
31.1947
 20
72.9326
 30
0.0
 11
30.394
 21
72.9326
 31
0.0
  0
LINE
  8
0
 62
     0
 10
30.394
 20
72.9326
 30
0.0
 11
30.394
 21
69.8334
 31
0.0
  0
LINE
  8
0
 62
     0
 10
30.394
 20
69.8334
 30
0.0
 11
31.1947
 21
69.8334
 31
0.0
  0
LINE
  8
0
 62
     0
 10
31.1947
 20
69.8334
 30
0.0
 11
31.1947
 21
64.0334
 31
0.0
  0
LINE
  8
0
 62
     0
 10
31.1947
 20
64.0334
 30
0.0
 11
30.394
 21
64.0334
 31
0.0
  0
LINE
  8
0
 62
     0
 10
30.394
 20
64.0334
 30
0.0
 11
30.394
 21
60.9328
 31
0.0
  0
LINE
  8
0
 62
     0
 10
30.394
 20
60.9328
 30
0.0
 11
31.1947
 21
60.9328
 31
0.0
  0
LINE
  8
0
 62
     0
 10
31.1947
 20
60.9328
 30
0.0
 11
31.1947
 21
59.9338
 31
0.0
  0
LINE
  8
0
 62
     0
 10
31.1947
 20
59.9338
 30
0.0
 11
45.194
 21
59.9338
 31
0.0
  0
LINE
  8
0
 62
     0
 10
45.194
 20
59.9338
 30
0.0
 11
45.194
 21
60.9328
 31
0.0
  0
LINE
  8
0
 62
     0
 10
45.194
 20
60.9328
 30
0.0
 11
45.9948
 21
60.9328
 31
0.0
  0
LINE
  8
0
 62
     0
 10
45.9948
 20
60.9328
 30
0.0
 11
45.9948
 21
64.0334
 31
0.0
  0
LINE
  8
0
 62
     0
 10
45.9948
 20
64.0334
 30
0.0
 11
45.194
 21
64.0334
 31
0.0
  0
LINE
  8
0
 62
     0
 10
45.194
 20
64.0334
 30
0.0
 11
45.194
 21
69.8334
 31
0.0
  0
LINE
  8
0
 62
     0
 10
45.194
 20
69.8334
 30
0.0
 11
45.9948
 21
69.8334
 31
0.0
  0
LINE
  8
0
 62
     0
 10
45.9948
 20
69.8334
 30
0.0
 11
45.9948
 21
72.9326
 31
0.0
  0
LINE
  8
0
 62
     0
 10
45.9948
 20
72.9326
 30
0.0
 11
45.194
 21
72.9326
 31
0.0
  0
LINE
  8
0
 62
     0
 10
45.194
 20
72.9326
 30
0.0
 11
45.194
 21
73.9331
 31
0.0
  0
LINE
  8
0
 62
     0
 10
45.194
 20
73.9331
 30
0.0
 11
31.1947
 21
73.9331
 31
0.0
  0
LINE
  8
0
 62
     0
 10
50.2447
 20
73.9331
 30
0.0
 11
50.2447
 21
72.9326
 31
0.0
  0
LINE
  8
0
 62
     0
 10
50.2447
 20
72.9326
 30
0.0
 11
49.4439
 21
72.9326
 31
0.0
  0
LINE
  8
0
 62
     0
 10
49.4439
 20
72.9326
 30
0.0
 11
49.4439
 21
69.8334
 31
0.0
  0
LINE
  8
0
 62
     0
 10
49.4439
 20
69.8334
 30
0.0
 11
50.2447
 21
69.8334
 31
0.0
  0
LINE
  8
0
 62
     0
 10
50.2447
 20
69.8334
 30
0.0
 11
50.2447
 21
64.0334
 31
0.0
  0
LINE
  8
0
 62
     0
 10
50.2447
 20
64.0334
 30
0.0
 11
49.4439
 21
64.0334
 31
0.0
  0
LINE
  8
0
 62
     0
 10
49.4439
 20
64.0334
 30
0.0
 11
49.4439
 21
60.9328
 31
0.0
  0
LINE
  8
0
 62
     0
 10
49.4439
 20
60.9328
 30
0.0
 11
50.2447
 21
60.9328
 31
0.0
  0
LINE
  8
0
 62
     0
 10
50.2447
 20
60.9328
 30
0.0
 11
50.2447
 21
59.9338
 31
0.0
  0
LINE
  8
0
 62
     0
 10
50.2447
 20
59.9338
 30
0.0
 11
64.244
 21
59.9338
 31
0.0
  0
LINE
  8
0
 62
     0
 10
64.244
 20
59.9338
 30
0.0
 11
64.244
 21
60.9328
 31
0.0
  0
LINE
  8
0
 62
     0
 10
64.244
 20
60.9328
 30
0.0
 11
65.0448
 21
60.9328
 31
0.0
  0
LINE
  8
0
 62
     0
 10
65.0448
 20
60.9328
 30
0.0
 11
65.0448
 21
64.0334
 31
0.0
  0
LINE
  8
0
 62
     0
 10
65.0448
 20
64.0334
 30
0.0
 11
64.244
 21
64.0334
 31
0.0
  0
LINE
  8
0
 62
     0
 10
64.244
 20
64.0334
 30
0.0
 11
64.244
 21
69.8334
 31
0.0
  0
LINE
  8
0
 62
     0
 10
64.244
 20
69.8334
 30
0.0
 11
65.0448
 21
69.8334
 31
0.0
  0
LINE
  8
0
 62
     0
 10
65.0448
 20
69.8334
 30
0.0
 11
65.0448
 21
72.9326
 31
0.0
  0
LINE
  8
0
 62
     0
 10
65.0448
 20
72.9326
 30
0.0
 11
64.244
 21
72.9326
 31
0.0
  0
LINE
  8
0
 62
     0
 10
64.244
 20
72.9326
 30
0.0
 11
64.244
 21
73.9331
 31
0.0
  0
LINE
  8
0
 62
     0
 10
64.244
 20
73.9331
 30
0.0
 11
50.2447
 21
73.9331
 31
0.0
  0
LINE
  8
0
 62
     0
 10
69.2947
 20
73.9331
 30
0.0
 11
69.2947
 21
72.9326
 31
0.0
  0
LINE
  8
0
 62
     0
 10
69.2947
 20
72.9326
 30
0.0
 11
68.4939
 21
72.9326
 31
0.0
  0
LINE
  8
0
 62
     0
 10
68.4939
 20
72.9326
 30
0.0
 11
68.4939
 21
69.8334
 31
0.0
  0
LINE
  8
0
 62
     0
 10
68.4939
 20
69.8334
 30
0.0
 11
69.2947
 21
69.8334
 31
0.0
  0
LINE
  8
0
 62
     0
 10
69.2947
 20
69.8334
 30
0.0
 11
69.2947
 21
64.0334
 31
0.0
  0
LINE
  8
0
 62
     0
 10
69.2947
 20
64.0334
 30
0.0
 11
68.4939
 21
64.0334
 31
0.0
  0
LINE
  8
0
 62
     0
 10
68.4939
 20
64.0334
 30
0.0
 11
68.4939
 21
60.9328
 31
0.0
  0
LINE
  8
0
 62
     0
 10
68.4939
 20
60.9328
 30
0.0
 11
69.2947
 21
60.9328
 31
0.0
  0
LINE
  8
0
 62
     0
 10
69.2947
 20
60.9328
 30
0.0
 11
69.2947
 21
59.9338
 31
0.0
  0
LINE
  8
0
 62
     0
 10
69.2947
 20
59.9338
 30
0.0
 11
83.294
 21
59.9338
 31
0.0
  0
LINE
  8
0
 62
     0
 10
83.294
 20
59.9338
 30
0.0
 11
83.294
 21
60.9328
 31
0.0
  0
LINE
  8
0
 62
     0
 10
83.294
 20
60.9328
 30
0.0
 11
84.0948
 21
60.9328
 31
0.0
  0
LINE
  8
0
 62
     0
 10
84.0948
 20
60.9328
 30
0.0
 11
84.0948
 21
64.0334
 31
0.0
  0
LINE
  8
0
 62
     0
 10
84.0948
 20
64.0334
 30
0.0
 11
83.294
 21
64.0334
 31
0.0
  0
LINE
  8
0
 62
     0
 10
83.294
 20
64.0334
 30
0.0
 11
83.294
 21
69.8334
 31
0.0
  0
LINE
  8
0
 62
     0
 10
83.294
 20
69.8334
 30
0.0
 11
84.0948
 21
69.8334
 31
0.0
  0
LINE
  8
0
 62
     0
 10
84.0948
 20
69.8334
 30
0.0
 11
84.0948
 21
72.9326
 31
0.0
  0
LINE
  8
0
 62
     0
 10
84.0948
 20
72.9326
 30
0.0
 11
83.294
 21
72.9326
 31
0.0
  0
LINE
  8
0
 62
     0
 10
83.294
 20
72.9326
 30
0.0
 11
83.294
 21
73.9331
 31
0.0
  0
LINE
  8
0
 62
     0
 10
83.294
 20
73.9331
 30
0.0
 11
69.2947
 21
73.9331
 31
0.0
  0
LINE
  8
0
 62
     0
 10
88.3447
 20
73.9331
 30
0.0
 11
88.3447
 21
72.9326
 31
0.0
  0
LINE
  8
0
 62
     0
 10
88.3447
 20
72.9326
 30
0.0
 11
87.5439
 21
72.9326
 31
0.0
  0
LINE
  8
0
 62
     0
 10
87.5439
 20
72.9326
 30
0.0
 11
87.5439
 21
69.8334
 31
0.0
  0
LINE
  8
0
 62
     0
 10
87.5439
 20
69.8334
 30
0.0
 11
88.3447
 21
69.8334
 31
0.0
  0
LINE
  8
0
 62
     0
 10
88.3447
 20
69.8334
 30
0.0
 11
88.3447
 21
64.0334
 31
0.0
  0
LINE
  8
0
 62
     0
 10
88.3447
 20
64.0334
 30
0.0
 11
87.5439
 21
64.0334
 31
0.0
  0
LINE
  8
0
 62
     0
 10
87.5439
 20
64.0334
 30
0.0
 11
87.5439
 21
60.9328
 31
0.0
  0
LINE
  8
0
 62
     0
 10
87.5439
 20
60.9328
 30
0.0
 11
88.3447
 21
60.9328
 31
0.0
  0
LINE
  8
0
 62
     0
 10
88.3447
 20
60.9328
 30
0.0
 11
88.3447
 21
59.9338
 31
0.0
  0
LINE
  8
0
 62
     0
 10
88.3447
 20
59.9338
 30
0.0
 11
102.344
 21
59.9338
 31
0.0
  0
LINE
  8
0
 62
     0
 10
102.344
 20
59.9338
 30
0.0
 11
102.344
 21
60.9328
 31
0.0
  0
LINE
  8
0
 62
     0
 10
102.344
 20
60.9328
 30
0.0
 11
103.145
 21
60.9328
 31
0.0
  0
LINE
  8
0
 62
     0
 10
103.145
 20
60.9328
 30
0.0
 11
103.145
 21
64.0334
 31
0.0
  0
LINE
  8
0
 62
     0
 10
103.145
 20
64.0334
 30
0.0
 11
102.344
 21
64.0334
 31
0.0
  0
LINE
  8
0
 62
     0
 10
102.344
 20
64.0334
 30
0.0
 11
102.344
 21
69.8334
 31
0.0
  0
LINE
  8
0
 62
     0
 10
102.344
 20
69.8334
 30
0.0
 11
103.145
 21
69.8334
 31
0.0
  0
LINE
  8
0
 62
     0
 10
103.145
 20
69.8334
 30
0.0
 11
103.145
 21
72.9326
 31
0.0
  0
LINE
  8
0
 62
     0
 10
103.145
 20
72.9326
 30
0.0
 11
102.344
 21
72.9326
 31
0.0
  0
LINE
  8
0
 62
     0
 10
102.344
 20
72.9326
 30
0.0
 11
102.344
 21
73.9331
 31
0.0
  0
LINE
  8
0
 62
     0
 10
102.344
 20
73.9331
 30
0.0
 11
88.3447
 21
73.9331
 31
0.0
  0
LINE
  8
0
 62
     0
 10
107.395
 20
73.9331
 30
0.0
 11
107.395
 21
72.9326
 31
0.0
  0
LINE
  8
0
 62
     0
 10
107.395
 20
72.9326
 30
0.0
 11
106.594
 21
72.9326
 31
0.0
  0
LINE
  8
0
 62
     0
 10
106.594
 20
72.9326
 30
0.0
 11
106.594
 21
69.8334
 31
0.0
  0
LINE
  8
0
 62
     0
 10
106.594
 20
69.8334
 30
0.0
 11
107.395
 21
69.8334
 31
0.0
  0
LINE
  8
0
 62
     0
 10
107.395
 20
69.8334
 30
0.0
 11
107.395
 21
64.0334
 31
0.0
  0
LINE
  8
0
 62
     0
 10
107.395
 20
64.0334
 30
0.0
 11
106.594
 21
64.0334
 31
0.0
  0
LINE
  8
0
 62
     0
 10
106.594
 20
64.0334
 30
0.0
 11
106.594
 21
60.9328
 31
0.0
  0
LINE
  8
0
 62
     0
 10
106.594
 20
60.9328
 30
0.0
 11
107.395
 21
60.9328
 31
0.0
  0
LINE
  8
0
 62
     0
 10
107.395
 20
60.9328
 30
0.0
 11
107.395
 21
59.9338
 31
0.0
  0
LINE
  8
0
 62
     0
 10
107.395
 20
59.9338
 30
0.0
 11
121.394
 21
59.9338
 31
0.0
  0
LINE
  8
0
 62
     0
 10
121.394
 20
59.9338
 30
0.0
 11
121.394
 21
60.9328
 31
0.0
  0
LINE
  8
0
 62
     0
 10
121.394
 20
60.9328
 30
0.0
 11
122.195
 21
60.9328
 31
0.0
  0
LINE
  8
0
 62
     0
 10
122.195
 20
60.9328
 30
0.0
 11
122.195
 21
64.0334
 31
0.0
  0
LINE
  8
0
 62
     0
 10
122.195
 20
64.0334
 30
0.0
 11
121.394
 21
64.0334
 31
0.0
  0
LINE
  8
0
 62
     0
 10
121.394
 20
64.0334
 30
0.0
 11
121.394
 21
69.8334
 31
0.0
  0
LINE
  8
0
 62
     0
 10
121.394
 20
69.8334
 30
0.0
 11
122.195
 21
69.8334
 31
0.0
  0
LINE
  8
0
 62
     0
 10
122.195
 20
69.8334
 30
0.0
 11
122.195
 21
72.9326
 31
0.0
  0
LINE
  8
0
 62
     0
 10
122.195
 20
72.9326
 30
0.0
 11
121.394
 21
72.9326
 31
0.0
  0
LINE
  8
0
 62
     0
 10
121.394
 20
72.9326
 30
0.0
 11
121.394
 21
73.9331
 31
0.0
  0
LINE
  8
0
 62
     0
 10
121.394
 20
73.9331
 30
0.0
 11
107.395
 21
73.9331
 31
0.0
  0
LINE
  8
0
 62
     0
 10
126.445
 20
73.9331
 30
0.0
 11
126.445
 21
72.9326
 31
0.0
  0
LINE
  8
0
 62
     0
 10
126.445
 20
72.9326
 30
0.0
 11
125.644
 21
72.9326
 31
0.0
  0
LINE
  8
0
 62
     0
 10
125.644
 20
72.9326
 30
0.0
 11
125.644
 21
69.8334
 31
0.0
  0
LINE
  8
0
 62
     0
 10
125.644
 20
69.8334
 30
0.0
 11
126.445
 21
69.8334
 31
0.0
  0
LINE
  8
0
 62
     0
 10
126.445
 20
69.8334
 30
0.0
 11
126.445
 21
64.0334
 31
0.0
  0
LINE
  8
0
 62
     0
 10
126.445
 20
64.0334
 30
0.0
 11
125.644
 21
64.0334
 31
0.0
  0
LINE
  8
0
 62
     0
 10
125.644
 20
64.0334
 30
0.0
 11
125.644
 21
60.9328
 31
0.0
  0
LINE
  8
0
 62
     0
 10
125.644
 20
60.9328
 30
0.0
 11
126.445
 21
60.9328
 31
0.0
  0
LINE
  8
0
 62
     0
 10
126.445
 20
60.9328
 30
0.0
 11
126.445
 21
59.9338
 31
0.0
  0
LINE
  8
0
 62
     0
 10
126.445
 20
59.9338
 30
0.0
 11
140.444
 21
59.9338
 31
0.0
  0
LINE
  8
0
 62
     0
 10
140.444
 20
59.9338
 30
0.0
 11
140.444
 21
60.9328
 31
0.0
  0
LINE
  8
0
 62
     0
 10
140.444
 20
60.9328
 30
0.0
 11
141.245
 21
60.9328
 31
0.0
  0
LINE
  8
0
 62
     0
 10
141.245
 20
60.9328
 30
0.0
 11
141.245
 21
64.0334
 31
0.0
  0
LINE
  8
0
 62
     0
 10
141.245
 20
64.0334
 30
0.0
 11
140.444
 21
64.0334
 31
0.0
  0
LINE
  8
0
 62
     0
 10
140.444
 20
64.0334
 30
0.0
 11
140.444
 21
69.8334
 31
0.0
  0
LINE
  8
0
 62
     0
 10
140.444
 20
69.8334
 30
0.0
 11
141.245
 21
69.8334
 31
0.0
  0
LINE
  8
0
 62
     0
 10
141.245
 20
69.8334
 30
0.0
 11
141.245
 21
72.9326
 31
0.0
  0
LINE
  8
0
 62
     0
 10
141.245
 20
72.9326
 30
0.0
 11
140.444
 21
72.9326
 31
0.0
  0
LINE
  8
0
 62
     0
 10
140.444
 20
72.9326
 30
0.0
 11
140.444
 21
73.9331
 31
0.0
  0
LINE
  8
0
 62
     0
 10
140.444
 20
73.9331
 30
0.0
 11
126.445
 21
73.9331
 31
0.0
  0
LINE
  8
0
 62
     0
 10
145.495
 20
73.9331
 30
0.0
 11
145.495
 21
72.9326
 31
0.0
  0
LINE
  8
0
 62
     0
 10
145.495
 20
72.9326
 30
0.0
 11
144.694
 21
72.9326
 31
0.0
  0
LINE
  8
0
 62
     0
 10
144.694
 20
72.9326
 30
0.0
 11
144.694
 21
69.8334
 31
0.0
  0
LINE
  8
0
 62
     0
 10
144.694
 20
69.8334
 30
0.0
 11
145.495
 21
69.8334
 31
0.0
  0
LINE
  8
0
 62
     0
 10
145.495
 20
69.8334
 30
0.0
 11
145.495
 21
64.0334
 31
0.0
  0
LINE
  8
0
 62
     0
 10
145.495
 20
64.0334
 30
0.0
 11
144.694
 21
64.0334
 31
0.0
  0
LINE
  8
0
 62
     0
 10
144.694
 20
64.0334
 30
0.0
 11
144.694
 21
60.9328
 31
0.0
  0
LINE
  8
0
 62
     0
 10
144.694
 20
60.9328
 30
0.0
 11
145.495
 21
60.9328
 31
0.0
  0
LINE
  8
0
 62
     0
 10
145.495
 20
60.9328
 30
0.0
 11
145.495
 21
59.9338
 31
0.0
  0
LINE
  8
0
 62
     0
 10
145.495
 20
59.9338
 30
0.0
 11
159.494
 21
59.9338
 31
0.0
  0
LINE
  8
0
 62
     0
 10
159.494
 20
59.9338
 30
0.0
 11
159.494
 21
60.9328
 31
0.0
  0
LINE
  8
0
 62
     0
 10
159.494
 20
60.9328
 30
0.0
 11
160.295
 21
60.9328
 31
0.0
  0
LINE
  8
0
 62
     0
 10
160.295
 20
60.9328
 30
0.0
 11
160.295
 21
64.0334
 31
0.0
  0
LINE
  8
0
 62
     0
 10
160.295
 20
64.0334
 30
0.0
 11
159.494
 21
64.0334
 31
0.0
  0
LINE
  8
0
 62
     0
 10
159.494
 20
64.0334
 30
0.0
 11
159.494
 21
69.8334
 31
0.0
  0
LINE
  8
0
 62
     0
 10
159.494
 20
69.8334
 30
0.0
 11
160.295
 21
69.8334
 31
0.0
  0
LINE
  8
0
 62
     0
 10
160.295
 20
69.8334
 30
0.0
 11
160.295
 21
72.9326
 31
0.0
  0
LINE
  8
0
 62
     0
 10
160.295
 20
72.9326
 30
0.0
 11
159.494
 21
72.9326
 31
0.0
  0
LINE
  8
0
 62
     0
 10
159.494
 20
72.9326
 30
0.0
 11
159.494
 21
73.9331
 31
0.0
  0
LINE
  8
0
 62
     0
 10
159.494
 20
73.9331
 30
0.0
 11
145.495
 21
73.9331
 31
0.0
  0
LINE
  8
0
 62
     0
 10
164.545
 20
73.9331
 30
0.0
 11
164.545
 21
72.9326
 31
0.0
  0
LINE
  8
0
 62
     0
 10
164.545
 20
72.9326
 30
0.0
 11
163.744
 21
72.9326
 31
0.0
  0
LINE
  8
0
 62
     0
 10
163.744
 20
72.9326
 30
0.0
 11
163.744
 21
69.8334
 31
0.0
  0
LINE
  8
0
 62
     0
 10
163.744
 20
69.8334
 30
0.0
 11
164.545
 21
69.8334
 31
0.0
  0
LINE
  8
0
 62
     0
 10
164.545
 20
69.8334
 30
0.0
 11
164.545
 21
64.0334
 31
0.0
  0
LINE
  8
0
 62
     0
 10
164.545
 20
64.0334
 30
0.0
 11
163.744
 21
64.0334
 31
0.0
  0
LINE
  8
0
 62
     0
 10
163.744
 20
64.0334
 30
0.0
 11
163.744
 21
60.9328
 31
0.0
  0
LINE
  8
0
 62
     0
 10
163.744
 20
60.9328
 30
0.0
 11
164.545
 21
60.9328
 31
0.0
  0
LINE
  8
0
 62
     0
 10
164.545
 20
60.9328
 30
0.0
 11
164.545
 21
59.9338
 31
0.0
  0
LINE
  8
0
 62
     0
 10
164.545
 20
59.9338
 30
0.0
 11
178.544
 21
59.9338
 31
0.0
  0
LINE
  8
0
 62
     0
 10
178.544
 20
59.9338
 30
0.0
 11
178.544
 21
60.9328
 31
0.0
  0
LINE
  8
0
 62
     0
 10
178.544
 20
60.9328
 30
0.0
 11
179.345
 21
60.9328
 31
0.0
  0
LINE
  8
0
 62
     0
 10
179.345
 20
60.9328
 30
0.0
 11
179.345
 21
64.0334
 31
0.0
  0
LINE
  8
0
 62
     0
 10
179.345
 20
64.0334
 30
0.0
 11
178.544
 21
64.0334
 31
0.0
  0
LINE
  8
0
 62
     0
 10
178.544
 20
64.0334
 30
0.0
 11
178.544
 21
69.8334
 31
0.0
  0
LINE
  8
0
 62
     0
 10
178.544
 20
69.8334
 30
0.0
 11
179.345
 21
69.8334
 31
0.0
  0
LINE
  8
0
 62
     0
 10
179.345
 20
69.8334
 30
0.0
 11
179.345
 21
72.9326
 31
0.0
  0
LINE
  8
0
 62
     0
 10
179.345
 20
72.9326
 30
0.0
 11
178.544
 21
72.9326
 31
0.0
  0
LINE
  8
0
 62
     0
 10
178.544
 20
72.9326
 30
0.0
 11
178.544
 21
73.9331
 31
0.0
  0
LINE
  8
0
 62
     0
 10
178.544
 20
73.9331
 30
0.0
 11
164.545
 21
73.9331
 31
0.0
  0
LINE
  8
0
 62
     0
 10
183.595
 20
73.9331
 30
0.0
 11
183.595
 21
72.9326
 31
0.0
  0
LINE
  8
0
 62
     0
 10
183.595
 20
72.9326
 30
0.0
 11
182.794
 21
72.9326
 31
0.0
  0
LINE
  8
0
 62
     0
 10
182.794
 20
72.9326
 30
0.0
 11
182.794
 21
69.8334
 31
0.0
  0
LINE
  8
0
 62
     0
 10
182.794
 20
69.8334
 30
0.0
 11
183.595
 21
69.8334
 31
0.0
  0
LINE
  8
0
 62
     0
 10
183.595
 20
69.8334
 30
0.0
 11
183.595
 21
64.0334
 31
0.0
  0
LINE
  8
0
 62
     0
 10
183.595
 20
64.0334
 30
0.0
 11
182.794
 21
64.0334
 31
0.0
  0
LINE
  8
0
 62
     0
 10
182.794
 20
64.0334
 30
0.0
 11
182.794
 21
60.9328
 31
0.0
  0
LINE
  8
0
 62
     0
 10
182.794
 20
60.9328
 30
0.0
 11
183.595
 21
60.9328
 31
0.0
  0
LINE
  8
0
 62
     0
 10
183.595
 20
60.9328
 30
0.0
 11
183.595
 21
59.9338
 31
0.0
  0
LINE
  8
0
 62
     0
 10
183.595
 20
59.9338
 30
0.0
 11
197.594
 21
59.9338
 31
0.0
  0
LINE
  8
0
 62
     0
 10
197.594
 20
59.9338
 30
0.0
 11
197.594
 21
60.9328
 31
0.0
  0
LINE
  8
0
 62
     0
 10
197.594
 20
60.9328
 30
0.0
 11
198.395
 21
60.9328
 31
0.0
  0
LINE
  8
0
 62
     0
 10
198.395
 20
60.9328
 30
0.0
 11
198.395
 21
64.0334
 31
0.0
  0
LINE
  8
0
 62
     0
 10
198.395
 20
64.0334
 30
0.0
 11
197.594
 21
64.0334
 31
0.0
  0
LINE
  8
0
 62
     0
 10
197.594
 20
64.0334
 30
0.0
 11
197.594
 21
69.8334
 31
0.0
  0
LINE
  8
0
 62
     0
 10
197.594
 20
69.8334
 30
0.0
 11
198.395
 21
69.8334
 31
0.0
  0
LINE
  8
0
 62
     0
 10
198.395
 20
69.8334
 30
0.0
 11
198.395
 21
72.9326
 31
0.0
  0
LINE
  8
0
 62
     0
 10
198.395
 20
72.9326
 30
0.0
 11
197.594
 21
72.9326
 31
0.0
  0
LINE
  8
0
 62
     0
 10
197.594
 20
72.9326
 30
0.0
 11
197.594
 21
73.9331
 31
0.0
  0
LINE
  8
0
 62
     0
 10
197.594
 20
73.9331
 30
0.0
 11
183.595
 21
73.9331
 31
0.0
  0
LINE
  8
0
 62
     0
 10
202.645
 20
73.9331
 30
0.0
 11
202.645
 21
72.9326
 31
0.0
  0
LINE
  8
0
 62
     0
 10
202.645
 20
72.9326
 30
0.0
 11
201.844
 21
72.9326
 31
0.0
  0
LINE
  8
0
 62
     0
 10
201.844
 20
72.9326
 30
0.0
 11
201.844
 21
69.8334
 31
0.0
  0
LINE
  8
0
 62
     0
 10
201.844
 20
69.8334
 30
0.0
 11
202.645
 21
69.8334
 31
0.0
  0
LINE
  8
0
 62
     0
 10
202.645
 20
69.8334
 30
0.0
 11
202.645
 21
64.0334
 31
0.0
  0
LINE
  8
0
 62
     0
 10
202.645
 20
64.0334
 30
0.0
 11
201.844
 21
64.0334
 31
0.0
  0
LINE
  8
0
 62
     0
 10
201.844
 20
64.0334
 30
0.0
 11
201.844
 21
60.9328
 31
0.0
  0
LINE
  8
0
 62
     0
 10
201.844
 20
60.9328
 30
0.0
 11
202.645
 21
60.9328
 31
0.0
  0
LINE
  8
0
 62
     0
 10
202.645
 20
60.9328
 30
0.0
 11
202.645
 21
59.9338
 31
0.0
  0
LINE
  8
0
 62
     0
 10
202.645
 20
59.9338
 30
0.0
 11
216.644
 21
59.9338
 31
0.0
  0
LINE
  8
0
 62
     0
 10
216.644
 20
59.9338
 30
0.0
 11
216.644
 21
60.9328
 31
0.0
  0
LINE
  8
0
 62
     0
 10
216.644
 20
60.9328
 30
0.0
 11
217.445
 21
60.9328
 31
0.0
  0
LINE
  8
0
 62
     0
 10
217.445
 20
60.9328
 30
0.0
 11
217.445
 21
64.0334
 31
0.0
  0
LINE
  8
0
 62
     0
 10
217.445
 20
64.0334
 30
0.0
 11
216.644
 21
64.0334
 31
0.0
  0
LINE
  8
0
 62
     0
 10
216.644
 20
64.0334
 30
0.0
 11
216.644
 21
69.8334
 31
0.0
  0
LINE
  8
0
 62
     0
 10
216.644
 20
69.8334
 30
0.0
 11
217.445
 21
69.8334
 31
0.0
  0
LINE
  8
0
 62
     0
 10
217.445
 20
69.8334
 30
0.0
 11
217.445
 21
72.9326
 31
0.0
  0
LINE
  8
0
 62
     0
 10
217.445
 20
72.9326
 30
0.0
 11
216.644
 21
72.9326
 31
0.0
  0
LINE
  8
0
 62
     0
 10
216.644
 20
72.9326
 30
0.0
 11
216.644
 21
73.9331
 31
0.0
  0
LINE
  8
0
 62
     0
 10
216.644
 20
73.9331
 30
0.0
 11
202.645
 21
73.9331
 31
0.0
  0
LINE
  8
0
 62
     0
 10
221.695
 20
73.9331
 30
0.0
 11
221.695
 21
72.9326
 31
0.0
  0
LINE
  8
0
 62
     0
 10
221.695
 20
72.9326
 30
0.0
 11
220.894
 21
72.9326
 31
0.0
  0
LINE
  8
0
 62
     0
 10
220.894
 20
72.9326
 30
0.0
 11
220.894
 21
69.8334
 31
0.0
  0
LINE
  8
0
 62
     0
 10
220.894
 20
69.8334
 30
0.0
 11
221.695
 21
69.8334
 31
0.0
  0
LINE
  8
0
 62
     0
 10
221.695
 20
69.8334
 30
0.0
 11
221.695
 21
64.0334
 31
0.0
  0
LINE
  8
0
 62
     0
 10
221.695
 20
64.0334
 30
0.0
 11
220.894
 21
64.0334
 31
0.0
  0
LINE
  8
0
 62
     0
 10
220.894
 20
64.0334
 30
0.0
 11
220.894
 21
60.9328
 31
0.0
  0
LINE
  8
0
 62
     0
 10
220.894
 20
60.9328
 30
0.0
 11
221.695
 21
60.9328
 31
0.0
  0
LINE
  8
0
 62
     0
 10
221.695
 20
60.9328
 30
0.0
 11
221.695
 21
59.9338
 31
0.0
  0
LINE
  8
0
 62
     0
 10
221.695
 20
59.9338
 30
0.0
 11
235.694
 21
59.9338
 31
0.0
  0
LINE
  8
0
 62
     0
 10
235.694
 20
59.9338
 30
0.0
 11
235.694
 21
60.9328
 31
0.0
  0
LINE
  8
0
 62
     0
 10
235.694
 20
60.9328
 30
0.0
 11
236.495
 21
60.9328
 31
0.0
  0
LINE
  8
0
 62
     0
 10
236.495
 20
60.9328
 30
0.0
 11
236.495
 21
64.0334
 31
0.0
  0
LINE
  8
0
 62
     0
 10
236.495
 20
64.0334
 30
0.0
 11
235.694
 21
64.0334
 31
0.0
  0
LINE
  8
0
 62
     0
 10
235.694
 20
64.0334
 30
0.0
 11
235.694
 21
69.8334
 31
0.0
  0
LINE
  8
0
 62
     0
 10
235.694
 20
69.8334
 30
0.0
 11
236.495
 21
69.8334
 31
0.0
  0
LINE
  8
0
 62
     0
 10
236.495
 20
69.8334
 30
0.0
 11
236.495
 21
72.9326
 31
0.0
  0
LINE
  8
0
 62
     0
 10
236.495
 20
72.9326
 30
0.0
 11
235.694
 21
72.9326
 31
0.0
  0
LINE
  8
0
 62
     0
 10
235.694
 20
72.9326
 30
0.0
 11
235.694
 21
73.9331
 31
0.0
  0
LINE
  8
0
 62
     0
 10
235.694
 20
73.9331
 30
0.0
 11
221.695
 21
73.9331
 31
0.0
  0
LINE
  8
0
 62
     0
 10
240.745
 20
73.9331
 30
0.0
 11
240.745
 21
72.9326
 31
0.0
  0
LINE
  8
0
 62
     0
 10
240.745
 20
72.9326
 30
0.0
 11
239.944
 21
72.9326
 31
0.0
  0
LINE
  8
0
 62
     0
 10
239.944
 20
72.9326
 30
0.0
 11
239.944
 21
69.8334
 31
0.0
  0
LINE
  8
0
 62
     0
 10
239.944
 20
69.8334
 30
0.0
 11
240.745
 21
69.8334
 31
0.0
  0
LINE
  8
0
 62
     0
 10
240.745
 20
69.8334
 30
0.0
 11
240.745
 21
64.0334
 31
0.0
  0
LINE
  8
0
 62
     0
 10
240.745
 20
64.0334
 30
0.0
 11
239.944
 21
64.0334
 31
0.0
  0
LINE
  8
0
 62
     0
 10
239.944
 20
64.0334
 30
0.0
 11
239.944
 21
60.9328
 31
0.0
  0
LINE
  8
0
 62
     0
 10
239.944
 20
60.9328
 30
0.0
 11
240.745
 21
60.9328
 31
0.0
  0
LINE
  8
0
 62
     0
 10
240.745
 20
60.9328
 30
0.0
 11
240.745
 21
59.9338
 31
0.0
  0
LINE
  8
0
 62
     0
 10
240.745
 20
59.9338
 30
0.0
 11
254.744
 21
59.9338
 31
0.0
  0
LINE
  8
0
 62
     0
 10
254.744
 20
59.9338
 30
0.0
 11
254.744
 21
60.9328
 31
0.0
  0
LINE
  8
0
 62
     0
 10
254.744
 20
60.9328
 30
0.0
 11
255.545
 21
60.9328
 31
0.0
  0
LINE
  8
0
 62
     0
 10
255.545
 20
60.9328
 30
0.0
 11
255.545
 21
64.0334
 31
0.0
  0
LINE
  8
0
 62
     0
 10
255.545
 20
64.0334
 30
0.0
 11
254.744
 21
64.0334
 31
0.0
  0
LINE
  8
0
 62
     0
 10
254.744
 20
64.0334
 30
0.0
 11
254.744
 21
69.8334
 31
0.0
  0
LINE
  8
0
 62
     0
 10
254.744
 20
69.8334
 30
0.0
 11
255.545
 21
69.8334
 31
0.0
  0
LINE
  8
0
 62
     0
 10
255.545
 20
69.8334
 30
0.0
 11
255.545
 21
72.9326
 31
0.0
  0
LINE
  8
0
 62
     0
 10
255.545
 20
72.9326
 30
0.0
 11
254.744
 21
72.9326
 31
0.0
  0
LINE
  8
0
 62
     0
 10
254.744
 20
72.9326
 30
0.0
 11
254.744
 21
73.9331
 31
0.0
  0
LINE
  8
0
 62
     0
 10
254.744
 20
73.9331
 30
0.0
 11
240.745
 21
73.9331
 31
0.0
  0
LINE
  8
0
 62
     0
 10
259.795
 20
73.9331
 30
0.0
 11
259.795
 21
72.9326
 31
0.0
  0
LINE
  8
0
 62
     0
 10
259.795
 20
72.9326
 30
0.0
 11
258.994
 21
72.9326
 31
0.0
  0
LINE
  8
0
 62
     0
 10
258.994
 20
72.9326
 30
0.0
 11
258.994
 21
69.8334
 31
0.0
  0
LINE
  8
0
 62
     0
 10
258.994
 20
69.8334
 30
0.0
 11
259.795
 21
69.8334
 31
0.0
  0
LINE
  8
0
 62
     0
 10
259.795
 20
69.8334
 30
0.0
 11
259.795
 21
64.0334
 31
0.0
  0
LINE
  8
0
 62
     0
 10
259.795
 20
64.0334
 30
0.0
 11
258.994
 21
64.0334
 31
0.0
  0
LINE
  8
0
 62
     0
 10
258.994
 20
64.0334
 30
0.0
 11
258.994
 21
60.9328
 31
0.0
  0
LINE
  8
0
 62
     0
 10
258.994
 20
60.9328
 30
0.0
 11
259.795
 21
60.9328
 31
0.0
  0
LINE
  8
0
 62
     0
 10
259.795
 20
60.9328
 30
0.0
 11
259.795
 21
59.9338
 31
0.0
  0
LINE
  8
0
 62
     0
 10
259.795
 20
59.9338
 30
0.0
 11
273.794
 21
59.9338
 31
0.0
  0
LINE
  8
0
 62
     0
 10
273.794
 20
59.9338
 30
0.0
 11
273.794
 21
60.9328
 31
0.0
  0
LINE
  8
0
 62
     0
 10
273.794
 20
60.9328
 30
0.0
 11
274.595
 21
60.9328
 31
0.0
  0
LINE
  8
0
 62
     0
 10
274.595
 20
60.9328
 30
0.0
 11
274.595
 21
64.0334
 31
0.0
  0
LINE
  8
0
 62
     0
 10
274.595
 20
64.0334
 30
0.0
 11
273.794
 21
64.0334
 31
0.0
  0
LINE
  8
0
 62
     0
 10
273.794
 20
64.0334
 30
0.0
 11
273.794
 21
69.8334
 31
0.0
  0
LINE
  8
0
 62
     0
 10
273.794
 20
69.8334
 30
0.0
 11
274.595
 21
69.8334
 31
0.0
  0
LINE
  8
0
 62
     0
 10
274.595
 20
69.8334
 30
0.0
 11
274.595
 21
72.9326
 31
0.0
  0
LINE
  8
0
 62
     0
 10
274.595
 20
72.9326
 30
0.0
 11
273.794
 21
72.9326
 31
0.0
  0
LINE
  8
0
 62
     0
 10
273.794
 20
72.9326
 30
0.0
 11
273.794
 21
73.9331
 31
0.0
  0
LINE
  8
0
 62
     0
 10
273.794
 20
73.9331
 30
0.0
 11
259.795
 21
73.9331
 31
0.0
  0
LINE
  8
0
 62
     0
 10
2.61965
 20
92.9831
 30
0.0
 11
2.61965
 21
91.9826
 31
0.0
  0
LINE
  8
0
 62
     0
 10
2.61965
 20
91.9826
 30
0.0
 11
1.81901
 21
91.9826
 31
0.0
  0
LINE
  8
0
 62
     0
 10
1.81901
 20
91.9826
 30
0.0
 11
1.81901
 21
88.8834
 31
0.0
  0
LINE
  8
0
 62
     0
 10
1.81901
 20
88.8834
 30
0.0
 11
2.61965
 21
88.8834
 31
0.0
  0
LINE
  8
0
 62
     0
 10
2.61965
 20
88.8834
 30
0.0
 11
2.61965
 21
83.0834
 31
0.0
  0
LINE
  8
0
 62
     0
 10
2.61965
 20
83.0834
 30
0.0
 11
1.81901
 21
83.0834
 31
0.0
  0
LINE
  8
0
 62
     0
 10
1.81901
 20
83.0834
 30
0.0
 11
1.81901
 21
79.9828
 31
0.0
  0
LINE
  8
0
 62
     0
 10
1.81901
 20
79.9828
 30
0.0
 11
2.61965
 21
79.9828
 31
0.0
  0
LINE
  8
0
 62
     0
 10
2.61965
 20
79.9828
 30
0.0
 11
2.61965
 21
78.9838
 31
0.0
  0
LINE
  8
0
 62
     0
 10
2.61965
 20
78.9838
 30
0.0
 11
16.6192
 21
78.9838
 31
0.0
  0
LINE
  8
0
 62
     0
 10
16.6192
 20
78.9838
 30
0.0
 11
16.6192
 21
79.9828
 31
0.0
  0
LINE
  8
0
 62
     0
 10
16.6192
 20
79.9828
 30
0.0
 11
17.4198
 21
79.9828
 31
0.0
  0
LINE
  8
0
 62
     0
 10
17.4198
 20
79.9828
 30
0.0
 11
17.4198
 21
83.0834
 31
0.0
  0
LINE
  8
0
 62
     0
 10
17.4198
 20
83.0834
 30
0.0
 11
16.6192
 21
83.0834
 31
0.0
  0
LINE
  8
0
 62
     0
 10
16.6192
 20
83.0834
 30
0.0
 11
16.6192
 21
88.8834
 31
0.0
  0
LINE
  8
0
 62
     0
 10
16.6192
 20
88.8834
 30
0.0
 11
17.4198
 21
88.8834
 31
0.0
  0
LINE
  8
0
 62
     0
 10
17.4198
 20
88.8834
 30
0.0
 11
17.4198
 21
91.9826
 31
0.0
  0
LINE
  8
0
 62
     0
 10
17.4198
 20
91.9826
 30
0.0
 11
16.6192
 21
91.9826
 31
0.0
  0
LINE
  8
0
 62
     0
 10
16.6192
 20
91.9826
 30
0.0
 11
16.6192
 21
92.9831
 31
0.0
  0
LINE
  8
0
 62
     0
 10
16.6192
 20
92.9831
 30
0.0
 11
2.61965
 21
92.9831
 31
0.0
  0
LINE
  8
0
 62
     0
 10
21.6697
 20
92.9831
 30
0.0
 11
21.6697
 21
91.9826
 31
0.0
  0
LINE
  8
0
 62
     0
 10
21.6697
 20
91.9826
 30
0.0
 11
20.869
 21
91.9826
 31
0.0
  0
LINE
  8
0
 62
     0
 10
20.869
 20
91.9826
 30
0.0
 11
20.869
 21
88.8834
 31
0.0
  0
LINE
  8
0
 62
     0
 10
20.869
 20
88.8834
 30
0.0
 11
21.6697
 21
88.8834
 31
0.0
  0
LINE
  8
0
 62
     0
 10
21.6697
 20
88.8834
 30
0.0
 11
21.6697
 21
83.0834
 31
0.0
  0
LINE
  8
0
 62
     0
 10
21.6697
 20
83.0834
 30
0.0
 11
20.869
 21
83.0834
 31
0.0
  0
LINE
  8
0
 62
     0
 10
20.869
 20
83.0834
 30
0.0
 11
20.869
 21
79.9828
 31
0.0
  0
LINE
  8
0
 62
     0
 10
20.869
 20
79.9828
 30
0.0
 11
21.6697
 21
79.9828
 31
0.0
  0
LINE
  8
0
 62
     0
 10
21.6697
 20
79.9828
 30
0.0
 11
21.6697
 21
78.9838
 31
0.0
  0
LINE
  8
0
 62
     0
 10
21.6697
 20
78.9838
 30
0.0
 11
35.669
 21
78.9838
 31
0.0
  0
LINE
  8
0
 62
     0
 10
35.669
 20
78.9838
 30
0.0
 11
35.669
 21
79.9828
 31
0.0
  0
LINE
  8
0
 62
     0
 10
35.669
 20
79.9828
 30
0.0
 11
36.4698
 21
79.9828
 31
0.0
  0
LINE
  8
0
 62
     0
 10
36.4698
 20
79.9828
 30
0.0
 11
36.4698
 21
83.0834
 31
0.0
  0
LINE
  8
0
 62
     0
 10
36.4698
 20
83.0834
 30
0.0
 11
35.669
 21
83.0834
 31
0.0
  0
LINE
  8
0
 62
     0
 10
35.669
 20
83.0834
 30
0.0
 11
35.669
 21
88.8834
 31
0.0
  0
LINE
  8
0
 62
     0
 10
35.669
 20
88.8834
 30
0.0
 11
36.4698
 21
88.8834
 31
0.0
  0
LINE
  8
0
 62
     0
 10
36.4698
 20
88.8834
 30
0.0
 11
36.4698
 21
91.9826
 31
0.0
  0
LINE
  8
0
 62
     0
 10
36.4698
 20
91.9826
 30
0.0
 11
35.669
 21
91.9826
 31
0.0
  0
LINE
  8
0
 62
     0
 10
35.669
 20
91.9826
 30
0.0
 11
35.669
 21
92.9831
 31
0.0
  0
LINE
  8
0
 62
     0
 10
35.669
 20
92.9831
 30
0.0
 11
21.6697
 21
92.9831
 31
0.0
  0
LINE
  8
0
 62
     0
 10
40.7197
 20
92.9831
 30
0.0
 11
40.7197
 21
91.9826
 31
0.0
  0
LINE
  8
0
 62
     0
 10
40.7197
 20
91.9826
 30
0.0
 11
39.9189
 21
91.9826
 31
0.0
  0
LINE
  8
0
 62
     0
 10
39.9189
 20
91.9826
 30
0.0
 11
39.9189
 21
88.8834
 31
0.0
  0
LINE
  8
0
 62
     0
 10
39.9189
 20
88.8834
 30
0.0
 11
40.7197
 21
88.8834
 31
0.0
  0
LINE
  8
0
 62
     0
 10
40.7197
 20
88.8834
 30
0.0
 11
40.7197
 21
83.0834
 31
0.0
  0
LINE
  8
0
 62
     0
 10
40.7197
 20
83.0834
 30
0.0
 11
39.9189
 21
83.0834
 31
0.0
  0
LINE
  8
0
 62
     0
 10
39.9189
 20
83.0834
 30
0.0
 11
39.9189
 21
79.9828
 31
0.0
  0
LINE
  8
0
 62
     0
 10
39.9189
 20
79.9828
 30
0.0
 11
40.7197
 21
79.9828
 31
0.0
  0
LINE
  8
0
 62
     0
 10
40.7197
 20
79.9828
 30
0.0
 11
40.7197
 21
78.9838
 31
0.0
  0
LINE
  8
0
 62
     0
 10
40.7197
 20
78.9838
 30
0.0
 11
54.719
 21
78.9838
 31
0.0
  0
LINE
  8
0
 62
     0
 10
54.719
 20
78.9838
 30
0.0
 11
54.719
 21
79.9828
 31
0.0
  0
LINE
  8
0
 62
     0
 10
54.719
 20
79.9828
 30
0.0
 11
55.5198
 21
79.9828
 31
0.0
  0
LINE
  8
0
 62
     0
 10
55.5198
 20
79.9828
 30
0.0
 11
55.5198
 21
83.0834
 31
0.0
  0
LINE
  8
0
 62
     0
 10
55.5198
 20
83.0834
 30
0.0
 11
54.719
 21
83.0834
 31
0.0
  0
LINE
  8
0
 62
     0
 10
54.719
 20
83.0834
 30
0.0
 11
54.719
 21
88.8834
 31
0.0
  0
LINE
  8
0
 62
     0
 10
54.719
 20
88.8834
 30
0.0
 11
55.5198
 21
88.8834
 31
0.0
  0
LINE
  8
0
 62
     0
 10
55.5198
 20
88.8834
 30
0.0
 11
55.5198
 21
91.9826
 31
0.0
  0
LINE
  8
0
 62
     0
 10
55.5198
 20
91.9826
 30
0.0
 11
54.719
 21
91.9826
 31
0.0
  0
LINE
  8
0
 62
     0
 10
54.719
 20
91.9826
 30
0.0
 11
54.719
 21
92.9831
 31
0.0
  0
LINE
  8
0
 62
     0
 10
54.719
 20
92.9831
 30
0.0
 11
40.7197
 21
92.9831
 31
0.0
  0
LINE
  8
0
 62
     0
 10
59.7697
 20
92.9831
 30
0.0
 11
59.7697
 21
91.9826
 31
0.0
  0
LINE
  8
0
 62
     0
 10
59.7697
 20
91.9826
 30
0.0
 11
58.9689
 21
91.9826
 31
0.0
  0
LINE
  8
0
 62
     0
 10
58.9689
 20
91.9826
 30
0.0
 11
58.9689
 21
88.8834
 31
0.0
  0
LINE
  8
0
 62
     0
 10
58.9689
 20
88.8834
 30
0.0
 11
59.7697
 21
88.8834
 31
0.0
  0
LINE
  8
0
 62
     0
 10
59.7697
 20
88.8834
 30
0.0
 11
59.7697
 21
83.0834
 31
0.0
  0
LINE
  8
0
 62
     0
 10
59.7697
 20
83.0834
 30
0.0
 11
58.9689
 21
83.0834
 31
0.0
  0
LINE
  8
0
 62
     0
 10
58.9689
 20
83.0834
 30
0.0
 11
58.9689
 21
79.9828
 31
0.0
  0
LINE
  8
0
 62
     0
 10
58.9689
 20
79.9828
 30
0.0
 11
59.7697
 21
79.9828
 31
0.0
  0
LINE
  8
0
 62
     0
 10
59.7697
 20
79.9828
 30
0.0
 11
59.7697
 21
78.9838
 31
0.0
  0
LINE
  8
0
 62
     0
 10
59.7697
 20
78.9838
 30
0.0
 11
73.769
 21
78.9838
 31
0.0
  0
LINE
  8
0
 62
     0
 10
73.769
 20
78.9838
 30
0.0
 11
73.769
 21
79.9828
 31
0.0
  0
LINE
  8
0
 62
     0
 10
73.769
 20
79.9828
 30
0.0
 11
74.5698
 21
79.9828
 31
0.0
  0
LINE
  8
0
 62
     0
 10
74.5698
 20
79.9828
 30
0.0
 11
74.5698
 21
83.0834
 31
0.0
  0
LINE
  8
0
 62
     0
 10
74.5698
 20
83.0834
 30
0.0
 11
73.769
 21
83.0834
 31
0.0
  0
LINE
  8
0
 62
     0
 10
73.769
 20
83.0834
 30
0.0
 11
73.769
 21
88.8834
 31
0.0
  0
LINE
  8
0
 62
     0
 10
73.769
 20
88.8834
 30
0.0
 11
74.5698
 21
88.8834
 31
0.0
  0
LINE
  8
0
 62
     0
 10
74.5698
 20
88.8834
 30
0.0
 11
74.5698
 21
91.9826
 31
0.0
  0
LINE
  8
0
 62
     0
 10
74.5698
 20
91.9826
 30
0.0
 11
73.769
 21
91.9826
 31
0.0
  0
LINE
  8
0
 62
     0
 10
73.769
 20
91.9826
 30
0.0
 11
73.769
 21
92.9831
 31
0.0
  0
LINE
  8
0
 62
     0
 10
73.769
 20
92.9831
 30
0.0
 11
59.7697
 21
92.9831
 31
0.0
  0
LINE
  8
0
 62
     0
 10
78.8197
 20
92.9831
 30
0.0
 11
78.8197
 21
91.9826
 31
0.0
  0
LINE
  8
0
 62
     0
 10
78.8197
 20
91.9826
 30
0.0
 11
78.0189
 21
91.9826
 31
0.0
  0
LINE
  8
0
 62
     0
 10
78.0189
 20
91.9826
 30
0.0
 11
78.0189
 21
88.8834
 31
0.0
  0
LINE
  8
0
 62
     0
 10
78.0189
 20
88.8834
 30
0.0
 11
78.8197
 21
88.8834
 31
0.0
  0
LINE
  8
0
 62
     0
 10
78.8197
 20
88.8834
 30
0.0
 11
78.8197
 21
83.0834
 31
0.0
  0
LINE
  8
0
 62
     0
 10
78.8197
 20
83.0834
 30
0.0
 11
78.0189
 21
83.0834
 31
0.0
  0
LINE
  8
0
 62
     0
 10
78.0189
 20
83.0834
 30
0.0
 11
78.0189
 21
79.9828
 31
0.0
  0
LINE
  8
0
 62
     0
 10
78.0189
 20
79.9828
 30
0.0
 11
78.8197
 21
79.9828
 31
0.0
  0
LINE
  8
0
 62
     0
 10
78.8197
 20
79.9828
 30
0.0
 11
78.8197
 21
78.9838
 31
0.0
  0
LINE
  8
0
 62
     0
 10
78.8197
 20
78.9838
 30
0.0
 11
92.819
 21
78.9838
 31
0.0
  0
LINE
  8
0
 62
     0
 10
92.819
 20
78.9838
 30
0.0
 11
92.819
 21
79.9828
 31
0.0
  0
LINE
  8
0
 62
     0
 10
92.819
 20
79.9828
 30
0.0
 11
93.6184
 21
79.9828
 31
0.0
  0
LINE
  8
0
 62
     0
 10
93.6184
 20
79.9828
 30
0.0
 11
93.6184
 21
83.0834
 31
0.0
  0
LINE
  8
0
 62
     0
 10
93.6184
 20
83.0834
 30
0.0
 11
92.819
 21
83.0834
 31
0.0
  0
LINE
  8
0
 62
     0
 10
92.819
 20
83.0834
 30
0.0
 11
92.819
 21
88.8834
 31
0.0
  0
LINE
  8
0
 62
     0
 10
92.819
 20
88.8834
 30
0.0
 11
93.6184
 21
88.8834
 31
0.0
  0
LINE
  8
0
 62
     0
 10
93.6184
 20
88.8834
 30
0.0
 11
93.6184
 21
91.9826
 31
0.0
  0
LINE
  8
0
 62
     0
 10
93.6184
 20
91.9826
 30
0.0
 11
92.819
 21
91.9826
 31
0.0
  0
LINE
  8
0
 62
     0
 10
92.819
 20
91.9826
 30
0.0
 11
92.819
 21
92.9831
 31
0.0
  0
LINE
  8
0
 62
     0
 10
92.819
 20
92.9831
 30
0.0
 11
78.8197
 21
92.9831
 31
0.0
  0
LINE
  8
0
 62
     0
 10
97.8683
 20
92.9831
 30
0.0
 11
97.8683
 21
91.9826
 31
0.0
  0
LINE
  8
0
 62
     0
 10
97.8683
 20
91.9826
 30
0.0
 11
97.0689
 21
91.9826
 31
0.0
  0
LINE
  8
0
 62
     0
 10
97.0689
 20
91.9826
 30
0.0
 11
97.0689
 21
88.8834
 31
0.0
  0
LINE
  8
0
 62
     0
 10
97.0689
 20
88.8834
 30
0.0
 11
97.8683
 21
88.8834
 31
0.0
  0
LINE
  8
0
 62
     0
 10
97.8683
 20
88.8834
 30
0.0
 11
97.8683
 21
83.0834
 31
0.0
  0
LINE
  8
0
 62
     0
 10
97.8683
 20
83.0834
 30
0.0
 11
97.0689
 21
83.0834
 31
0.0
  0
LINE
  8
0
 62
     0
 10
97.0689
 20
83.0834
 30
0.0
 11
97.0689
 21
79.9828
 31
0.0
  0
LINE
  8
0
 62
     0
 10
97.0689
 20
79.9828
 30
0.0
 11
97.8683
 21
79.9828
 31
0.0
  0
LINE
  8
0
 62
     0
 10
97.8683
 20
79.9828
 30
0.0
 11
97.8683
 21
78.9838
 31
0.0
  0
LINE
  8
0
 62
     0
 10
97.8683
 20
78.9838
 30
0.0
 11
111.869
 21
78.9838
 31
0.0
  0
LINE
  8
0
 62
     0
 10
111.869
 20
78.9838
 30
0.0
 11
111.869
 21
79.9828
 31
0.0
  0
LINE
  8
0
 62
     0
 10
111.869
 20
79.9828
 30
0.0
 11
112.668
 21
79.9828
 31
0.0
  0
LINE
  8
0
 62
     0
 10
112.668
 20
79.9828
 30
0.0
 11
112.668
 21
83.0834
 31
0.0
  0
LINE
  8
0
 62
     0
 10
112.668
 20
83.0834
 30
0.0
 11
111.869
 21
83.0834
 31
0.0
  0
LINE
  8
0
 62
     0
 10
111.869
 20
83.0834
 30
0.0
 11
111.869
 21
88.8834
 31
0.0
  0
LINE
  8
0
 62
     0
 10
111.869
 20
88.8834
 30
0.0
 11
112.668
 21
88.8834
 31
0.0
  0
LINE
  8
0
 62
     0
 10
112.668
 20
88.8834
 30
0.0
 11
112.668
 21
91.9826
 31
0.0
  0
LINE
  8
0
 62
     0
 10
112.668
 20
91.9826
 30
0.0
 11
111.869
 21
91.9826
 31
0.0
  0
LINE
  8
0
 62
     0
 10
111.869
 20
91.9826
 30
0.0
 11
111.869
 21
92.9831
 31
0.0
  0
LINE
  8
0
 62
     0
 10
111.869
 20
92.9831
 30
0.0
 11
97.8683
 21
92.9831
 31
0.0
  0
LINE
  8
0
 62
     0
 10
116.918
 20
92.9831
 30
0.0
 11
116.918
 21
91.9826
 31
0.0
  0
LINE
  8
0
 62
     0
 10
116.918
 20
91.9826
 30
0.0
 11
116.119
 21
91.9826
 31
0.0
  0
LINE
  8
0
 62
     0
 10
116.119
 20
91.9826
 30
0.0
 11
116.119
 21
88.8834
 31
0.0
  0
LINE
  8
0
 62
     0
 10
116.119
 20
88.8834
 30
0.0
 11
116.918
 21
88.8834
 31
0.0
  0
LINE
  8
0
 62
     0
 10
116.918
 20
88.8834
 30
0.0
 11
116.918
 21
83.0834
 31
0.0
  0
LINE
  8
0
 62
     0
 10
116.918
 20
83.0834
 30
0.0
 11
116.119
 21
83.0834
 31
0.0
  0
LINE
  8
0
 62
     0
 10
116.119
 20
83.0834
 30
0.0
 11
116.119
 21
79.9828
 31
0.0
  0
LINE
  8
0
 62
     0
 10
116.119
 20
79.9828
 30
0.0
 11
116.918
 21
79.9828
 31
0.0
  0
LINE
  8
0
 62
     0
 10
116.918
 20
79.9828
 30
0.0
 11
116.918
 21
78.9838
 31
0.0
  0
LINE
  8
0
 62
     0
 10
116.918
 20
78.9838
 30
0.0
 11
130.919
 21
78.9838
 31
0.0
  0
LINE
  8
0
 62
     0
 10
130.919
 20
78.9838
 30
0.0
 11
130.919
 21
79.9828
 31
0.0
  0
LINE
  8
0
 62
     0
 10
130.919
 20
79.9828
 30
0.0
 11
131.72
 21
79.9828
 31
0.0
  0
LINE
  8
0
 62
     0
 10
131.72
 20
79.9828
 30
0.0
 11
131.72
 21
83.0834
 31
0.0
  0
LINE
  8
0
 62
     0
 10
131.72
 20
83.0834
 30
0.0
 11
130.919
 21
83.0834
 31
0.0
  0
LINE
  8
0
 62
     0
 10
130.919
 20
83.0834
 30
0.0
 11
130.919
 21
88.8834
 31
0.0
  0
LINE
  8
0
 62
     0
 10
130.919
 20
88.8834
 30
0.0
 11
131.72
 21
88.8834
 31
0.0
  0
LINE
  8
0
 62
     0
 10
131.72
 20
88.8834
 30
0.0
 11
131.72
 21
91.9826
 31
0.0
  0
LINE
  8
0
 62
     0
 10
131.72
 20
91.9826
 30
0.0
 11
130.919
 21
91.9826
 31
0.0
  0
LINE
  8
0
 62
     0
 10
130.919
 20
91.9826
 30
0.0
 11
130.919
 21
92.9831
 31
0.0
  0
LINE
  8
0
 62
     0
 10
130.919
 20
92.9831
 30
0.0
 11
116.918
 21
92.9831
 31
0.0
  0
LINE
  8
0
 62
     0
 10
135.97
 20
92.9831
 30
0.0
 11
135.97
 21
91.9826
 31
0.0
  0
LINE
  8
0
 62
     0
 10
135.97
 20
91.9826
 30
0.0
 11
135.169
 21
91.9826
 31
0.0
  0
LINE
  8
0
 62
     0
 10
135.169
 20
91.9826
 30
0.0
 11
135.169
 21
88.8834
 31
0.0
  0
LINE
  8
0
 62
     0
 10
135.169
 20
88.8834
 30
0.0
 11
135.97
 21
88.8834
 31
0.0
  0
LINE
  8
0
 62
     0
 10
135.97
 20
88.8834
 30
0.0
 11
135.97
 21
83.0834
 31
0.0
  0
LINE
  8
0
 62
     0
 10
135.97
 20
83.0834
 30
0.0
 11
135.169
 21
83.0834
 31
0.0
  0
LINE
  8
0
 62
     0
 10
135.169
 20
83.0834
 30
0.0
 11
135.169
 21
79.9828
 31
0.0
  0
LINE
  8
0
 62
     0
 10
135.169
 20
79.9828
 30
0.0
 11
135.97
 21
79.9828
 31
0.0
  0
LINE
  8
0
 62
     0
 10
135.97
 20
79.9828
 30
0.0
 11
135.97
 21
78.9838
 31
0.0
  0
LINE
  8
0
 62
     0
 10
135.97
 20
78.9838
 30
0.0
 11
149.969
 21
78.9838
 31
0.0
  0
LINE
  8
0
 62
     0
 10
149.969
 20
78.9838
 30
0.0
 11
149.969
 21
79.9828
 31
0.0
  0
LINE
  8
0
 62
     0
 10
149.969
 20
79.9828
 30
0.0
 11
150.77
 21
79.9828
 31
0.0
  0
LINE
  8
0
 62
     0
 10
150.77
 20
79.9828
 30
0.0
 11
150.77
 21
83.0834
 31
0.0
  0
LINE
  8
0
 62
     0
 10
150.77
 20
83.0834
 30
0.0
 11
149.969
 21
83.0834
 31
0.0
  0
LINE
  8
0
 62
     0
 10
149.969
 20
83.0834
 30
0.0
 11
149.969
 21
88.8834
 31
0.0
  0
LINE
  8
0
 62
     0
 10
149.969
 20
88.8834
 30
0.0
 11
150.77
 21
88.8834
 31
0.0
  0
LINE
  8
0
 62
     0
 10
150.77
 20
88.8834
 30
0.0
 11
150.77
 21
91.9826
 31
0.0
  0
LINE
  8
0
 62
     0
 10
150.77
 20
91.9826
 30
0.0
 11
149.969
 21
91.9826
 31
0.0
  0
LINE
  8
0
 62
     0
 10
149.969
 20
91.9826
 30
0.0
 11
149.969
 21
92.9831
 31
0.0
  0
LINE
  8
0
 62
     0
 10
149.969
 20
92.9831
 30
0.0
 11
135.97
 21
92.9831
 31
0.0
  0
LINE
  8
0
 62
     0
 10
155.02
 20
92.9831
 30
0.0
 11
155.02
 21
91.9826
 31
0.0
  0
LINE
  8
0
 62
     0
 10
155.02
 20
91.9826
 30
0.0
 11
154.219
 21
91.9826
 31
0.0
  0
LINE
  8
0
 62
     0
 10
154.219
 20
91.9826
 30
0.0
 11
154.219
 21
88.8834
 31
0.0
  0
LINE
  8
0
 62
     0
 10
154.219
 20
88.8834
 30
0.0
 11
155.02
 21
88.8834
 31
0.0
  0
LINE
  8
0
 62
     0
 10
155.02
 20
88.8834
 30
0.0
 11
155.02
 21
83.0834
 31
0.0
  0
LINE
  8
0
 62
     0
 10
155.02
 20
83.0834
 30
0.0
 11
154.219
 21
83.0834
 31
0.0
  0
LINE
  8
0
 62
     0
 10
154.219
 20
83.0834
 30
0.0
 11
154.219
 21
79.9828
 31
0.0
  0
LINE
  8
0
 62
     0
 10
154.219
 20
79.9828
 30
0.0
 11
155.02
 21
79.9828
 31
0.0
  0
LINE
  8
0
 62
     0
 10
155.02
 20
79.9828
 30
0.0
 11
155.02
 21
78.9838
 31
0.0
  0
LINE
  8
0
 62
     0
 10
155.02
 20
78.9838
 30
0.0
 11
169.019
 21
78.9838
 31
0.0
  0
LINE
  8
0
 62
     0
 10
169.019
 20
78.9838
 30
0.0
 11
169.019
 21
79.9828
 31
0.0
  0
LINE
  8
0
 62
     0
 10
169.019
 20
79.9828
 30
0.0
 11
169.82
 21
79.9828
 31
0.0
  0
LINE
  8
0
 62
     0
 10
169.82
 20
79.9828
 30
0.0
 11
169.82
 21
83.0834
 31
0.0
  0
LINE
  8
0
 62
     0
 10
169.82
 20
83.0834
 30
0.0
 11
169.019
 21
83.0834
 31
0.0
  0
LINE
  8
0
 62
     0
 10
169.019
 20
83.0834
 30
0.0
 11
169.019
 21
88.8834
 31
0.0
  0
LINE
  8
0
 62
     0
 10
169.019
 20
88.8834
 30
0.0
 11
169.82
 21
88.8834
 31
0.0
  0
LINE
  8
0
 62
     0
 10
169.82
 20
88.8834
 30
0.0
 11
169.82
 21
91.9826
 31
0.0
  0
LINE
  8
0
 62
     0
 10
169.82
 20
91.9826
 30
0.0
 11
169.019
 21
91.9826
 31
0.0
  0
LINE
  8
0
 62
     0
 10
169.019
 20
91.9826
 30
0.0
 11
169.019
 21
92.9831
 31
0.0
  0
LINE
  8
0
 62
     0
 10
169.019
 20
92.9831
 30
0.0
 11
155.02
 21
92.9831
 31
0.0
  0
LINE
  8
0
 62
     0
 10
174.07
 20
92.9831
 30
0.0
 11
174.07
 21
91.9826
 31
0.0
  0
LINE
  8
0
 62
     0
 10
174.07
 20
91.9826
 30
0.0
 11
173.269
 21
91.9826
 31
0.0
  0
LINE
  8
0
 62
     0
 10
173.269
 20
91.9826
 30
0.0
 11
173.269
 21
88.8834
 31
0.0
  0
LINE
  8
0
 62
     0
 10
173.269
 20
88.8834
 30
0.0
 11
174.07
 21
88.8834
 31
0.0
  0
LINE
  8
0
 62
     0
 10
174.07
 20
88.8834
 30
0.0
 11
174.07
 21
83.0834
 31
0.0
  0
LINE
  8
0
 62
     0
 10
174.07
 20
83.0834
 30
0.0
 11
173.269
 21
83.0834
 31
0.0
  0
LINE
  8
0
 62
     0
 10
173.269
 20
83.0834
 30
0.0
 11
173.269
 21
79.9828
 31
0.0
  0
LINE
  8
0
 62
     0
 10
173.269
 20
79.9828
 30
0.0
 11
174.07
 21
79.9828
 31
0.0
  0
LINE
  8
0
 62
     0
 10
174.07
 20
79.9828
 30
0.0
 11
174.07
 21
78.9838
 31
0.0
  0
LINE
  8
0
 62
     0
 10
174.07
 20
78.9838
 30
0.0
 11
188.069
 21
78.9838
 31
0.0
  0
LINE
  8
0
 62
     0
 10
188.069
 20
78.9838
 30
0.0
 11
188.069
 21
79.9828
 31
0.0
  0
LINE
  8
0
 62
     0
 10
188.069
 20
79.9828
 30
0.0
 11
188.87
 21
79.9828
 31
0.0
  0
LINE
  8
0
 62
     0
 10
188.87
 20
79.9828
 30
0.0
 11
188.87
 21
83.0834
 31
0.0
  0
LINE
  8
0
 62
     0
 10
188.87
 20
83.0834
 30
0.0
 11
188.069
 21
83.0834
 31
0.0
  0
LINE
  8
0
 62
     0
 10
188.069
 20
83.0834
 30
0.0
 11
188.069
 21
88.8834
 31
0.0
  0
LINE
  8
0
 62
     0
 10
188.069
 20
88.8834
 30
0.0
 11
188.87
 21
88.8834
 31
0.0
  0
LINE
  8
0
 62
     0
 10
188.87
 20
88.8834
 30
0.0
 11
188.87
 21
91.9826
 31
0.0
  0
LINE
  8
0
 62
     0
 10
188.87
 20
91.9826
 30
0.0
 11
188.069
 21
91.9826
 31
0.0
  0
LINE
  8
0
 62
     0
 10
188.069
 20
91.9826
 30
0.0
 11
188.069
 21
92.9831
 31
0.0
  0
LINE
  8
0
 62
     0
 10
188.069
 20
92.9831
 30
0.0
 11
174.07
 21
92.9831
 31
0.0
  0
LINE
  8
0
 62
     0
 10
193.12
 20
92.9831
 30
0.0
 11
193.12
 21
91.9826
 31
0.0
  0
LINE
  8
0
 62
     0
 10
193.12
 20
91.9826
 30
0.0
 11
192.319
 21
91.9826
 31
0.0
  0
LINE
  8
0
 62
     0
 10
192.319
 20
91.9826
 30
0.0
 11
192.319
 21
88.8834
 31
0.0
  0
LINE
  8
0
 62
     0
 10
192.319
 20
88.8834
 30
0.0
 11
193.12
 21
88.8834
 31
0.0
  0
LINE
  8
0
 62
     0
 10
193.12
 20
88.8834
 30
0.0
 11
193.12
 21
83.0834
 31
0.0
  0
LINE
  8
0
 62
     0
 10
193.12
 20
83.0834
 30
0.0
 11
192.319
 21
83.0834
 31
0.0
  0
LINE
  8
0
 62
     0
 10
192.319
 20
83.0834
 30
0.0
 11
192.319
 21
79.9828
 31
0.0
  0
LINE
  8
0
 62
     0
 10
192.319
 20
79.9828
 30
0.0
 11
193.12
 21
79.9828
 31
0.0
  0
LINE
  8
0
 62
     0
 10
193.12
 20
79.9828
 30
0.0
 11
193.12
 21
78.9838
 31
0.0
  0
LINE
  8
0
 62
     0
 10
193.12
 20
78.9838
 30
0.0
 11
207.119
 21
78.9838
 31
0.0
  0
LINE
  8
0
 62
     0
 10
207.119
 20
78.9838
 30
0.0
 11
207.119
 21
79.9828
 31
0.0
  0
LINE
  8
0
 62
     0
 10
207.119
 20
79.9828
 30
0.0
 11
207.92
 21
79.9828
 31
0.0
  0
LINE
  8
0
 62
     0
 10
207.92
 20
79.9828
 30
0.0
 11
207.92
 21
83.0834
 31
0.0
  0
LINE
  8
0
 62
     0
 10
207.92
 20
83.0834
 30
0.0
 11
207.119
 21
83.0834
 31
0.0
  0
LINE
  8
0
 62
     0
 10
207.119
 20
83.0834
 30
0.0
 11
207.119
 21
88.8834
 31
0.0
  0
LINE
  8
0
 62
     0
 10
207.119
 20
88.8834
 30
0.0
 11
207.92
 21
88.8834
 31
0.0
  0
LINE
  8
0
 62
     0
 10
207.92
 20
88.8834
 30
0.0
 11
207.92
 21
91.9826
 31
0.0
  0
LINE
  8
0
 62
     0
 10
207.92
 20
91.9826
 30
0.0
 11
207.119
 21
91.9826
 31
0.0
  0
LINE
  8
0
 62
     0
 10
207.119
 20
91.9826
 30
0.0
 11
207.119
 21
92.9831
 31
0.0
  0
LINE
  8
0
 62
     0
 10
207.119
 20
92.9831
 30
0.0
 11
193.12
 21
92.9831
 31
0.0
  0
LINE
  8
0
 62
     0
 10
212.17
 20
92.9831
 30
0.0
 11
212.17
 21
91.9826
 31
0.0
  0
LINE
  8
0
 62
     0
 10
212.17
 20
91.9826
 30
0.0
 11
211.369
 21
91.9826
 31
0.0
  0
LINE
  8
0
 62
     0
 10
211.369
 20
91.9826
 30
0.0
 11
211.369
 21
88.8834
 31
0.0
  0
LINE
  8
0
 62
     0
 10
211.369
 20
88.8834
 30
0.0
 11
212.17
 21
88.8834
 31
0.0
  0
LINE
  8
0
 62
     0
 10
212.17
 20
88.8834
 30
0.0
 11
212.17
 21
83.0834
 31
0.0
  0
LINE
  8
0
 62
     0
 10
212.17
 20
83.0834
 30
0.0
 11
211.369
 21
83.0834
 31
0.0
  0
LINE
  8
0
 62
     0
 10
211.369
 20
83.0834
 30
0.0
 11
211.369
 21
79.9828
 31
0.0
  0
LINE
  8
0
 62
     0
 10
211.369
 20
79.9828
 30
0.0
 11
212.17
 21
79.9828
 31
0.0
  0
LINE
  8
0
 62
     0
 10
212.17
 20
79.9828
 30
0.0
 11
212.17
 21
78.9838
 31
0.0
  0
LINE
  8
0
 62
     0
 10
212.17
 20
78.9838
 30
0.0
 11
226.169
 21
78.9838
 31
0.0
  0
LINE
  8
0
 62
     0
 10
226.169
 20
78.9838
 30
0.0
 11
226.169
 21
79.9828
 31
0.0
  0
LINE
  8
0
 62
     0
 10
226.169
 20
79.9828
 30
0.0
 11
226.97
 21
79.9828
 31
0.0
  0
LINE
  8
0
 62
     0
 10
226.97
 20
79.9828
 30
0.0
 11
226.97
 21
83.0834
 31
0.0
  0
LINE
  8
0
 62
     0
 10
226.97
 20
83.0834
 30
0.0
 11
226.169
 21
83.0834
 31
0.0
  0
LINE
  8
0
 62
     0
 10
226.169
 20
83.0834
 30
0.0
 11
226.169
 21
88.8834
 31
0.0
  0
LINE
  8
0
 62
     0
 10
226.169
 20
88.8834
 30
0.0
 11
226.97
 21
88.8834
 31
0.0
  0
LINE
  8
0
 62
     0
 10
226.97
 20
88.8834
 30
0.0
 11
226.97
 21
91.9826
 31
0.0
  0
LINE
  8
0
 62
     0
 10
226.97
 20
91.9826
 30
0.0
 11
226.169
 21
91.9826
 31
0.0
  0
LINE
  8
0
 62
     0
 10
226.169
 20
91.9826
 30
0.0
 11
226.169
 21
92.9831
 31
0.0
  0
LINE
  8
0
 62
     0
 10
226.169
 20
92.9831
 30
0.0
 11
212.17
 21
92.9831
 31
0.0
  0
LINE
  8
0
 62
     0
 10
231.22
 20
92.9831
 30
0.0
 11
231.22
 21
91.9826
 31
0.0
  0
LINE
  8
0
 62
     0
 10
231.22
 20
91.9826
 30
0.0
 11
230.419
 21
91.9826
 31
0.0
  0
LINE
  8
0
 62
     0
 10
230.419
 20
91.9826
 30
0.0
 11
230.419
 21
88.8834
 31
0.0
  0
LINE
  8
0
 62
     0
 10
230.419
 20
88.8834
 30
0.0
 11
231.22
 21
88.8834
 31
0.0
  0
LINE
  8
0
 62
     0
 10
231.22
 20
88.8834
 30
0.0
 11
231.22
 21
83.0834
 31
0.0
  0
LINE
  8
0
 62
     0
 10
231.22
 20
83.0834
 30
0.0
 11
230.419
 21
83.0834
 31
0.0
  0
LINE
  8
0
 62
     0
 10
230.419
 20
83.0834
 30
0.0
 11
230.419
 21
79.9828
 31
0.0
  0
LINE
  8
0
 62
     0
 10
230.419
 20
79.9828
 30
0.0
 11
231.22
 21
79.9828
 31
0.0
  0
LINE
  8
0
 62
     0
 10
231.22
 20
79.9828
 30
0.0
 11
231.22
 21
78.9838
 31
0.0
  0
LINE
  8
0
 62
     0
 10
231.22
 20
78.9838
 30
0.0
 11
245.219
 21
78.9838
 31
0.0
  0
LINE
  8
0
 62
     0
 10
245.219
 20
78.9838
 30
0.0
 11
245.219
 21
79.9828
 31
0.0
  0
LINE
  8
0
 62
     0
 10
245.219
 20
79.9828
 30
0.0
 11
246.02
 21
79.9828
 31
0.0
  0
LINE
  8
0
 62
     0
 10
246.02
 20
79.9828
 30
0.0
 11
246.02
 21
83.0834
 31
0.0
  0
LINE
  8
0
 62
     0
 10
246.02
 20
83.0834
 30
0.0
 11
245.219
 21
83.0834
 31
0.0
  0
LINE
  8
0
 62
     0
 10
245.219
 20
83.0834
 30
0.0
 11
245.219
 21
88.8834
 31
0.0
  0
LINE
  8
0
 62
     0
 10
245.219
 20
88.8834
 30
0.0
 11
246.02
 21
88.8834
 31
0.0
  0
LINE
  8
0
 62
     0
 10
246.02
 20
88.8834
 30
0.0
 11
246.02
 21
91.9826
 31
0.0
  0
LINE
  8
0
 62
     0
 10
246.02
 20
91.9826
 30
0.0
 11
245.219
 21
91.9826
 31
0.0
  0
LINE
  8
0
 62
     0
 10
245.219
 20
91.9826
 30
0.0
 11
245.219
 21
92.9831
 31
0.0
  0
LINE
  8
0
 62
     0
 10
245.219
 20
92.9831
 30
0.0
 11
231.22
 21
92.9831
 31
0.0
  0
LINE
  8
0
 62
     0
 10
255.032
 20
92.9831
 30
0.0
 11
255.032
 21
91.9826
 31
0.0
  0
LINE
  8
0
 62
     0
 10
255.032
 20
91.9826
 30
0.0
 11
254.231
 21
91.9826
 31
0.0
  0
LINE
  8
0
 62
     0
 10
254.231
 20
91.9826
 30
0.0
 11
254.231
 21
88.8834
 31
0.0
  0
LINE
  8
0
 62
     0
 10
254.231
 20
88.8834
 30
0.0
 11
255.032
 21
88.8834
 31
0.0
  0
LINE
  8
0
 62
     0
 10
255.032
 20
88.8834
 30
0.0
 11
255.032
 21
83.0834
 31
0.0
  0
LINE
  8
0
 62
     0
 10
255.032
 20
83.0834
 30
0.0
 11
254.231
 21
83.0834
 31
0.0
  0
LINE
  8
0
 62
     0
 10
254.231
 20
83.0834
 30
0.0
 11
254.231
 21
79.9828
 31
0.0
  0
LINE
  8
0
 62
     0
 10
254.231
 20
79.9828
 30
0.0
 11
255.032
 21
79.9828
 31
0.0
  0
LINE
  8
0
 62
     0
 10
255.032
 20
79.9828
 30
0.0
 11
255.032
 21
78.9838
 31
0.0
  0
LINE
  8
0
 62
     0
 10
255.032
 20
78.9838
 30
0.0
 11
269.032
 21
78.9838
 31
0.0
  0
LINE
  8
0
 62
     0
 10
269.032
 20
78.9838
 30
0.0
 11
269.032
 21
79.9828
 31
0.0
  0
LINE
  8
0
 62
     0
 10
269.032
 20
79.9828
 30
0.0
 11
269.831
 21
79.9828
 31
0.0
  0
LINE
  8
0
 62
     0
 10
269.831
 20
79.9828
 30
0.0
 11
269.831
 21
83.0834
 31
0.0
  0
LINE
  8
0
 62
     0
 10
269.831
 20
83.0834
 30
0.0
 11
269.032
 21
83.0834
 31
0.0
  0
LINE
  8
0
 62
     0
 10
269.032
 20
83.0834
 30
0.0
 11
269.032
 21
88.8834
 31
0.0
  0
LINE
  8
0
 62
     0
 10
269.032
 20
88.8834
 30
0.0
 11
269.831
 21
88.8834
 31
0.0
  0
LINE
  8
0
 62
     0
 10
269.831
 20
88.8834
 30
0.0
 11
269.831
 21
91.9826
 31
0.0
  0
LINE
  8
0
 62
     0
 10
269.831
 20
91.9826
 30
0.0
 11
269.032
 21
91.9826
 31
0.0
  0
LINE
  8
0
 62
     0
 10
269.032
 20
91.9826
 30
0.0
 11
269.032
 21
92.9831
 31
0.0
  0
LINE
  8
0
 62
     0
 10
269.032
 20
92.9831
 30
0.0
 11
255.032
 21
92.9831
 31
0.0
  0
LINE
  8
0
 62
     0
 10
7.38216
 20
112.033
 30
0.0
 11
7.38216
 21
111.033
 31
0.0
  0
LINE
  8
0
 62
     0
 10
7.38216
 20
111.033
 30
0.0
 11
6.58153
 21
111.033
 31
0.0
  0
LINE
  8
0
 62
     0
 10
6.58153
 20
111.033
 30
0.0
 11
6.58153
 21
107.933
 31
0.0
  0
LINE
  8
0
 62
     0
 10
6.58153
 20
107.933
 30
0.0
 11
7.38216
 21
107.933
 31
0.0
  0
LINE
  8
0
 62
     0
 10
7.38216
 20
107.933
 30
0.0
 11
7.38216
 21
102.133
 31
0.0
  0
LINE
  8
0
 62
     0
 10
7.38216
 20
102.133
 30
0.0
 11
6.58153
 21
102.133
 31
0.0
  0
LINE
  8
0
 62
     0
 10
6.58153
 20
102.133
 30
0.0
 11
6.58153
 21
99.0328
 31
0.0
  0
LINE
  8
0
 62
     0
 10
6.58153
 20
99.0328
 30
0.0
 11
7.38216
 21
99.0328
 31
0.0
  0
LINE
  8
0
 62
     0
 10
7.38216
 20
99.0328
 30
0.0
 11
7.38216
 21
98.0338
 31
0.0
  0
LINE
  8
0
 62
     0
 10
7.38216
 20
98.0338
 30
0.0
 11
21.3817
 21
98.0338
 31
0.0
  0
LINE
  8
0
 62
     0
 10
21.3817
 20
98.0338
 30
0.0
 11
21.3817
 21
99.0328
 31
0.0
  0
LINE
  8
0
 62
     0
 10
21.3817
 20
99.0328
 30
0.0
 11
22.1809
 21
99.0328
 31
0.0
  0
LINE
  8
0
 62
     0
 10
22.1809
 20
99.0328
 30
0.0
 11
22.1809
 21
102.133
 31
0.0
  0
LINE
  8
0
 62
     0
 10
22.1809
 20
102.133
 30
0.0
 11
21.3817
 21
102.133
 31
0.0
  0
LINE
  8
0
 62
     0
 10
21.3817
 20
102.133
 30
0.0
 11
21.3817
 21
107.933
 31
0.0
  0
LINE
  8
0
 62
     0
 10
21.3817
 20
107.933
 30
0.0
 11
22.1809
 21
107.933
 31
0.0
  0
LINE
  8
0
 62
     0
 10
22.1809
 20
107.933
 30
0.0
 11
22.1809
 21
111.033
 31
0.0
  0
LINE
  8
0
 62
     0
 10
22.1809
 20
111.033
 30
0.0
 11
21.3817
 21
111.033
 31
0.0
  0
LINE
  8
0
 62
     0
 10
21.3817
 20
111.033
 30
0.0
 11
21.3817
 21
112.033
 31
0.0
  0
LINE
  8
0
 62
     0
 10
21.3817
 20
112.033
 30
0.0
 11
7.38216
 21
112.033
 31
0.0
  0
LINE
  8
0
 62
     0
 10
31.1947
 20
112.033
 30
0.0
 11
31.1947
 21
111.033
 31
0.0
  0
LINE
  8
0
 62
     0
 10
31.1947
 20
111.033
 30
0.0
 11
30.394
 21
111.033
 31
0.0
  0
LINE
  8
0
 62
     0
 10
30.394
 20
111.033
 30
0.0
 11
30.394
 21
107.933
 31
0.0
  0
LINE
  8
0
 62
     0
 10
30.394
 20
107.933
 30
0.0
 11
31.1947
 21
107.933
 31
0.0
  0
LINE
  8
0
 62
     0
 10
31.1947
 20
107.933
 30
0.0
 11
31.1947
 21
102.133
 31
0.0
  0
LINE
  8
0
 62
     0
 10
31.1947
 20
102.133
 30
0.0
 11
30.394
 21
102.133
 31
0.0
  0
LINE
  8
0
 62
     0
 10
30.394
 20
102.133
 30
0.0
 11
30.394
 21
99.0328
 31
0.0
  0
LINE
  8
0
 62
     0
 10
30.394
 20
99.0328
 30
0.0
 11
31.1947
 21
99.0328
 31
0.0
  0
LINE
  8
0
 62
     0
 10
31.1947
 20
99.0328
 30
0.0
 11
31.1947
 21
98.0338
 31
0.0
  0
LINE
  8
0
 62
     0
 10
31.1947
 20
98.0338
 30
0.0
 11
45.194
 21
98.0338
 31
0.0
  0
LINE
  8
0
 62
     0
 10
45.194
 20
98.0338
 30
0.0
 11
45.194
 21
99.0328
 31
0.0
  0
LINE
  8
0
 62
     0
 10
45.194
 20
99.0328
 30
0.0
 11
45.9948
 21
99.0328
 31
0.0
  0
LINE
  8
0
 62
     0
 10
45.9948
 20
99.0328
 30
0.0
 11
45.9948
 21
102.133
 31
0.0
  0
LINE
  8
0
 62
     0
 10
45.9948
 20
102.133
 30
0.0
 11
45.194
 21
102.133
 31
0.0
  0
LINE
  8
0
 62
     0
 10
45.194
 20
102.133
 30
0.0
 11
45.194
 21
107.933
 31
0.0
  0
LINE
  8
0
 62
     0
 10
45.194
 20
107.933
 30
0.0
 11
45.9948
 21
107.933
 31
0.0
  0
LINE
  8
0
 62
     0
 10
45.9948
 20
107.933
 30
0.0
 11
45.9948
 21
111.033
 31
0.0
  0
LINE
  8
0
 62
     0
 10
45.9948
 20
111.033
 30
0.0
 11
45.194
 21
111.033
 31
0.0
  0
LINE
  8
0
 62
     0
 10
45.194
 20
111.033
 30
0.0
 11
45.194
 21
112.033
 31
0.0
  0
LINE
  8
0
 62
     0
 10
45.194
 20
112.033
 30
0.0
 11
31.1947
 21
112.033
 31
0.0
  0
LINE
  8
0
 62
     0
 10
50.2447
 20
112.033
 30
0.0
 11
50.2447
 21
111.033
 31
0.0
  0
LINE
  8
0
 62
     0
 10
50.2447
 20
111.033
 30
0.0
 11
49.4439
 21
111.033
 31
0.0
  0
LINE
  8
0
 62
     0
 10
49.4439
 20
111.033
 30
0.0
 11
49.4439
 21
107.933
 31
0.0
  0
LINE
  8
0
 62
     0
 10
49.4439
 20
107.933
 30
0.0
 11
50.2447
 21
107.933
 31
0.0
  0
LINE
  8
0
 62
     0
 10
50.2447
 20
107.933
 30
0.0
 11
50.2447
 21
102.133
 31
0.0
  0
LINE
  8
0
 62
     0
 10
50.2447
 20
102.133
 30
0.0
 11
49.4439
 21
102.133
 31
0.0
  0
LINE
  8
0
 62
     0
 10
49.4439
 20
102.133
 30
0.0
 11
49.4439
 21
99.0328
 31
0.0
  0
LINE
  8
0
 62
     0
 10
49.4439
 20
99.0328
 30
0.0
 11
50.2447
 21
99.0328
 31
0.0
  0
LINE
  8
0
 62
     0
 10
50.2447
 20
99.0328
 30
0.0
 11
50.2447
 21
98.0338
 31
0.0
  0
LINE
  8
0
 62
     0
 10
50.2447
 20
98.0338
 30
0.0
 11
64.244
 21
98.0338
 31
0.0
  0
LINE
  8
0
 62
     0
 10
64.244
 20
98.0338
 30
0.0
 11
64.244
 21
99.0328
 31
0.0
  0
LINE
  8
0
 62
     0
 10
64.244
 20
99.0328
 30
0.0
 11
65.0448
 21
99.0328
 31
0.0
  0
LINE
  8
0
 62
     0
 10
65.0448
 20
99.0328
 30
0.0
 11
65.0448
 21
102.133
 31
0.0
  0
LINE
  8
0
 62
     0
 10
65.0448
 20
102.133
 30
0.0
 11
64.244
 21
102.133
 31
0.0
  0
LINE
  8
0
 62
     0
 10
64.244
 20
102.133
 30
0.0
 11
64.244
 21
107.933
 31
0.0
  0
LINE
  8
0
 62
     0
 10
64.244
 20
107.933
 30
0.0
 11
65.0448
 21
107.933
 31
0.0
  0
LINE
  8
0
 62
     0
 10
65.0448
 20
107.933
 30
0.0
 11
65.0448
 21
111.033
 31
0.0
  0
LINE
  8
0
 62
     0
 10
65.0448
 20
111.033
 30
0.0
 11
64.244
 21
111.033
 31
0.0
  0
LINE
  8
0
 62
     0
 10
64.244
 20
111.033
 30
0.0
 11
64.244
 21
112.033
 31
0.0
  0
LINE
  8
0
 62
     0
 10
64.244
 20
112.033
 30
0.0
 11
50.2447
 21
112.033
 31
0.0
  0
LINE
  8
0
 62
     0
 10
69.2947
 20
112.033
 30
0.0
 11
69.2947
 21
111.033
 31
0.0
  0
LINE
  8
0
 62
     0
 10
69.2947
 20
111.033
 30
0.0
 11
68.4939
 21
111.033
 31
0.0
  0
LINE
  8
0
 62
     0
 10
68.4939
 20
111.033
 30
0.0
 11
68.4939
 21
107.933
 31
0.0
  0
LINE
  8
0
 62
     0
 10
68.4939
 20
107.933
 30
0.0
 11
69.2947
 21
107.933
 31
0.0
  0
LINE
  8
0
 62
     0
 10
69.2947
 20
107.933
 30
0.0
 11
69.2947
 21
102.133
 31
0.0
  0
LINE
  8
0
 62
     0
 10
69.2947
 20
102.133
 30
0.0
 11
68.4939
 21
102.133
 31
0.0
  0
LINE
  8
0
 62
     0
 10
68.4939
 20
102.133
 30
0.0
 11
68.4939
 21
99.0328
 31
0.0
  0
LINE
  8
0
 62
     0
 10
68.4939
 20
99.0328
 30
0.0
 11
69.2947
 21
99.0328
 31
0.0
  0
LINE
  8
0
 62
     0
 10
69.2947
 20
99.0328
 30
0.0
 11
69.2947
 21
98.0338
 31
0.0
  0
LINE
  8
0
 62
     0
 10
69.2947
 20
98.0338
 30
0.0
 11
83.294
 21
98.0338
 31
0.0
  0
LINE
  8
0
 62
     0
 10
83.294
 20
98.0338
 30
0.0
 11
83.294
 21
99.0328
 31
0.0
  0
LINE
  8
0
 62
     0
 10
83.294
 20
99.0328
 30
0.0
 11
84.0948
 21
99.0328
 31
0.0
  0
LINE
  8
0
 62
     0
 10
84.0948
 20
99.0328
 30
0.0
 11
84.0948
 21
102.133
 31
0.0
  0
LINE
  8
0
 62
     0
 10
84.0948
 20
102.133
 30
0.0
 11
83.294
 21
102.133
 31
0.0
  0
LINE
  8
0
 62
     0
 10
83.294
 20
102.133
 30
0.0
 11
83.294
 21
107.933
 31
0.0
  0
LINE
  8
0
 62
     0
 10
83.294
 20
107.933
 30
0.0
 11
84.0948
 21
107.933
 31
0.0
  0
LINE
  8
0
 62
     0
 10
84.0948
 20
107.933
 30
0.0
 11
84.0948
 21
111.033
 31
0.0
  0
LINE
  8
0
 62
     0
 10
84.0948
 20
111.033
 30
0.0
 11
83.294
 21
111.033
 31
0.0
  0
LINE
  8
0
 62
     0
 10
83.294
 20
111.033
 30
0.0
 11
83.294
 21
112.033
 31
0.0
  0
LINE
  8
0
 62
     0
 10
83.294
 20
112.033
 30
0.0
 11
69.2947
 21
112.033
 31
0.0
  0
LINE
  8
0
 62
     0
 10
88.3447
 20
112.033
 30
0.0
 11
88.3447
 21
111.033
 31
0.0
  0
LINE
  8
0
 62
     0
 10
88.3447
 20
111.033
 30
0.0
 11
87.5439
 21
111.033
 31
0.0
  0
LINE
  8
0
 62
     0
 10
87.5439
 20
111.033
 30
0.0
 11
87.5439
 21
107.933
 31
0.0
  0
LINE
  8
0
 62
     0
 10
87.5439
 20
107.933
 30
0.0
 11
88.3447
 21
107.933
 31
0.0
  0
LINE
  8
0
 62
     0
 10
88.3447
 20
107.933
 30
0.0
 11
88.3447
 21
102.133
 31
0.0
  0
LINE
  8
0
 62
     0
 10
88.3447
 20
102.133
 30
0.0
 11
87.5439
 21
102.133
 31
0.0
  0
LINE
  8
0
 62
     0
 10
87.5439
 20
102.133
 30
0.0
 11
87.5439
 21
99.0328
 31
0.0
  0
LINE
  8
0
 62
     0
 10
87.5439
 20
99.0328
 30
0.0
 11
88.3447
 21
99.0328
 31
0.0
  0
LINE
  8
0
 62
     0
 10
88.3447
 20
99.0328
 30
0.0
 11
88.3447
 21
98.0338
 31
0.0
  0
LINE
  8
0
 62
     0
 10
88.3447
 20
98.0338
 30
0.0
 11
102.344
 21
98.0338
 31
0.0
  0
LINE
  8
0
 62
     0
 10
102.344
 20
98.0338
 30
0.0
 11
102.344
 21
99.0328
 31
0.0
  0
LINE
  8
0
 62
     0
 10
102.344
 20
99.0328
 30
0.0
 11
103.145
 21
99.0328
 31
0.0
  0
LINE
  8
0
 62
     0
 10
103.145
 20
99.0328
 30
0.0
 11
103.145
 21
102.133
 31
0.0
  0
LINE
  8
0
 62
     0
 10
103.145
 20
102.133
 30
0.0
 11
102.344
 21
102.133
 31
0.0
  0
LINE
  8
0
 62
     0
 10
102.344
 20
102.133
 30
0.0
 11
102.344
 21
107.933
 31
0.0
  0
LINE
  8
0
 62
     0
 10
102.344
 20
107.933
 30
0.0
 11
103.145
 21
107.933
 31
0.0
  0
LINE
  8
0
 62
     0
 10
103.145
 20
107.933
 30
0.0
 11
103.145
 21
111.033
 31
0.0
  0
LINE
  8
0
 62
     0
 10
103.145
 20
111.033
 30
0.0
 11
102.344
 21
111.033
 31
0.0
  0
LINE
  8
0
 62
     0
 10
102.344
 20
111.033
 30
0.0
 11
102.344
 21
112.033
 31
0.0
  0
LINE
  8
0
 62
     0
 10
102.344
 20
112.033
 30
0.0
 11
88.3447
 21
112.033
 31
0.0
  0
LINE
  8
0
 62
     0
 10
107.395
 20
112.033
 30
0.0
 11
107.395
 21
111.033
 31
0.0
  0
LINE
  8
0
 62
     0
 10
107.395
 20
111.033
 30
0.0
 11
106.594
 21
111.033
 31
0.0
  0
LINE
  8
0
 62
     0
 10
106.594
 20
111.033
 30
0.0
 11
106.594
 21
107.933
 31
0.0
  0
LINE
  8
0
 62
     0
 10
106.594
 20
107.933
 30
0.0
 11
107.395
 21
107.933
 31
0.0
  0
LINE
  8
0
 62
     0
 10
107.395
 20
107.933
 30
0.0
 11
107.395
 21
102.133
 31
0.0
  0
LINE
  8
0
 62
     0
 10
107.395
 20
102.133
 30
0.0
 11
106.594
 21
102.133
 31
0.0
  0
LINE
  8
0
 62
     0
 10
106.594
 20
102.133
 30
0.0
 11
106.594
 21
99.0328
 31
0.0
  0
LINE
  8
0
 62
     0
 10
106.594
 20
99.0328
 30
0.0
 11
107.395
 21
99.0328
 31
0.0
  0
LINE
  8
0
 62
     0
 10
107.395
 20
99.0328
 30
0.0
 11
107.395
 21
98.0338
 31
0.0
  0
LINE
  8
0
 62
     0
 10
107.395
 20
98.0338
 30
0.0
 11
121.394
 21
98.0338
 31
0.0
  0
LINE
  8
0
 62
     0
 10
121.394
 20
98.0338
 30
0.0
 11
121.394
 21
99.0328
 31
0.0
  0
LINE
  8
0
 62
     0
 10
121.394
 20
99.0328
 30
0.0
 11
122.195
 21
99.0328
 31
0.0
  0
LINE
  8
0
 62
     0
 10
122.195
 20
99.0328
 30
0.0
 11
122.195
 21
102.133
 31
0.0
  0
LINE
  8
0
 62
     0
 10
122.195
 20
102.133
 30
0.0
 11
121.394
 21
102.133
 31
0.0
  0
LINE
  8
0
 62
     0
 10
121.394
 20
102.133
 30
0.0
 11
121.394
 21
107.933
 31
0.0
  0
LINE
  8
0
 62
     0
 10
121.394
 20
107.933
 30
0.0
 11
122.195
 21
107.933
 31
0.0
  0
LINE
  8
0
 62
     0
 10
122.195
 20
107.933
 30
0.0
 11
122.195
 21
111.033
 31
0.0
  0
LINE
  8
0
 62
     0
 10
122.195
 20
111.033
 30
0.0
 11
121.394
 21
111.033
 31
0.0
  0
LINE
  8
0
 62
     0
 10
121.394
 20
111.033
 30
0.0
 11
121.394
 21
112.033
 31
0.0
  0
LINE
  8
0
 62
     0
 10
121.394
 20
112.033
 30
0.0
 11
107.395
 21
112.033
 31
0.0
  0
LINE
  8
0
 62
     0
 10
126.445
 20
112.033
 30
0.0
 11
126.445
 21
111.033
 31
0.0
  0
LINE
  8
0
 62
     0
 10
126.445
 20
111.033
 30
0.0
 11
125.644
 21
111.033
 31
0.0
  0
LINE
  8
0
 62
     0
 10
125.644
 20
111.033
 30
0.0
 11
125.644
 21
107.933
 31
0.0
  0
LINE
  8
0
 62
     0
 10
125.644
 20
107.933
 30
0.0
 11
126.445
 21
107.933
 31
0.0
  0
LINE
  8
0
 62
     0
 10
126.445
 20
107.933
 30
0.0
 11
126.445
 21
102.133
 31
0.0
  0
LINE
  8
0
 62
     0
 10
126.445
 20
102.133
 30
0.0
 11
125.644
 21
102.133
 31
0.0
  0
LINE
  8
0
 62
     0
 10
125.644
 20
102.133
 30
0.0
 11
125.644
 21
99.0328
 31
0.0
  0
LINE
  8
0
 62
     0
 10
125.644
 20
99.0328
 30
0.0
 11
126.445
 21
99.0328
 31
0.0
  0
LINE
  8
0
 62
     0
 10
126.445
 20
99.0328
 30
0.0
 11
126.445
 21
98.0338
 31
0.0
  0
LINE
  8
0
 62
     0
 10
126.445
 20
98.0338
 30
0.0
 11
140.444
 21
98.0338
 31
0.0
  0
LINE
  8
0
 62
     0
 10
140.444
 20
98.0338
 30
0.0
 11
140.444
 21
99.0328
 31
0.0
  0
LINE
  8
0
 62
     0
 10
140.444
 20
99.0328
 30
0.0
 11
141.245
 21
99.0328
 31
0.0
  0
LINE
  8
0
 62
     0
 10
141.245
 20
99.0328
 30
0.0
 11
141.245
 21
102.133
 31
0.0
  0
LINE
  8
0
 62
     0
 10
141.245
 20
102.133
 30
0.0
 11
140.444
 21
102.133
 31
0.0
  0
LINE
  8
0
 62
     0
 10
140.444
 20
102.133
 30
0.0
 11
140.444
 21
107.933
 31
0.0
  0
LINE
  8
0
 62
     0
 10
140.444
 20
107.933
 30
0.0
 11
141.245
 21
107.933
 31
0.0
  0
LINE
  8
0
 62
     0
 10
141.245
 20
107.933
 30
0.0
 11
141.245
 21
111.033
 31
0.0
  0
LINE
  8
0
 62
     0
 10
141.245
 20
111.033
 30
0.0
 11
140.444
 21
111.033
 31
0.0
  0
LINE
  8
0
 62
     0
 10
140.444
 20
111.033
 30
0.0
 11
140.444
 21
112.033
 31
0.0
  0
LINE
  8
0
 62
     0
 10
140.444
 20
112.033
 30
0.0
 11
126.445
 21
112.033
 31
0.0
  0
LINE
  8
0
 62
     0
 10
145.495
 20
112.033
 30
0.0
 11
145.495
 21
111.033
 31
0.0
  0
LINE
  8
0
 62
     0
 10
145.495
 20
111.033
 30
0.0
 11
144.694
 21
111.033
 31
0.0
  0
LINE
  8
0
 62
     0
 10
144.694
 20
111.033
 30
0.0
 11
144.694
 21
107.933
 31
0.0
  0
LINE
  8
0
 62
     0
 10
144.694
 20
107.933
 30
0.0
 11
145.495
 21
107.933
 31
0.0
  0
LINE
  8
0
 62
     0
 10
145.495
 20
107.933
 30
0.0
 11
145.495
 21
102.133
 31
0.0
  0
LINE
  8
0
 62
     0
 10
145.495
 20
102.133
 30
0.0
 11
144.694
 21
102.133
 31
0.0
  0
LINE
  8
0
 62
     0
 10
144.694
 20
102.133
 30
0.0
 11
144.694
 21
99.0328
 31
0.0
  0
LINE
  8
0
 62
     0
 10
144.694
 20
99.0328
 30
0.0
 11
145.495
 21
99.0328
 31
0.0
  0
LINE
  8
0
 62
     0
 10
145.495
 20
99.0328
 30
0.0
 11
145.495
 21
98.0338
 31
0.0
  0
LINE
  8
0
 62
     0
 10
145.495
 20
98.0338
 30
0.0
 11
159.494
 21
98.0338
 31
0.0
  0
LINE
  8
0
 62
     0
 10
159.494
 20
98.0338
 30
0.0
 11
159.494
 21
99.0328
 31
0.0
  0
LINE
  8
0
 62
     0
 10
159.494
 20
99.0328
 30
0.0
 11
160.295
 21
99.0328
 31
0.0
  0
LINE
  8
0
 62
     0
 10
160.295
 20
99.0328
 30
0.0
 11
160.295
 21
102.133
 31
0.0
  0
LINE
  8
0
 62
     0
 10
160.295
 20
102.133
 30
0.0
 11
159.494
 21
102.133
 31
0.0
  0
LINE
  8
0
 62
     0
 10
159.494
 20
102.133
 30
0.0
 11
159.494
 21
107.933
 31
0.0
  0
LINE
  8
0
 62
     0
 10
159.494
 20
107.933
 30
0.0
 11
160.295
 21
107.933
 31
0.0
  0
LINE
  8
0
 62
     0
 10
160.295
 20
107.933
 30
0.0
 11
160.295
 21
111.033
 31
0.0
  0
LINE
  8
0
 62
     0
 10
160.295
 20
111.033
 30
0.0
 11
159.494
 21
111.033
 31
0.0
  0
LINE
  8
0
 62
     0
 10
159.494
 20
111.033
 30
0.0
 11
159.494
 21
112.033
 31
0.0
  0
LINE
  8
0
 62
     0
 10
159.494
 20
112.033
 30
0.0
 11
145.495
 21
112.033
 31
0.0
  0
LINE
  8
0
 62
     0
 10
164.545
 20
112.033
 30
0.0
 11
164.545
 21
111.033
 31
0.0
  0
LINE
  8
0
 62
     0
 10
164.545
 20
111.033
 30
0.0
 11
163.744
 21
111.033
 31
0.0
  0
LINE
  8
0
 62
     0
 10
163.744
 20
111.033
 30
0.0
 11
163.744
 21
107.933
 31
0.0
  0
LINE
  8
0
 62
     0
 10
163.744
 20
107.933
 30
0.0
 11
164.545
 21
107.933
 31
0.0
  0
LINE
  8
0
 62
     0
 10
164.545
 20
107.933
 30
0.0
 11
164.545
 21
102.133
 31
0.0
  0
LINE
  8
0
 62
     0
 10
164.545
 20
102.133
 30
0.0
 11
163.744
 21
102.133
 31
0.0
  0
LINE
  8
0
 62
     0
 10
163.744
 20
102.133
 30
0.0
 11
163.744
 21
99.0328
 31
0.0
  0
LINE
  8
0
 62
     0
 10
163.744
 20
99.0328
 30
0.0
 11
164.545
 21
99.0328
 31
0.0
  0
LINE
  8
0
 62
     0
 10
164.545
 20
99.0328
 30
0.0
 11
164.545
 21
98.0338
 31
0.0
  0
LINE
  8
0
 62
     0
 10
164.545
 20
98.0338
 30
0.0
 11
178.544
 21
98.0338
 31
0.0
  0
LINE
  8
0
 62
     0
 10
178.544
 20
98.0338
 30
0.0
 11
178.544
 21
99.0328
 31
0.0
  0
LINE
  8
0
 62
     0
 10
178.544
 20
99.0328
 30
0.0
 11
179.345
 21
99.0328
 31
0.0
  0
LINE
  8
0
 62
     0
 10
179.345
 20
99.0328
 30
0.0
 11
179.345
 21
102.133
 31
0.0
  0
LINE
  8
0
 62
     0
 10
179.345
 20
102.133
 30
0.0
 11
178.544
 21
102.133
 31
0.0
  0
LINE
  8
0
 62
     0
 10
178.544
 20
102.133
 30
0.0
 11
178.544
 21
107.933
 31
0.0
  0
LINE
  8
0
 62
     0
 10
178.544
 20
107.933
 30
0.0
 11
179.345
 21
107.933
 31
0.0
  0
LINE
  8
0
 62
     0
 10
179.345
 20
107.933
 30
0.0
 11
179.345
 21
111.033
 31
0.0
  0
LINE
  8
0
 62
     0
 10
179.345
 20
111.033
 30
0.0
 11
178.544
 21
111.033
 31
0.0
  0
LINE
  8
0
 62
     0
 10
178.544
 20
111.033
 30
0.0
 11
178.544
 21
112.033
 31
0.0
  0
LINE
  8
0
 62
     0
 10
178.544
 20
112.033
 30
0.0
 11
164.545
 21
112.033
 31
0.0
  0
LINE
  8
0
 62
     0
 10
183.595
 20
112.033
 30
0.0
 11
183.595
 21
111.033
 31
0.0
  0
LINE
  8
0
 62
     0
 10
183.595
 20
111.033
 30
0.0
 11
182.794
 21
111.033
 31
0.0
  0
LINE
  8
0
 62
     0
 10
182.794
 20
111.033
 30
0.0
 11
182.794
 21
107.933
 31
0.0
  0
LINE
  8
0
 62
     0
 10
182.794
 20
107.933
 30
0.0
 11
183.595
 21
107.933
 31
0.0
  0
LINE
  8
0
 62
     0
 10
183.595
 20
107.933
 30
0.0
 11
183.595
 21
102.133
 31
0.0
  0
LINE
  8
0
 62
     0
 10
183.595
 20
102.133
 30
0.0
 11
182.794
 21
102.133
 31
0.0
  0
LINE
  8
0
 62
     0
 10
182.794
 20
102.133
 30
0.0
 11
182.794
 21
99.0328
 31
0.0
  0
LINE
  8
0
 62
     0
 10
182.794
 20
99.0328
 30
0.0
 11
183.595
 21
99.0328
 31
0.0
  0
LINE
  8
0
 62
     0
 10
183.595
 20
99.0328
 30
0.0
 11
183.595
 21
98.0338
 31
0.0
  0
LINE
  8
0
 62
     0
 10
183.595
 20
98.0338
 30
0.0
 11
197.594
 21
98.0338
 31
0.0
  0
LINE
  8
0
 62
     0
 10
197.594
 20
98.0338
 30
0.0
 11
197.594
 21
99.0328
 31
0.0
  0
LINE
  8
0
 62
     0
 10
197.594
 20
99.0328
 30
0.0
 11
198.395
 21
99.0328
 31
0.0
  0
LINE
  8
0
 62
     0
 10
198.395
 20
99.0328
 30
0.0
 11
198.395
 21
102.133
 31
0.0
  0
LINE
  8
0
 62
     0
 10
198.395
 20
102.133
 30
0.0
 11
197.594
 21
102.133
 31
0.0
  0
LINE
  8
0
 62
     0
 10
197.594
 20
102.133
 30
0.0
 11
197.594
 21
107.933
 31
0.0
  0
LINE
  8
0
 62
     0
 10
197.594
 20
107.933
 30
0.0
 11
198.395
 21
107.933
 31
0.0
  0
LINE
  8
0
 62
     0
 10
198.395
 20
107.933
 30
0.0
 11
198.395
 21
111.033
 31
0.0
  0
LINE
  8
0
 62
     0
 10
198.395
 20
111.033
 30
0.0
 11
197.594
 21
111.033
 31
0.0
  0
LINE
  8
0
 62
     0
 10
197.594
 20
111.033
 30
0.0
 11
197.594
 21
112.033
 31
0.0
  0
LINE
  8
0
 62
     0
 10
197.594
 20
112.033
 30
0.0
 11
183.595
 21
112.033
 31
0.0
  0
LINE
  8
0
 62
     0
 10
202.645
 20
112.033
 30
0.0
 11
202.645
 21
111.033
 31
0.0
  0
LINE
  8
0
 62
     0
 10
202.645
 20
111.033
 30
0.0
 11
201.844
 21
111.033
 31
0.0
  0
LINE
  8
0
 62
     0
 10
201.844
 20
111.033
 30
0.0
 11
201.844
 21
107.933
 31
0.0
  0
LINE
  8
0
 62
     0
 10
201.844
 20
107.933
 30
0.0
 11
202.645
 21
107.933
 31
0.0
  0
LINE
  8
0
 62
     0
 10
202.645
 20
107.933
 30
0.0
 11
202.645
 21
102.133
 31
0.0
  0
LINE
  8
0
 62
     0
 10
202.645
 20
102.133
 30
0.0
 11
201.844
 21
102.133
 31
0.0
  0
LINE
  8
0
 62
     0
 10
201.844
 20
102.133
 30
0.0
 11
201.844
 21
99.0328
 31
0.0
  0
LINE
  8
0
 62
     0
 10
201.844
 20
99.0328
 30
0.0
 11
202.645
 21
99.0328
 31
0.0
  0
LINE
  8
0
 62
     0
 10
202.645
 20
99.0328
 30
0.0
 11
202.645
 21
98.0338
 31
0.0
  0
LINE
  8
0
 62
     0
 10
202.645
 20
98.0338
 30
0.0
 11
216.644
 21
98.0338
 31
0.0
  0
LINE
  8
0
 62
     0
 10
216.644
 20
98.0338
 30
0.0
 11
216.644
 21
99.0328
 31
0.0
  0
LINE
  8
0
 62
     0
 10
216.644
 20
99.0328
 30
0.0
 11
217.445
 21
99.0328
 31
0.0
  0
LINE
  8
0
 62
     0
 10
217.445
 20
99.0328
 30
0.0
 11
217.445
 21
102.133
 31
0.0
  0
LINE
  8
0
 62
     0
 10
217.445
 20
102.133
 30
0.0
 11
216.644
 21
102.133
 31
0.0
  0
LINE
  8
0
 62
     0
 10
216.644
 20
102.133
 30
0.0
 11
216.644
 21
107.933
 31
0.0
  0
LINE
  8
0
 62
     0
 10
216.644
 20
107.933
 30
0.0
 11
217.445
 21
107.933
 31
0.0
  0
LINE
  8
0
 62
     0
 10
217.445
 20
107.933
 30
0.0
 11
217.445
 21
111.033
 31
0.0
  0
LINE
  8
0
 62
     0
 10
217.445
 20
111.033
 30
0.0
 11
216.644
 21
111.033
 31
0.0
  0
LINE
  8
0
 62
     0
 10
216.644
 20
111.033
 30
0.0
 11
216.644
 21
112.033
 31
0.0
  0
LINE
  8
0
 62
     0
 10
216.644
 20
112.033
 30
0.0
 11
202.645
 21
112.033
 31
0.0
  0
LINE
  8
0
 62
     0
 10
221.695
 20
112.033
 30
0.0
 11
221.695
 21
111.033
 31
0.0
  0
LINE
  8
0
 62
     0
 10
221.695
 20
111.033
 30
0.0
 11
220.894
 21
111.033
 31
0.0
  0
LINE
  8
0
 62
     0
 10
220.894
 20
111.033
 30
0.0
 11
220.894
 21
107.933
 31
0.0
  0
LINE
  8
0
 62
     0
 10
220.894
 20
107.933
 30
0.0
 11
221.695
 21
107.933
 31
0.0
  0
LINE
  8
0
 62
     0
 10
221.695
 20
107.933
 30
0.0
 11
221.695
 21
102.133
 31
0.0
  0
LINE
  8
0
 62
     0
 10
221.695
 20
102.133
 30
0.0
 11
220.894
 21
102.133
 31
0.0
  0
LINE
  8
0
 62
     0
 10
220.894
 20
102.133
 30
0.0
 11
220.894
 21
99.0328
 31
0.0
  0
LINE
  8
0
 62
     0
 10
220.894
 20
99.0328
 30
0.0
 11
221.695
 21
99.0328
 31
0.0
  0
LINE
  8
0
 62
     0
 10
221.695
 20
99.0328
 30
0.0
 11
221.695
 21
98.0338
 31
0.0
  0
LINE
  8
0
 62
     0
 10
221.695
 20
98.0338
 30
0.0
 11
235.694
 21
98.0338
 31
0.0
  0
LINE
  8
0
 62
     0
 10
235.694
 20
98.0338
 30
0.0
 11
235.694
 21
99.0328
 31
0.0
  0
LINE
  8
0
 62
     0
 10
235.694
 20
99.0328
 30
0.0
 11
236.495
 21
99.0328
 31
0.0
  0
LINE
  8
0
 62
     0
 10
236.495
 20
99.0328
 30
0.0
 11
236.495
 21
102.133
 31
0.0
  0
LINE
  8
0
 62
     0
 10
236.495
 20
102.133
 30
0.0
 11
235.694
 21
102.133
 31
0.0
  0
LINE
  8
0
 62
     0
 10
235.694
 20
102.133
 30
0.0
 11
235.694
 21
107.933
 31
0.0
  0
LINE
  8
0
 62
     0
 10
235.694
 20
107.933
 30
0.0
 11
236.495
 21
107.933
 31
0.0
  0
LINE
  8
0
 62
     0
 10
236.495
 20
107.933
 30
0.0
 11
236.495
 21
111.033
 31
0.0
  0
LINE
  8
0
 62
     0
 10
236.495
 20
111.033
 30
0.0
 11
235.694
 21
111.033
 31
0.0
  0
LINE
  8
0
 62
     0
 10
235.694
 20
111.033
 30
0.0
 11
235.694
 21
112.033
 31
0.0
  0
LINE
  8
0
 62
     0
 10
235.694
 20
112.033
 30
0.0
 11
221.695
 21
112.033
 31
0.0
  0
LINE
  8
0
 62
     0
 10
240.745
 20
112.033
 30
0.0
 11
240.745
 21
111.033
 31
0.0
  0
LINE
  8
0
 62
     0
 10
240.745
 20
111.033
 30
0.0
 11
239.944
 21
111.033
 31
0.0
  0
LINE
  8
0
 62
     0
 10
239.944
 20
111.033
 30
0.0
 11
239.944
 21
107.933
 31
0.0
  0
LINE
  8
0
 62
     0
 10
239.944
 20
107.933
 30
0.0
 11
240.745
 21
107.933
 31
0.0
  0
LINE
  8
0
 62
     0
 10
240.745
 20
107.933
 30
0.0
 11
240.745
 21
102.133
 31
0.0
  0
LINE
  8
0
 62
     0
 10
240.745
 20
102.133
 30
0.0
 11
239.944
 21
102.133
 31
0.0
  0
LINE
  8
0
 62
     0
 10
239.944
 20
102.133
 30
0.0
 11
239.944
 21
99.0328
 31
0.0
  0
LINE
  8
0
 62
     0
 10
239.944
 20
99.0328
 30
0.0
 11
240.745
 21
99.0328
 31
0.0
  0
LINE
  8
0
 62
     0
 10
240.745
 20
99.0328
 30
0.0
 11
240.745
 21
98.0338
 31
0.0
  0
LINE
  8
0
 62
     0
 10
240.745
 20
98.0338
 30
0.0
 11
254.744
 21
98.0338
 31
0.0
  0
LINE
  8
0
 62
     0
 10
254.744
 20
98.0338
 30
0.0
 11
254.744
 21
99.0328
 31
0.0
  0
LINE
  8
0
 62
     0
 10
254.744
 20
99.0328
 30
0.0
 11
255.545
 21
99.0328
 31
0.0
  0
LINE
  8
0
 62
     0
 10
255.545
 20
99.0328
 30
0.0
 11
255.545
 21
102.133
 31
0.0
  0
LINE
  8
0
 62
     0
 10
255.545
 20
102.133
 30
0.0
 11
254.744
 21
102.133
 31
0.0
  0
LINE
  8
0
 62
     0
 10
254.744
 20
102.133
 30
0.0
 11
254.744
 21
107.933
 31
0.0
  0
LINE
  8
0
 62
     0
 10
254.744
 20
107.933
 30
0.0
 11
255.545
 21
107.933
 31
0.0
  0
LINE
  8
0
 62
     0
 10
255.545
 20
107.933
 30
0.0
 11
255.545
 21
111.033
 31
0.0
  0
LINE
  8
0
 62
     0
 10
255.545
 20
111.033
 30
0.0
 11
254.744
 21
111.033
 31
0.0
  0
LINE
  8
0
 62
     0
 10
254.744
 20
111.033
 30
0.0
 11
254.744
 21
112.033
 31
0.0
  0
LINE
  8
0
 62
     0
 10
254.744
 20
112.033
 30
0.0
 11
240.745
 21
112.033
 31
0.0
  0
LINE
  8
0
 62
     0
 10
259.795
 20
112.033
 30
0.0
 11
259.795
 21
111.033
 31
0.0
  0
LINE
  8
0
 62
     0
 10
259.795
 20
111.033
 30
0.0
 11
258.994
 21
111.033
 31
0.0
  0
LINE
  8
0
 62
     0
 10
258.994
 20
111.033
 30
0.0
 11
258.994
 21
107.933
 31
0.0
  0
LINE
  8
0
 62
     0
 10
258.994
 20
107.933
 30
0.0
 11
259.795
 21
107.933
 31
0.0
  0
LINE
  8
0
 62
     0
 10
259.795
 20
107.933
 30
0.0
 11
259.795
 21
102.133
 31
0.0
  0
LINE
  8
0
 62
     0
 10
259.795
 20
102.133
 30
0.0
 11
258.994
 21
102.133
 31
0.0
  0
LINE
  8
0
 62
     0
 10
258.994
 20
102.133
 30
0.0
 11
258.994
 21
99.0328
 31
0.0
  0
LINE
  8
0
 62
     0
 10
258.994
 20
99.0328
 30
0.0
 11
259.795
 21
99.0328
 31
0.0
  0
LINE
  8
0
 62
     0
 10
259.795
 20
99.0328
 30
0.0
 11
259.795
 21
98.0338
 31
0.0
  0
LINE
  8
0
 62
     0
 10
259.795
 20
98.0338
 30
0.0
 11
273.794
 21
98.0338
 31
0.0
  0
LINE
  8
0
 62
     0
 10
273.794
 20
98.0338
 30
0.0
 11
273.794
 21
99.0328
 31
0.0
  0
LINE
  8
0
 62
     0
 10
273.794
 20
99.0328
 30
0.0
 11
274.595
 21
99.0328
 31
0.0
  0
LINE
  8
0
 62
     0
 10
274.595
 20
99.0328
 30
0.0
 11
274.595
 21
102.133
 31
0.0
  0
LINE
  8
0
 62
     0
 10
274.595
 20
102.133
 30
0.0
 11
273.794
 21
102.133
 31
0.0
  0
LINE
  8
0
 62
     0
 10
273.794
 20
102.133
 30
0.0
 11
273.794
 21
107.933
 31
0.0
  0
LINE
  8
0
 62
     0
 10
273.794
 20
107.933
 30
0.0
 11
274.595
 21
107.933
 31
0.0
  0
LINE
  8
0
 62
     0
 10
274.595
 20
107.933
 30
0.0
 11
274.595
 21
111.033
 31
0.0
  0
LINE
  8
0
 62
     0
 10
274.595
 20
111.033
 30
0.0
 11
273.794
 21
111.033
 31
0.0
  0
LINE
  8
0
 62
     0
 10
273.794
 20
111.033
 30
0.0
 11
273.794
 21
112.033
 31
0.0
  0
LINE
  8
0
 62
     0
 10
273.794
 20
112.033
 30
0.0
 11
259.795
 21
112.033
 31
0.0
  0
ENDSEC
  0
EOF
